<svg xmlns="http://www.w3.org/2000/svg" width="1221.5pt" height="748pt" viewBox="0 0 1221.5 748"><defs><clipPath id="a"><path d="M0 577h1221.5v171H0zm0 0"/></clipPath></defs><path d="M661.164.633c5.195.308 10.39.637 15.586.926.16 12-.2 23.992-.262 35.992-63.41-3.27-127.847 3.73-187.937 24.82-54.39 18.867-104.43 49.55-146.871 88.36-23.621 21.359-44.77 45.308-64.258 70.46-10.094-7.222-20.3-14.27-30.363-21.53 20.703-30.2 45.07-57.9 72.46-82.192 48.231-42.88 105.68-75.18 167.141-94.73C526.14 10.022 567.293 2.796 608.68.46c17.133-.965 35.304-.844 52.484.172zM603.578 111.73c22.57-3.46 46.152-.039 66.723 9.91 28.64 13.481 51.16 39.329 60.418 69.622 7.37 23.547 6.742 49.5-1.578 72.726-10.852 31.032-35.563 56.973-66.34 68.742-22.11 8.649-46.973 10.13-69.93 4.07-29.762-7.609-56.11-27.73-71.101-54.562-12.16-21.418-17.04-46.808-13.891-71.207 4.133-33.492 23.66-64.793 52.18-82.902 13.16-8.41 28.07-14.059 43.52-16.399zm-18.137 56.739c-7.832 1.93-14.57 7.441-18.21 14.613-6.122 11.777-2.481 27.59 8.417 35.27 11.551 8.898 29.782 6.578 38.66-5.012 9.41-11.27 7.712-29.68-3.667-38.969-6.782-5.98-16.493-8-25.2-5.902zm228.72 183.722c56.737-31.902 105.077-77.293 144.41-128.87 10.148 7.167 20.327 14.308 30.449 21.538-31.532 45.973-71.622 86.02-117.668 117.442-70.942 48.668-155.532 76.719-241.34 81.52-22.153 1.21-44.371.929-66.5-.61.117-12.082-.352-24.18.289-36.242 46.93 2.48 94.32-1 140.117-11.778 38.512-9.082 75.812-23.48 110.242-43zm0 0" fill-rule="evenodd" fill="#139e5a"/><g clip-path="url(#a)"><path d="M396.52 578.7c15.77-2.579 32.308-.618 46.94 5.882 17.86 7.777 32.731 22.078 41.45 39.477 7.84 15.582 10.75 33.609 8.16 50.87-2.832 20.173-13.308 39.153-28.84 52.333-11.851 10.226-26.66 16.988-42.16 19.207-18.52 2.812-37.922-1.059-54.058-10.54-15.73-9.269-28.371-23.73-35.332-40.628-6.98-16.7-8.34-35.64-4.078-53.219 4.57-19.031 16-36.332 31.738-47.973 10.57-7.98 23.12-13.257 36.18-15.41zm3.02 21.019c-23.5 3.883-43.552 22.43-49.759 45.351-4.261 15.13-2.781 31.848 4.32 45.899 6.88 14.05 19.149 25.39 33.778 30.972 15.703 6.18 33.992 5.41 49.121-2.062 12.781-6.18 23.328-16.84 29.41-29.668 7.309-14.91 8.36-32.742 2.899-48.422-4.598-13.82-14.18-25.898-26.547-33.559-12.711-8-28.422-11.18-43.223-8.511zm599.538-16.52c25.793-10.238 56.524-6.21 78.852 10.262-3.45 6.289-6.692 12.68-10.13 18.98-8.55-6.77-18.84-11.41-29.652-12.96-15.097-2.36-30.976 1.39-43.597 9.968-14.09 9.43-24.04 24.73-27.051 41.41-4.29 22.262 4.379 46.43 21.95 60.762 17.26 14.797 42.96 18.7 63.788 9.559 5.262-2.27 10.184-5.27 14.703-8.79 3.239 6.36 6.649 12.65 10.02 18.95-17.32 12.828-39.832 18.422-61.14 15.09-21.321-3.059-41.071-14.961-54.071-32.07-16.11-20.77-21.54-49.169-14.52-74.462 6.77-25.5 26.2-47.238 50.848-56.699zM0 581h21c0 54.25.012 108.512-.012 162.762C14 743.75 7 743.75 0 743.75zm52.738 0c5.313-.012 10.614 0 15.922 0 35.25 43.11 70.602 86.129 105.828 129.262-.027-43.063.082-86.114-.047-129.16 7.098-.211 14.207-.063 21.32-.09-.023 54.25 0 108.488-.011 162.738-7.14-.02-14.281.059-21.422-.05-33.316-40.938-66.93-81.65-100.277-122.56-.121 40.872-.012 81.75-.063 122.622-7.097-.094-14.207.148-21.308-.133.16-54.211.03-108.418.058-162.629zm445.453 0c7.489.02 14.98-.04 22.48.031 13.52 39.438 27.43 78.77 40.77 118.27C575.391 660 588.84 620.51 602.45 581.09c4.13-.18 8.27-.059 12.422-.09 13.668 39.371 27.2 78.781 40.918 118.14 13.871-39.308 27.242-78.8 41.02-118.152 7.48.024 14.972.012 22.46 0-18.789 54.25-37.519 108.524-56.34 162.762-4.75-.02-9.5.04-14.25-.04-13.308-38.5-26.62-77-39.968-115.491-13.371 38.5-26.61 77.05-40.031 115.543-4.739-.024-9.48 0-14.22-.024C535.72 689.488 516.872 635.27 498.192 581zm267.11.02c6.86-.051 13.73-.008 20.597-.02 22.012 54.238 44.032 108.488 65.993 162.75-7.63.012-15.262-.02-22.88.02-5.8-14.23-11.671-28.438-17.3-42.739-23.992-.101-47.98.059-71.973-.082-5.988 14.223-11.52 28.633-17.527 42.84-7.602-.11-15.2.05-22.8-.09 21.917-54.238 44.01-108.418 65.89-162.68zm10.258 31.199c-8.938 22.57-18.188 45.011-27.309 67.511 18.25.032 36.5.032 54.738 0-9.129-22.511-18.168-45.058-27.43-67.511zm66.89-31.13c33.43-.19 66.88-.058 100.32-.07-.039 7.083-.007 14.153-.019 21.231-13.3-.02-26.61.059-39.91-.05-.2 47.26-.04 94.53-.078 141.788-6.672.024-13.34.012-20.012.012-.012-47.25 0-94.5 0-141.75-13.41 0-26.82-.02-40.219.012-.101-7.063.047-14.121-.082-21.172zM1100 581c7.078 0 14.16-.012 21.25 0-.02 21.148.04 42.3-.031 63.46 26.34.09 52.68.009 79.031.028-.012-21.156.012-42.308-.02-63.468 6.97-.04 13.93-.008 20.899-.02.46 51.969.05 103.969.242 155.95.008 2.34-.07 4.69-.191 7.05-6.98-.012-13.961.012-20.942-.012.024-26.156 0-52.316 0-78.476-26.289-.07-52.578.11-78.867-.102-.293 26.192-.043 52.39-.121 78.59H1100V581zm-869.75 1.25c24.832-.012 49.672 0 74.5 0-.04 7.102.09 14.2-.07 21.29-17.73-.09-35.45-.02-53.18-.028v40.976c16.18.051 32.36-.066 48.531.063-.133 7.008.117 14.008-.133 21.02-16.128-.15-32.27-.032-48.398-.071.02 26.148-.05 52.29.04 78.441-7.099.13-14.2.04-21.302.04.024-53.91 0-107.82.012-161.731zm0 0" fill-rule="evenodd"/></g></svg>