<?xml version="1.0" standalone="no"?>
  <!DOCTYPE svg PUBLIC "-//W3C//DTD SVG 1.1//EN" "http://www.w3.org/Graphics/SVG/1.1/DTD/svg11.dtd" >
  <svg>
  <metadata>
  Created by font-carrier
  </metadata>
  <defs>
  <font id="FontAwesome5Free-Regular" horiz-adv-x="640" vert-adv-y="640" >
    <font-face
      
      font-family="Font Awesome 5 Free Regular"
      
      font-weight="400"
      
      font-stretch="normal"
      
      units-per-em="512"
      
      ascent="448"
      
      descent="-64"
      
    />
      <missing-glyph />

      
      <glyph glyph-name="x" unicode="&#x78;" horiz-adv-x="100"
        d="M20 20 L50 20 L50 -20 Z" />
      

      
      <glyph glyph-name="uniF004" unicode="&#xF004;" d="M458 384Q494 353 506 310.50Q518 268 507 229Q496 190 469 162L294-16Q278-32 256-32Q234-32 218-16L43 162Q16 190 5 229.50Q-6 269 6 311Q18 353 54 384Q97 420 155.50 415.50Q214 411 256 369Q298 411 356.50 415.50Q415 420 458 384M435 196Q464 226 464 269.50Q464 313 428 347Q398 371 358.50 368Q319 365 291 336L256 301L221 336Q193 365 153.50 368Q114 371 84 347Q48 313 48 269.50Q48 226 77 196L253 18Q256 14 259 18L435 196Z"  horiz-adv-x="512" vert-adv-y="512"  />

      
      <glyph glyph-name="uniF005" unicode="&#xF005;" d="M528 276Q548 274 554 255Q560 236 546 222L440 119L465-27Q468-46 452-57.50Q436-69 419-60L288 8L157-60Q140-70 124-58Q108-46 111-27L136 119L30 222Q16 236 22 255Q28 274 48 276L194 298L259 430Q268 448 288 448Q308 448 317 430L382 298L528 276M389 136L489 234L350 254L288 380L226 254L87 234L187 136L164-3L288 63L412-3L389 136Z"  horiz-adv-x="576" vert-adv-y="512"  />

      
      <glyph glyph-name="uniF007" unicode="&#xF007;" d="M314 144Q369 144 408.50 104.50Q448 65 448 10L448-16Q448-36 434-50Q420-64 400-64L48-64Q28-64 14-50Q0-36 0-16L0 10Q0 65 39.50 104.50Q79 144 134 144Q147 144 172.50 136Q198 128 224 128Q250 128 276 136Q302 144 314 144M400-16L400 10Q400 45 374.50 70.50Q349 96 314 96Q311 96 282.50 88Q254 80 224 80Q194 80 165.50 88Q137 96 134 96Q99 96 73.50 70.50Q48 45 48 10L48-16L400-16M326 202Q326 202 305 181Q284 160 224 160Q164 160 122 202Q80 244 80 304Q80 364 122 406Q164 448 224 448Q284 448 326 406Q368 364 368 304Q368 244 326 202M292 372Q292 372 278 386Q264 400 224 400Q184 400 156 372Q128 344 128 304Q128 264 156 236Q184 208 224 208Q264 208 292 236Q320 264 320 304Q320 344 292 372Z"  horiz-adv-x="448" vert-adv-y="512"  />

      
      <glyph glyph-name="uniF017" unicode="&#xF017;" d="M80.50 367.50Q80.50 367.50 116.75 403.75Q153 440 256 440Q359 440 431.50 367.50Q504 295 504 192Q504 89 431.50 16.50Q359-56 256-56Q153-56 80.50 16.50Q8 89 8 192Q8 295 80.50 367.50M114.50 50.50Q114.50 50.50 143.75 21.25Q173-8 256-8Q339-8 397.50 50.50Q456 109 456 192Q456 275 397.50 333.50Q339 392 256 392Q173 392 114.50 333.50Q56 275 56 192Q56 109 114.50 50.50M318 96L233 158Q228 162 228 168L228 332Q228 344 240 344L272 344Q284 344 284 332L284 190L351 142Q360 135 353 125L335 99Q328 89 318 96Z"  horiz-adv-x="512" vert-adv-y="512"  />

      
      <glyph glyph-name="uniF022" unicode="&#xF022;" d="M464 416Q484 416 498 402Q512 388 512 368L512 16Q512-4 498-18Q484-32 464-32L48-32Q28-32 14-18Q0-4 0 16L0 368Q0 388 14 402Q28 416 48 416L464 416M458 16Q464 16 464 22L464 362Q464 368 458 368L54 368Q48 368 48 362L48 22Q48 16 54 16L458 16M416 108L416 84Q416 72 404 72L204 72Q192 72 192 84L192 108Q192 120 204 120L404 120Q416 120 416 108M416 204L416 180Q416 168 404 168L204 168Q192 168 192 180L192 204Q192 216 204 216L404 216Q416 216 416 204M416 300L416 276Q416 264 404 264L204 264Q192 264 192 276L192 300Q192 312 204 312L404 312Q416 312 416 300M153.50 313.50Q153.50 313.50 158.75 308.25Q164 303 164 288Q164 273 153.50 262.50Q143 252 128 252Q113 252 102.50 262.50Q92 273 92 288Q92 303 102.50 313.50Q113 324 128 324Q143 324 153.50 313.50M153.50 217.50Q153.50 217.50 158.75 212.25Q164 207 164 192Q164 177 153.50 166.50Q143 156 128 156Q113 156 102.50 166.50Q92 177 92 192Q92 207 102.50 217.50Q113 228 128 228Q143 228 153.50 217.50M153.50 121.50Q153.50 121.50 158.75 116.25Q164 111 164 96Q164 81 153.50 70.50Q143 60 128 60Q113 60 102.50 70.50Q92 81 92 96Q92 111 102.50 121.50Q113 132 128 132Q143 132 153.50 121.50Z"  horiz-adv-x="512" vert-adv-y="512"  />

      
      <glyph glyph-name="uniF024" unicode="&#xF024;" d="M336 368Q380 368 445 396Q469 406 490.50 392Q512 378 512 352L512 112Q512 86 490 72Q429 32 362 32Q325 32 273.50 48Q222 64 200 64Q135 64 72 35L72-48Q72-55 67.50-59.50Q63-64 56-64L40-64Q33-64 28.50-59.50Q24-55 24-48L24 358Q0 372 0 400Q0 421 15 435Q30 449 51 448Q68 447 81 435Q94 423 96 406Q96 403 96 400Q96 392 94 385Q133 400 174 400Q211 400 262.50 384Q314 368 336 368M464 112L464 352Q395 320 336 320Q306 320 255 336Q204 352 174 352Q117 352 72 320L72 88Q124 112 200 112Q230 112 281 96Q332 80 362 80Q419 80 464 112Z"  horiz-adv-x="512" vert-adv-y="512"  />

      
      <glyph glyph-name="uniF02E" unicode="&#xF02E;" d="M336 448Q356 448 370 434Q384 420 384 400L384-64L192 48L0-64L0 400Q0 420 14 434Q28 448 48 448L336 448M336 20L336 394Q336 400 330 400L54 400Q48 400 48 394L48 20L192 104L336 20Z"  horiz-adv-x="384" vert-adv-y="512"  />

      
      <glyph glyph-name="uniF03E" unicode="&#xF03E;" d="M464 384Q484 384 498 370Q512 356 512 336L512 48Q512 28 498 14Q484 0 464 0L48 0Q28 0 14 14Q0 28 0 48L0 336Q0 356 14 370Q28 384 48 384L464 384M458 48Q464 48 464 54L464 330Q464 336 458 336L54 336Q48 336 48 330L48 54Q48 48 54 48L458 48M99.50 284.50Q99.50 284.50 105.25 290.25Q111 296 128 296Q145 296 156.50 284.50Q168 273 168 256Q168 239 156.50 227.50Q145 216 128 216Q111 216 99.50 227.50Q88 239 88 256Q88 273 99.50 284.50M96 96L96 144L136 184Q144 192 152 184L192 144L312 264Q320 272 328 264L416 176L416 96L96 96Z"  horiz-adv-x="512" vert-adv-y="512"  />

      
      <glyph glyph-name="uniF044" unicode="&#xF044;" d="M402 103L434 135Q438 139 443 137Q448 135 448 129L448-16Q448-36 434-50Q420-64 400-64L48-64Q28-64 14-50Q0-36 0-16L0 336Q0 356 14 370Q28 384 48 384L322 384Q327 384 329 379Q331 374 327 370L295 338Q293 336 290 336L48 336L48-16L400-16L400 98Q400 101 402 103M559 305L296 42L206 32Q186 30 172 44Q158 58 160 78L170 168L433 431Q450 448 474 448Q498 448 516 431L559 388Q576 371 576 346.50Q576 322 559 305M460 274L402 332L216 146L209 81L274 88L460 274M525 354L482 397Q474 404 467 397L436 366L494 308L525 339Q532 346 525 354Z"  horiz-adv-x="576" vert-adv-y="512"  />

      
      <glyph glyph-name="uniF057" unicode="&#xF057;" d="M80.50 367.50Q80.50 367.50 116.75 403.75Q153 440 256 440Q359 440 431.50 367.50Q504 295 504 192Q504 89 431.50 16.50Q359-56 256-56Q153-56 80.50 16.50Q8 89 8 192Q8 295 80.50 367.50M114.50 50.50Q114.50 50.50 143.75 21.25Q173-8 256-8Q339-8 397.50 50.50Q456 109 456 192Q456 275 397.50 333.50Q339 392 256 392Q173 392 114.50 333.50Q56 275 56 192Q56 109 114.50 50.50M358 254L296 192L358 130Q366 121 358 113L335 90Q327 82 318 90L256 152L194 90Q185 82 177 90L154 113Q146 121 154 130L216 192L154 254Q146 263 154 271L177 294Q185 302 194 294L256 232L318 294Q327 302 335 294L358 271Q366 263 358 254Z"  horiz-adv-x="512" vert-adv-y="512"  />

      
      <glyph glyph-name="uniF058" unicode="&#xF058;" d="M80.50 367.50Q80.50 367.50 116.75 403.75Q153 440 256 440Q359 440 431.50 367.50Q504 295 504 192Q504 89 431.50 16.50Q359-56 256-56Q153-56 80.50 16.50Q8 89 8 192Q8 295 80.50 367.50M397.50 333.50Q397.50 333.50 368.25 362.75Q339 392 256 392Q173 392 114.50 333.50Q56 275 56 192Q56 109 114.50 50.50Q173-8 256-8Q339-8 397.50 50.50Q456 109 456 192Q456 275 397.50 333.50M396 262Q405 253 396 245L224 74Q215 65 207 74L116 165Q107 174 116 182L139 205Q147 213 156 205L215 144L357 285Q365 293 374 284L396 262Z"  horiz-adv-x="512" vert-adv-y="512"  />

      
      <glyph glyph-name="uniF059" unicode="&#xF059;" d="M80.50 367.50Q80.50 367.50 116.75 403.75Q153 440 256 440Q359 440 431.50 367.50Q504 295 504 192Q504 89 431.50 16.50Q359-56 256-56Q153-56 80.50 16.50Q8 89 8 192Q8 295 80.50 367.50M114.50 50.50Q114.50 50.50 143.75 21.25Q173-8 256-8Q339-8 397.50 50.50Q456 109 456 192Q456 275 397.50 333.50Q339 392 256 392Q173 392 114.50 333.50Q56 275 56 192Q56 109 114.50 50.50M363 247Q363 224 352 208Q341 192 327 185Q313 178 302 170Q291 162 291 154L291 148Q291 143 287.50 139.50Q284 136 279 136L233 136Q228 136 224.50 139.50Q221 143 221 148L221 157Q221 169 225 179Q229 189 238 197Q247 205 252 208.50Q257 212 269 218Q277 223 281 225.50Q285 228 289.50 231.50Q294 235 295.50 239Q297 243 297 248Q297 260 284.50 268Q272 276 257 276Q246 276 237.50 272.50Q229 269 223 263Q217 257 208 246Q201 237 192 244L164 265Q155 272 161 282Q198 336 262 336Q300 336 331.50 310Q363 284 363 247M285.50 109.50Q285.50 109.50 291.75 103.25Q298 97 298 80Q298 63 285.50 50.50Q273 38 256 38Q239 38 226.50 50.50Q214 63 214 80Q214 97 226.50 109.50Q239 122 256 122Q273 122 285.50 109.50Z"  horiz-adv-x="512" vert-adv-y="512"  />

      
      <glyph glyph-name="uniF06E" unicode="&#xF06E;" d="M288 304Q335 304 367.50 271.50Q400 239 400 192.50Q400 146 367.50 113.50Q335 81 288.50 81Q242 81 209.50 113.50Q177 146 177 192Q177 208 181 223Q194 216 208 216Q231 216 247.50 232.50Q264 249 264 272Q264 286 257 299Q272 304 288 304M573 207Q576 200 576 192Q576 184 573 177Q531 97 455 48.50Q379 0 288 0Q228 0 172.50 22.50Q117 45 74 84.50Q31 124 3 177Q0 184 0 192Q0 200 3 207Q45 287 121 335.50Q197 384 288 384Q379 384 455 335.50Q531 287 573 207M288 48Q362 48 425.50 86.50Q489 125 526 192Q489 259 425.50 297.50Q362 336 288 336Q214 336 150.50 297.50Q87 259 50 192Q74 148 111 115.50Q148 83 193.50 65.50Q239 48 288 48Z"  horiz-adv-x="576" vert-adv-y="512"  />

      
      <glyph glyph-name="uniF070" unicode="&#xF070;" d="M634-23Q640-28 640-36Q640-41 636-46L626-58Q622-64 614-64Q608-64 604-60L6 407Q0 412 0 420Q0 425 4 430L14 442Q18 448 26 448Q32 448 36 444L634-23M297 302Q308 304 320 304Q365 304 397.50 272.50Q430 241 432 196L297 302M343 82Q332 80 320 80Q275 80 242.50 111.50Q210 143 208 188L343 82M320 336Q293 336 262 329L215 365Q268 384 320 384Q380 384 435.50 361.50Q491 339 534 299.50Q577 260 605 207Q608 200 608 192Q608 184 605 177Q583 136 552 102L514 132Q540 159 558 192Q521 259 457.50 297.50Q394 336 320 336M320 48Q347 48 378 55L425 19Q372 0 320 0Q229 0 153 48.50Q77 97 35 177Q32 184 32 192Q32 200 35 207Q57 248 88 282L126 252Q100 225 82 192Q119 125 182.50 86.50Q246 48 320 48Z"  horiz-adv-x="640" vert-adv-y="512"  />

      
      <glyph glyph-name="uniF073" unicode="&#xF073;" d="M148 160L108 160Q96 160 96 172L96 212Q96 224 108 224L148 224Q160 224 160 212L160 172Q160 160 148 160M256 172Q256 160 244 160L204 160Q192 160 192 172L192 212Q192 224 204 224L244 224Q256 224 256 212L256 172M352 172Q352 160 340 160L300 160Q288 160 288 172L288 212Q288 224 300 224L340 224Q352 224 352 212L352 172M256 76Q256 64 244 64L204 64Q192 64 192 76L192 116Q192 128 204 128L244 128Q256 128 256 116L256 76M160 76Q160 64 148 64L108 64Q96 64 96 76L96 116Q96 128 108 128L148 128Q160 128 160 116L160 76M352 76Q352 64 340 64L300 64Q288 64 288 76L288 116Q288 128 300 128L340 128Q352 128 352 116L352 76M448 336L448-16Q448-36 434-50Q420-64 400-64L48-64Q28-64 14-50Q0-36 0-16L0 336Q0 356 14 370Q28 384 48 384L96 384L96 436Q96 448 108 448L148 448Q160 448 160 436L160 384L288 384L288 436Q288 448 300 448L340 448Q352 448 352 436L352 384L400 384Q420 384 434 370Q448 356 448 336M400-10L400 288L48 288L48-10Q48-16 54-16L394-16Q400-16 400-10Z"  horiz-adv-x="448" vert-adv-y="512"  />

      
      <glyph glyph-name="uniF075" unicode="&#xF075;" d="M75 355Q75 355 112.50 385.50Q150 416 256 416Q362 416 437 355Q512 294 512 208Q512 122 437 61Q362 0 256 0Q209 0 163 14Q98-32 24-32Q8-32 2-17.50Q-4-3 6 8Q8 10 15.50 18.50Q23 27 34.50 45.50Q46 64 53 82Q0 138 0 208Q0 294 75 355M256 48Q342 48 403 95Q464 142 464 208Q464 274 403 321Q342 368 256 368Q170 368 109 321Q48 274 48 208Q48 157 88 115L108 93L98 65Q90 45 78 24Q108 34 135 54L155 67L178 60Q216 48 256 48Z"  horiz-adv-x="512" vert-adv-y="512"  />

      
      <glyph glyph-name="uniF07B" unicode="&#xF07B;" d="M464 320Q484 320 498 306Q512 292 512 272L512 48Q512 28 498 14Q484 0 464 0L48 0Q28 0 14 14Q0 28 0 48L0 336Q0 356 14 370Q28 384 48 384L195 384Q208 384 217 375L272 320L464 320M464 48L464 272L265 272Q252 272 243 281L188 336L48 336L48 48L464 48Z"  horiz-adv-x="512" vert-adv-y="512"  />

      
      <glyph glyph-name="uniF07C" unicode="&#xF07C;" d="M528 224Q556 224 570 199.50Q584 175 569 151L489 23Q475 0 448 0L48 0Q28 0 14 14Q0 28 0 48L0 336Q0 356 14 370Q28 384 48 384L208 384L272 320L432 320Q452 320 466 306Q480 292 480 272L480 224L528 224M48 330L48 97L111 201Q125 224 152 224L432 224L432 266Q432 272 426 272L252 272L188 336L54 336Q48 336 48 330M448 48L528 176L149 176L72 48L448 48Z"  horiz-adv-x="576" vert-adv-y="512"  />

      
      <glyph glyph-name="uniF080" unicode="&#xF080;" d="M397 96Q392 96 388 100Q384 104 384 109L384 339Q384 344 388 348Q392 352 397 352L419 352Q424 352 428 348Q432 344 432 339L432 109Q432 104 428 100Q424 96 419 96L397 96M205 96Q200 96 196 100Q192 104 192 109L192 307Q192 312 196 316Q200 320 205 320L227 320Q232 320 236 316Q240 312 240 307L240 109Q240 104 236 100Q232 96 227 96L205 96M301 96Q296 96 292 100Q288 104 288 109L288 243Q288 248 292 252Q296 256 301 256L323 256Q328 256 332 252Q336 248 336 243L336 109Q336 104 332 100Q328 96 323 96L301 96M496 48Q503 48 507.50 43.50Q512 39 512 32L512 16Q512 9 507.50 4.50Q503 0 496 0L32 0Q19 0 9.50 9.50Q0 19 0 32L0 368Q0 375 4.50 379.50Q9 384 16 384L32 384Q39 384 43.50 379.50Q48 375 48 368L48 48L496 48M109 96Q104 96 100 100Q96 104 96 109L96 179Q96 184 100 188Q104 192 109 192L131 192Q136 192 140 188Q144 184 144 179L144 109Q144 104 140 100Q136 96 131 96L109 96Z"  horiz-adv-x="512" vert-adv-y="512"  />

      
      <glyph glyph-name="uniF086" unicode="&#xF086;" d="M532 62Q539 48 548.50 34.50Q558 21 563.50 14.50Q569 8 570 7Q580-4 574-18Q568-32 553-32Q488-32 428 7Q398 0 368 0Q304 0 252.50 27Q201 54 177 98Q162 100 148 103Q89 64 23 64Q8 64 2 78Q-4 92 6 103Q27 123 44 158Q0 201 0 256Q0 322 61 369Q122 416 208 416Q272 416 324 389Q376 362 400 318Q475 309 525.50 264.50Q576 220 576 160Q576 105 532 62M139 154L159 150Q183 144 208 144Q273 144 320.50 177Q368 210 368 256Q368 302 320.50 335Q273 368 208 368Q143 368 95.50 335Q48 302 48 256Q48 221 78 192L102 168L87 136Q83 129 79 122Q101 129 122 143L139 154M498 96Q528 125 528 160Q528 196 496 225.50Q464 255 415 266Q416 258 416 256Q416 216 392.50 181.50Q369 147 328 125Q287 103 237 98Q286 48 368 48Q393 48 417 54L437 58L454 47Q475 33 497 26Q493 33 489 40L474 72L498 96Z"  horiz-adv-x="576" vert-adv-y="512"  />

      
      <glyph glyph-name="uniF089" unicode="&#xF089;" d="M288 63L288 8L157-60Q140-69 124-57.50Q108-46 111-26L136 119L30 222Q16 236 22 255Q28 274 48 277L194 298L259 430Q268 448 288 448L288 380L226 254L87 234L187 136L164-3L288 63Z"  horiz-adv-x="576" vert-adv-y="512"  />

      
      <glyph glyph-name="uniF094" unicode="&#xF094;" d="M436 446.50Q436 446.50 449.50 443.75Q463 441 484 420Q505 399 510.50 372Q516 345 503 323Q499 315 498 296.50Q497 278 501 258Q505 238 503 210Q501 182 496 154Q491 126 471.50 92Q452 58 421 27Q390-4 356-23Q322-42 294-47.50Q266-53 238-55Q210-57 190-53Q170-49 151.50-50Q133-51 125-55Q103-68 76-62.50Q49-57 28-36Q7-15 1.50 12Q-4 39 9 61Q13 69 14 87.50Q15 106 11 126Q7 146 9 174Q11 202 16 230Q21 258 40.50 292Q60 326 91 357Q122 388 156 407Q190 426 218 431.50Q246 437 274 439Q302 441 322 437Q342 433 360.50 434Q379 435 387 439Q409 452 436 446.50M462 347Q472 365 450 386.50Q428 408 411 398Q394 387 368.50 386.50Q343 386 316 389Q289 392 259 390.50Q229 389 194 373Q159 357 125 323Q91 289 75 254Q59 219 57.50 189Q56 159 59 132Q62 105 61.50 79.50Q61 54 50 37Q40 19 62-2.50Q84-24 101-14Q116-5 137-3Q158-1 178-4Q198-7 223.50-7Q249-7 274-3.50Q299 0 328.50 16.50Q358 33 387 61Q421 95 437 130Q453 165 454.50 195Q456 225 453 252Q450 279 450.50 304.50Q451 330 462 347M284.50 352Q284.50 352 287.75 349.50Q291 347 292 338.50Q293 330 288 323.50Q283 317 274 316Q233 311 185 263Q137 215 132 174Q131 165 124.50 160Q118 155 109.50 156Q101 157 96 163.50Q91 170 92 178Q99 233 157 291Q215 349 270 356Q278 357 284.50 352Z"  horiz-adv-x="512" vert-adv-y="512"  />

      
      <glyph glyph-name="uniF09D" unicode="&#xF09D;" d="M528 416Q541 416 552 409.50Q563 403 569.50 392Q576 381 576 368L576 16Q576-4 562-18Q548-32 528-32L48-32Q28-32 14-18Q0-4 0 16L0 368Q0 388 14 402Q28 416 48 416L528 416M54 368Q48 368 48 362L48 320L528 320L528 362Q528 368 522 368L54 368M522 16Q528 16 528 22L528 192L48 192L48 22Q48 16 54 16L522 16M192 116L192 76Q192 64 180 64L108 64Q96 64 96 76L96 116Q96 128 108 128L180 128Q192 128 192 116M384 116L384 76Q384 64 372 64L236 64Q224 64 224 76L224 116Q224 128 236 128L372 128Q384 128 384 116Z"  horiz-adv-x="576" vert-adv-y="512"  />

      
      <glyph glyph-name="uniF0A0" unicode="&#xF0A0;" d="M567 212Q576 200 576 185L576 48Q576 28 562 14Q548 0 528 0L48 0Q28 0 14 14Q0 28 0 48L0 185Q0 200 9 212L114 363Q128 384 153 384L423 384Q448 384 462 363L567 212M153 336L75 224L501 224L423 336L153 336M528 48L528 176L48 176L48 48L528 48M486.50 134.50Q486.50 134.50 491.25 129.75Q496 125 496 112Q496 99 486.50 89.50Q477 80 464 80Q451 80 441.50 89.50Q432 99 432 112Q432 125 441.50 134.50Q451 144 464 144Q477 144 486.50 134.50M390.50 134.50Q390.50 134.50 395.25 129.75Q400 125 400 112Q400 99 390.50 89.50Q381 80 368 80Q355 80 345.50 89.50Q336 99 336 112Q336 125 345.50 134.50Q355 144 368 144Q381 144 390.50 134.50Z"  horiz-adv-x="576" vert-adv-y="512"  />

      
      <glyph glyph-name="uniF0A4" unicode="&#xF0A4;" d="M429 310Q463 310 487.50 285.50Q512 261 512 227Q512 210 505.50 195Q499 180 487.50 168.50Q476 157 461 150.50Q446 144 429 144L393 144Q391 132 385 122Q389 88 369 59Q368 19 341.50-6.50Q315-32 269-32L248-32Q214-32 172.50-12Q131 8 121 8L118 8Q109 0 96 0L32 0Q19 0 9.50 8.50Q0 17 0 29L0 259Q0 271 9.50 279.50Q19 288 32 288L96 288Q109 288 118 280L121 280Q130 280 151 304L151 304Q168 323 177 337Q181 343 190 361Q199 379 205 388.50Q211 398 224 407Q237 416 253 416Q295 416 320 392.50Q345 369 345 333Q345 321 343 310L429 310M429 192Q443 192 453.50 202.50Q464 213 464 227Q464 241 453.50 251.50Q443 262 429 262L270 262Q270 269 283.50 291Q297 313 297 333Q297 368 253 368Q249 368 244 359.50Q239 351 231 335.50Q223 320 218 312Q207 294 187 272Q155 236 128 232L128 56Q145 54 166 44Q187 34 208 25Q229 16 248 16L269 16Q330 16 320 77Q332 84 336.50 100Q341 116 333 131Q347 144 347.50 163Q348 182 338 192L429 192M81 47Q81 47 84.50 50.50Q88 54 88 64Q88 74 81 81Q74 88 64 88Q54 88 47 81Q40 74 40 64Q40 54 47 47Q54 40 64 40Q74 40 81 47Z"  horiz-adv-x="512" vert-adv-y="512"  />

      
      <glyph glyph-name="uniF0A5" unicode="&#xF0A5;" d="M0 227Q0 261 24.50 285.50Q49 310 83 310L169 310Q167 321 167 333Q167 369 192 392.50Q217 416 259 416Q275 416 288 407Q301 398 307 388.50Q313 379 322 361Q331 343 335 337Q344 323 361 304L361 304Q382 280 391 280L394 280Q403 288 416 288L480 288Q487 288 492.50 285.50Q498 283 502.50 279.50Q507 276 509.50 270.50Q512 265 512 259L512 29Q512 17 502.50 8.50Q493 0 480 0L416 0Q403 0 394 8L391 8Q381 8 339.50-12Q298-32 264-32L243-32Q197-32 170.50-6.50Q144 19 143 59Q123 88 127 122Q121 132 119 144L83 144Q49 144 24.50 168.50Q0 193 0 227M48 227Q48 213 58.50 202.50Q69 192 83 192L174 192Q164 182 164.50 163Q165 144 179 131Q171 116 175.50 100Q180 84 192 77Q182 16 243 16L264 16Q288 16 326 35Q364 54 384 56L384 232Q357 236 325 272Q305 294 294 312Q289 320 281 335.50Q273 351 268 359.50Q263 368 259 368Q215 368 215 333Q215 313 228.50 291Q242 269 242 262L83 262Q76 262 69.50 259.50Q63 257 58.50 252Q54 247 51 240.50Q48 234 48 227M465 81Q465 81 461.50 84.50Q458 88 448 88Q438 88 431 81Q424 74 424 64Q424 54 431 47Q438 40 448 40Q458 40 465 47Q472 54 472 64Q472 74 465 81Z"  horiz-adv-x="512" vert-adv-y="512"  />

      
      <glyph glyph-name="uniF0A6" unicode="&#xF0A6;" d="M106 365Q106 399 130.50 423.50Q155 448 189 448Q211 448 230.50 437Q250 426 261 406.50Q272 387 272 365L272 329Q284 327 294 321Q328 325 357 305Q397 304 422.50 277.50Q448 251 448 205L448 184Q448 150 428 108.50Q408 67 408 57L408 54Q416 45 416 32L416-32Q416-41 412-48Q408-55 401.50-59.50Q395-64 387-64L157-64Q145-64 136.50-54.50Q128-45 128-32L128 32Q128 45 136 54L136 57Q136 66 112 87L112 87Q93 104 79 113Q72 117 59 123.50Q46 130 37.50 135Q29 140 19.50 147.50Q10 155 5 165.50Q0 176 0 189Q0 231 23.50 256Q47 281 83 281Q95 281 106 279L106 365M224 365Q224 379 213.50 389.50Q203 400 189 400Q175 400 164.50 389.50Q154 379 154 365L154 206Q147 206 125 219.50Q103 233 83 233Q48 233 48 189Q48 185 56.50 180Q65 175 80.50 167Q96 159 104 154Q122 143 144 123Q180 91 184 64L360 64Q362 84 381 122Q400 160 400 184L400 205Q400 266 339 256Q332 268 316 272.50Q300 277 285 269Q272 283 253 283.50Q234 284 224 274L224 365M369 17Q369 17 365.50 20.50Q362 24 352 24Q342 24 335 17Q328 10 328 0Q328-10 335-17Q342-24 352-24Q362-24 369-17Q376-10 376 0Q376 10 369 17Z"  horiz-adv-x="448" vert-adv-y="512"  />

      
      <glyph glyph-name="uniF0A7" unicode="&#xF0A7;" d="M189-64Q155-64 130.50-39.50Q106-15 106 19L106 105Q95 103 83 103Q47 103 23.50 128Q0 153 0 195Q0 208 5 218.50Q10 229 19.50 236.50Q29 244 37.50 249Q46 254 59 260.50Q72 267 79 271Q93 280 112 297L112 297Q136 318 136 327L136 330Q128 339 128 352L128 416Q128 429 136.50 438.50Q145 448 157 448L387 448Q399 448 407.50 438.50Q416 429 416 416L416 352Q416 339 408 330L408 327Q408 317 428 275.50Q448 234 448 200L448 179Q448 133 422.50 106.50Q397 80 357 79Q328 59 294 63Q284 57 272 55L272 19Q272-15 247.50-39.50Q223-64 189-64M189-16Q203-16 213.50-5.50Q224 5 224 19L224 110Q234 100 253 100.50Q272 101 285 115Q300 107 316 111.50Q332 116 339 128Q400 118 400 179L400 200Q400 224 381 262Q362 300 360 320L184 320Q180 293 144 261Q122 241 104 230Q96 225 80.50 217Q65 209 56.50 204Q48 199 48 195Q48 151 83 151Q103 151 125 164.50Q147 178 154 178L154 19Q154 5 164.50-5.50Q175-16 189-16M335 401Q335 401 331.50 397.50Q328 394 328 384Q328 374 335 367Q342 360 352 360Q362 360 369 367Q376 374 376 384Q376 394 369 401Q362 408 352 408Q342 408 335 401Z"  horiz-adv-x="448" vert-adv-y="512"  />

      
      <glyph glyph-name="uniF0C5" unicode="&#xF0C5;" d="M434 382Q448 368 448 348L448 80Q448 60 434 46Q420 32 400 32L320 32L320-16Q320-36 306-50Q292-64 272-64L48-64Q28-64 14-50Q0-36 0-16L0 304Q0 324 14 338Q28 352 48 352L128 352L128 400Q128 420 142 434Q156 448 176 448L348 448Q368 448 382 434L434 382M266-16Q272-16 272-10L272 32L176 32Q156 32 142 46Q128 60 128 80L128 304L54 304Q48 304 48 298L48-10Q48-16 54-16L266-16M394 80Q400 80 400 86L400 288L312 288Q302 288 295 295Q288 302 288 312L288 400L182 400Q176 400 176 394L176 86Q176 80 182 80L394 80M400 336L400 346Q400 348 398 350L350 398Q348 400 346 400L336 400L336 336L400 336Z"  horiz-adv-x="448" vert-adv-y="512"  />

      
      <glyph glyph-name="uniF0C7" unicode="&#xF0C7;" d="M434 318Q448 304 448 284L448 16Q448-4 434-18Q420-32 400-32L48-32Q28-32 14-18Q0-4 0 16L0 368Q0 388 14 402Q28 416 48 416L316 416Q336 416 350 402L434 318M272 368L144 368L144 288L272 288L272 368M394 16Q400 16 400 22L400 282Q400 284 398 286L320 364L320 264Q320 254 313 247Q306 240 296 240L120 240Q110 240 103 247Q96 254 96 264L96 368L54 368Q48 368 48 362L48 22Q48 16 54 16L394 16M162 190Q162 190 175 203Q188 216 224 216Q260 216 286 190Q312 164 312 128Q312 92 286 66Q260 40 224 40Q188 40 162 66Q136 92 136 128Q136 164 162 190M195.50 99.50Q195.50 99.50 201.25 93.75Q207 88 224 88Q241 88 252.50 99.50Q264 111 264 128Q264 145 252.50 156.50Q241 168 224 168Q207 168 195.50 156.50Q184 145 184 128Q184 111 195.50 99.50Z"  horiz-adv-x="448" vert-adv-y="512"  />

      
      <glyph glyph-name="uniF0C8" unicode="&#xF0C8;" d="M400 416Q420 416 434 402Q448 388 448 368L448 16Q448-4 434-18Q420-32 400-32L48-32Q28-32 14-18Q0-4 0 16L0 368Q0 388 14 402Q28 416 48 416L400 416M394 16Q400 16 400 22L400 362Q400 368 394 368L54 368Q48 368 48 362L48 22Q48 16 54 16L394 16Z"  horiz-adv-x="448" vert-adv-y="512"  />

      
      <glyph glyph-name="uniF0E0" unicode="&#xF0E0;" d="M464 384Q484 384 498 370Q512 356 512 336L512 48Q512 28 498 14Q484 0 464 0L48 0Q28 0 14 14Q0 28 0 48L0 336Q0 356 14 370Q28 384 48 384L464 384M464 336L48 336L48 295Q83 267 183 189Q183 188 197 176.50Q211 165 218 160.50Q225 156 236.50 150Q248 144 256 144Q264 144 275.50 150Q287 156 294 160.50Q301 165 315 176.50Q329 188 329 189Q429 267 464 295L464 336M48 48L464 48L464 234Q429 206 359 151Q357 150 344.50 139Q332 128 325 123Q318 118 305 110.50Q292 103 280 99.50Q268 96 256 96Q244 96 231.50 99.50Q219 103 206.50 111Q194 119 187 124Q180 129 167.50 139.50Q155 150 153 151Q83 206 48 234L48 48Z"  horiz-adv-x="512" vert-adv-y="512"  />

      
      <glyph glyph-name="uniF0EB" unicode="&#xF0EB;" d="M176 368Q183 368 187.50 363.50Q192 359 192 352Q192 345 187.50 340.50Q183 336 176 336Q150 336 131 317Q112 298 112 272Q112 265 107.50 260.50Q103 256 96 256Q89 256 84.50 260.50Q80 265 80 272Q80 312 108 340Q136 368 176 368M96-11L96 32L256 32L256-11Q256-16 253-20L229-57Q224-64 215-64L137-64Q128-64 123-57L99-20Q96-16 96-11M176 448Q249 448 300.50 396.50Q352 345 352 272Q352 206 308 156Q294 140 278.50 113.50Q263 87 256 64L208 64Q208 71 210 78Q229 139 272 188Q304 224 304 272Q304 325 266.50 362.50Q229 400 176 400Q124 400 86 363Q48 326 48 272Q48 224 80 188Q123 139 142 78Q144 71 144 64L96 64Q91 80 81.50 98.50Q72 117 62 131.50Q52 146 44 156Q0 206 0 272Q0 343 50.50 395.50Q101 448 176 448Z"  horiz-adv-x="352" vert-adv-y="512"  />

      
      <glyph glyph-name="uniF0F3" unicode="&#xF0F3;" d="M439 86Q448 76 448 64Q448 51 439 41.50Q430 32 416 32L32 32Q23 32 15.50 36.50Q8 41 4 48.50Q0 56 0 64Q0 76 9 86Q10 87 12 90Q27 105 35.50 117Q44 129 54 162.50Q64 196 64 240Q64 298 100 341Q136 384 192 395L192 416Q192 429 201.50 438.50Q211 448 224 448Q237 448 246.50 438.50Q256 429 256 416L256 395Q293 388 322 366Q351 344 367.50 311Q384 278 384 240Q384 196 394 162.50Q404 129 412.50 117Q421 105 436 90Q438 87 439 86M68 80L380 80Q336 139 336 239Q336 240 336 240Q336 286 303 319Q270 352 224 352Q178 352 145 319Q112 286 112 240Q112 240 112 239Q112 139 68 80M269-45.50Q269-45.50 259.50-54.75Q250-64 224-64Q198-64 179-45.50Q160-27 160 0L288 0Q288-27 269-45.50Z"  horiz-adv-x="448" vert-adv-y="512"  />

      
      <glyph glyph-name="uniF0F8" unicode="&#xF0F8;" d="M128 204L128 244Q128 256 140 256L180 256Q192 256 192 244L192 204Q192 192 180 192L140 192Q128 192 128 204M268 192Q256 192 256 204L256 244Q256 256 268 256L308 256Q320 256 320 244L320 204Q320 192 308 192L268 192M192 108Q192 96 180 96L140 96Q128 96 128 108L128 148Q128 160 140 160L180 160Q192 160 192 148L192 108M268 96Q256 96 256 108L256 148Q256 160 268 160L308 160Q320 160 320 148L320 108Q320 96 308 96L268 96M448-28L448-64L0-64L0-28Q0-16 12-16L32-16L32 363Q32 372 39 378Q46 384 56 384L144 384L144 424Q144 434 151 441Q158 448 168 448L280 448Q290 448 297 441Q304 434 304 424L304 384L392 384Q402 384 409 378Q416 372 416 363L416-16L436-16Q448-16 448-28M80-15L192-15L192 52Q192 64 204 64L244 64Q256 64 256 52L256-15L368-15L368 336L304 336L304 312Q304 302 297 295Q290 288 280 288L168 288Q158 288 151 295Q144 302 144 312L144 336L80 336L80-15M266 384L240 384L240 410Q240 416 234 416L214 416Q208 416 208 410L208 384L182 384Q176 384 176 378L176 358Q176 352 182 352L208 352L208 326Q208 320 214 320L234 320Q240 320 240 326L240 352L266 352Q272 352 272 358L272 378Q272 384 266 384Z"  horiz-adv-x="448" vert-adv-y="512"  />

      
      <glyph glyph-name="uniF0FE" unicode="&#xF0FE;" d="M352 208L352 176Q352 164 340 164L252 164L252 76Q252 64 240 64L208 64Q196 64 196 76L196 164L108 164Q96 164 96 176L96 208Q96 220 108 220L196 220L196 308Q196 320 208 320L240 320Q252 320 252 308L252 220L340 220Q352 220 352 208M448 368L448 16Q448-4 434-18Q420-32 400-32L48-32Q28-32 14-18Q0-4 0 16L0 368Q0 388 14 402Q28 416 48 416L400 416Q420 416 434 402Q448 388 448 368M400 22L400 362Q400 368 394 368L54 368Q48 368 48 362L48 22Q48 16 54 16L394 16Q400 16 400 22Z"  horiz-adv-x="448" vert-adv-y="512"  />

      
      <glyph glyph-name="uniF111" unicode="&#xF111;" d="M80.50 367.50Q80.50 367.50 116.75 403.75Q153 440 256 440Q359 440 431.50 367.50Q504 295 504 192Q504 89 431.50 16.50Q359-56 256-56Q153-56 80.50 16.50Q8 89 8 192Q8 295 80.50 367.50M114.50 50.50Q114.50 50.50 143.75 21.25Q173-8 256-8Q339-8 397.50 50.50Q456 109 456 192Q456 275 397.50 333.50Q339 392 256 392Q173 392 114.50 333.50Q56 275 56 192Q56 109 114.50 50.50Z"  horiz-adv-x="512" vert-adv-y="512"  />

      
      <glyph glyph-name="uniF118" unicode="&#xF118;" d="M72.50 367.50Q72.50 367.50 108.75 403.75Q145 440 248 440Q351 440 423.50 367.50Q496 295 496 192Q496 89 423.50 16.50Q351-56 248-56Q145-56 72.50 16.50Q0 89 0 192Q0 295 72.50 367.50M106.50 50.50Q106.50 50.50 135.75 21.25Q165-8 248-8Q331-8 389.50 50.50Q448 109 448 192Q448 275 389.50 333.50Q331 392 248 392Q165 392 106.50 333.50Q48 275 48 192Q48 109 106.50 50.50M190.50 217.50Q190.50 217.50 185.75 212.75Q181 208 168 208Q155 208 145.50 217.50Q136 227 136 240Q136 253 145.50 262.50Q155 272 168 272Q181 272 190.50 262.50Q200 253 200 240Q200 227 190.50 217.50M350.50 217.50Q350.50 217.50 345.75 212.75Q341 208 328 208Q315 208 305.50 217.50Q296 227 296 240Q296 253 305.50 262.50Q315 272 328 272Q341 272 350.50 262.50Q360 253 360 240Q360 227 350.50 217.50M332 135Q338 143 348 144Q358 145 365.50 138.50Q373 132 374 122Q375 112 369 105Q322 48 248 48Q174 48 127 105Q121 112 122 122Q123 132 130.50 138.50Q138 145 148 144Q158 143 164 135Q197 96 248 96Q299 96 332 135Z"  horiz-adv-x="496" vert-adv-y="512"  />

      
      <glyph glyph-name="uniF119" unicode="&#xF119;" d="M72.50 367.50Q72.50 367.50 108.75 403.75Q145 440 248 440Q351 440 423.50 367.50Q496 295 496 192Q496 89 423.50 16.50Q351-56 248-56Q145-56 72.50 16.50Q0 89 0 192Q0 295 72.50 367.50M106.50 50.50Q106.50 50.50 135.75 21.25Q165-8 248-8Q331-8 389.50 50.50Q448 109 448 192Q448 275 389.50 333.50Q331 392 248 392Q165 392 106.50 333.50Q48 275 48 192Q48 109 106.50 50.50M190.50 217.50Q190.50 217.50 185.75 212.75Q181 208 168 208Q155 208 145.50 217.50Q136 227 136 240Q136 253 145.50 262.50Q155 272 168 272Q181 272 190.50 262.50Q200 253 200 240Q200 227 190.50 217.50M305.50 262.50Q305.50 262.50 310.25 267.25Q315 272 328 272Q341 272 350.50 262.50Q360 253 360 240Q360 227 350.50 217.50Q341 208 328 208Q315 208 305.50 217.50Q296 227 296 240Q296 253 305.50 262.50M144 95Q185 144 248 144Q311 144 352 95Q358 88 357 78Q356 68 349 62Q341 55 331 56Q321 57 315 65Q289 96 248 96Q207 96 181 65Q175 57 165 56Q155 55 147.50 61.50Q140 68 139 78Q138 88 144 95Z"  horiz-adv-x="496" vert-adv-y="512"  />

      
      <glyph glyph-name="uniF11A" unicode="&#xF11A;" d="M72.50 367.50Q72.50 367.50 108.75 403.75Q145 440 248 440Q351 440 423.50 367.50Q496 295 496 192Q496 89 423.50 16.50Q351-56 248-56Q145-56 72.50 16.50Q0 89 0 192Q0 295 72.50 367.50M106.50 50.50Q106.50 50.50 135.75 21.25Q165-8 248-8Q331-8 389.50 50.50Q448 109 448 192Q448 275 389.50 333.50Q331 392 248 392Q165 392 106.50 333.50Q48 275 48 192Q48 109 106.50 50.50M190.50 217.50Q190.50 217.50 185.75 212.75Q181 208 168 208Q155 208 145.50 217.50Q136 227 136 240Q136 253 145.50 262.50Q155 272 168 272Q181 272 190.50 262.50Q200 253 200 240Q200 227 190.50 217.50M305.50 262.50Q305.50 262.50 310.25 267.25Q315 272 328 272Q341 272 350.50 262.50Q360 253 360 240Q360 227 350.50 217.50Q341 208 328 208Q315 208 305.50 217.50Q296 227 296 240Q296 253 305.50 262.50M336 128Q346 128 353 121Q360 114 360 104Q360 94 353 87Q346 80 336 80L160 80Q150 80 143 87Q136 94 136 104Q136 114 143 121Q150 128 160 128L336 128Z"  horiz-adv-x="496" vert-adv-y="512"  />

      
      <glyph glyph-name="uniF11C" unicode="&#xF11C;" d="M528 384Q548 384 562 370Q576 356 576 336L576 48Q576 28 562 14Q548 0 528 0L48 0Q28 0 14 14Q0 28 0 48L0 336Q0 356 14 370Q28 384 48 384L528 384M536 48L536 336Q536 344 528 344L48 344Q40 344 40 336L40 48Q40 40 48 40L528 40Q536 40 536 48M170 178Q170 166 158 166L130 166Q118 166 118 178L118 206Q118 218 130 218L158 218Q170 218 170 206L170 178M266 178Q266 166 254 166L226 166Q214 166 214 178L214 206Q214 218 226 218L254 218Q266 218 266 206L266 178M362 178Q362 166 350 166L322 166Q310 166 310 178L310 206Q310 218 322 218L350 218Q362 218 362 206L362 178M458 178Q458 166 446 166L418 166Q406 166 406 178L406 206Q406 218 418 218L446 218Q458 218 458 206L458 178M122 96Q122 84 110 84L82 84Q70 84 70 96L70 124Q70 136 82 136L110 136Q122 136 122 124L122 96M506 96Q506 84 494 84L466 84Q454 84 454 96L454 124Q454 136 466 136L494 136Q506 136 506 124L506 96M122 260Q122 248 110 248L82 248Q70 248 70 260L70 288Q70 300 82 300L110 300Q122 300 122 288L122 260M218 260Q218 248 206 248L178 248Q166 248 166 260L166 288Q166 300 178 300L206 300Q218 300 218 288L218 260M314 260Q314 248 302 248L274 248Q262 248 262 260L262 288Q262 300 274 300L302 300Q314 300 314 288L314 260M410 260Q410 248 398 248L370 248Q358 248 358 260L358 288Q358 300 370 300L398 300Q410 300 410 288L410 260M506 260Q506 248 494 248L466 248Q454 248 454 260L454 288Q454 300 466 300L494 300Q506 300 506 288L506 260M408 102Q408 90 396 90L180 90Q168 90 168 102L168 118Q168 130 180 130L396 130Q408 130 408 118L408 102Z"  horiz-adv-x="576" vert-adv-y="512"  />

      
      <glyph glyph-name="uniF133" unicode="&#xF133;" d="M400 384Q420 384 434 370Q448 356 448 336L448-16Q448-36 434-50Q420-64 400-64L48-64Q28-64 14-50Q0-36 0-16L0 336Q0 356 14 370Q28 384 48 384L96 384L96 436Q96 448 108 448L148 448Q160 448 160 436L160 384L288 384L288 436Q288 448 300 448L340 448Q352 448 352 436L352 384L400 384M394-16Q400-16 400-10L400 288L48 288L48-10Q48-16 54-16L394-16Z"  horiz-adv-x="448" vert-adv-y="512"  />

      
      <glyph glyph-name="uniF144" unicode="&#xF144;" d="M372 210Q384 203 384 189Q384 175 372 168L196 67Q187 63 179 64.50Q171 66 165.50 72.50Q160 79 160 88L160 296Q160 310 172 317Q184 324 196 317L372 210M431.50 367.50Q431.50 367.50 467.75 331.25Q504 295 504 192Q504 89 431.50 16.50Q359-56 256-56Q153-56 80.50 16.50Q8 89 8 192Q8 295 80.50 367.50Q153 440 256 440Q359 440 431.50 367.50M114.50 333.50Q114.50 333.50 85.25 304.25Q56 275 56 192Q56 109 114.50 50.50Q173-8 256-8Q339-8 397.50 50.50Q456 109 456 192Q456 275 397.50 333.50Q339 392 256 392Q173 392 114.50 333.50Z"  horiz-adv-x="512" vert-adv-y="512"  />

      
      <glyph glyph-name="uniF146" unicode="&#xF146;" d="M108 164Q96 164 96 176L96 208Q96 220 108 220L340 220Q352 220 352 208L352 176Q352 164 340 164L108 164M448 368L448 16Q448-4 434-18Q420-32 400-32L48-32Q28-32 14-18Q0-4 0 16L0 368Q0 388 14 402Q28 416 48 416L400 416Q420 416 434 402Q448 388 448 368M400 22L400 362Q400 368 394 368L54 368Q48 368 48 362L48 22Q48 16 54 16L394 16Q400 16 400 22Z"  horiz-adv-x="448" vert-adv-y="512"  />

      
      <glyph glyph-name="uniF14A" unicode="&#xF14A;" d="M400 416Q420 416 434 402Q448 388 448 368L448 16Q448-4 434-18Q420-32 400-32L48-32Q28-32 14-18Q0-4 0 16L0 368Q0 388 14 402Q28 416 48 416L400 416M400 16L400 368L48 368L48 16L400 16M364 258L192 87Q183 78 175 87L84 178Q75 187 84 195L107 218Q115 226 124 218L183 157L325 297Q333 306 342 297L364 275Q373 266 364 258Z"  horiz-adv-x="448" vert-adv-y="512"  />

      
      <glyph glyph-name="uniF14D" unicode="&#xF14D;" d="M562 290Q576 276 576 256Q576 236 562 222L418 78Q395 55 365.50 67.50Q336 80 336 112L336 166Q287 162 265.50 152.50Q244 143 244 127Q244 111 252 87Q263 55 236 34.50Q209 14 181 31Q141 56 118.50 93.50Q96 131 96 176Q96 235 132 275Q162 308 215 325Q263 340 336 343L336 400Q336 432 365.50 444Q395 456 418 434L562 290M384 112L528 256L384 400L384 296Q351 296 327 294.50Q303 293 273 289Q243 285 222 276.50Q201 268 182 255.50Q163 243 153.50 222.50Q144 202 144 176Q144 111 206 72Q199 94 197 112.50Q195 131 199 145Q203 159 211 170Q219 181 232 188.50Q245 196 260.50 201Q276 206 296.50 209.50Q317 213 337.50 214Q358 215 384 216L384 112M409 28Q420 31 430 37Q436 41 442 37.50Q448 34 448 27L448-16Q448-36 434-50Q420-64 400-64L48-64Q28-64 14-50Q0-36 0-16L0 336Q0 356 14 370Q28 384 48 384L180 384Q192 384 192 372L192 368Q192 359 184 356Q164 348 146 338Q143 336 140 336L54 336Q48 336 48 330L48-10Q48-16 54-16L394-16Q400-16 400-10L400 16Q400 25 409 28Z"  horiz-adv-x="576" vert-adv-y="512"  />

      
      <glyph glyph-name="uniF14E" unicode="&#xF14E;" d="M348 318Q360 324 370 314Q380 304 374 292L308 148Q303 137 292 132L148 66Q136 60 126 70Q116 80 122 92L188 236Q193 247 204 252L348 318M248 160Q248 160 254.50 160Q261 160 270.50 169.50Q280 179 280 192Q280 205 270.50 214.50Q261 224 248 224Q235 224 225.50 214.50Q216 205 216 192Q216 179 225.50 169.50Q235 160 248 160M72.50 367.50Q72.50 367.50 108.75 403.75Q145 440 248 440Q351 440 423.50 367.50Q496 295 496 192Q496 89 423.50 16.50Q351-56 248-56Q145-56 72.50 16.50Q0 89 0 192Q0 295 72.50 367.50M106.50 50.50Q106.50 50.50 135.75 21.25Q165-8 248-8Q331-8 389.50 50.50Q448 109 448 192Q448 275 389.50 333.50Q331 392 248 392Q165 392 106.50 333.50Q48 275 48 192Q48 109 106.50 50.50Z"  horiz-adv-x="496" vert-adv-y="512"  />

      
      <glyph glyph-name="uniF150" unicode="&#xF150;" d="M125 240L323 240Q331 240 334 232.50Q337 225 331 220L232 121Q224 113 216 121L117 220Q111 225 114 232.50Q117 240 125 240M448 368L448 16Q448-4 434-18Q420-32 400-32L48-32Q28-32 14-18Q0-4 0 16L0 368Q0 388 14 402Q28 416 48 416L400 416Q420 416 434 402Q448 388 448 368M400 22L400 362Q400 368 394 368L54 368Q48 368 48 362L48 22Q48 16 54 16L394 16Q400 16 400 22Z"  horiz-adv-x="448" vert-adv-y="512"  />

      
      <glyph glyph-name="uniF151" unicode="&#xF151;" d="M323 144L125 144Q117 144 114 151.50Q111 159 117 164L216 263Q224 271 232 263L331 164Q337 159 334 151.50Q331 144 323 144M448 368L448 16Q448-4 434-18Q420-32 400-32L48-32Q28-32 14-18Q0-4 0 16L0 368Q0 388 14 402Q28 416 48 416L400 416Q420 416 434 402Q448 388 448 368M400 22L400 362Q400 368 394 368L54 368Q48 368 48 362L48 22Q48 16 54 16L394 16Q400 16 400 22Z"  horiz-adv-x="448" vert-adv-y="512"  />

      
      <glyph glyph-name="uniF152" unicode="&#xF152;" d="M176 93L176 291Q176 299 183.50 302Q191 305 196 299L295 200Q303 192 295 184L196 85Q191 79 183.50 82Q176 85 176 93M448 368L448 16Q448-4 434-18Q420-32 400-32L48-32Q28-32 14-18Q0-4 0 16L0 368Q0 388 14 402Q28 416 48 416L400 416Q420 416 434 402Q448 388 448 368M400 22L400 362Q400 368 394 368L54 368Q48 368 48 362L48 22Q48 16 54 16L394 16Q400 16 400 22Z"  horiz-adv-x="448" vert-adv-y="512"  />

      
      <glyph glyph-name="uniF15B" unicode="&#xF15B;" d="M370 350Q384 336 384 316L384-16Q384-36 370-50Q356-64 336-64L48-64Q28-64 14-50Q0-36 0-16L0 400Q0 420 14 434Q28 448 48 448L252 448Q272 448 286 434L370 350M332 320L256 396L256 320L332 320M48-16L336-16L336 272L232 272Q222 272 215 279Q208 286 208 296L208 400L48 400L48-16Z"  horiz-adv-x="384" vert-adv-y="512"  />

      
      <glyph glyph-name="uniF15C" unicode="&#xF15C;" d="M288 200L288 172Q288 160 276 160L108 160Q96 160 96 172L96 200Q96 212 108 212L276 212Q288 212 288 200M276 128Q288 128 288 116L288 88Q288 76 276 76L108 76Q96 76 96 88L96 116Q96 128 108 128L276 128M384 316L384-16Q384-36 370-50Q356-64 336-64L48-64Q28-64 14-50Q0-36 0-16L0 400Q0 420 14 434Q28 448 48 448L252 448Q272 448 286 434L370 350Q384 336 384 316M256 396L256 320L332 320L256 396M336-16L336 272L232 272Q222 272 215 279Q208 286 208 296L208 400L48 400L48-16L336-16Z"  horiz-adv-x="384" vert-adv-y="512"  />

      
      <glyph glyph-name="uniF164" unicode="&#xF164;" d="M466 161Q473 128 457 98Q462 62 440 31Q439 3 427.50-18Q416-39 390.50-51.50Q365-64 327-64Q324-64 316-64Q308-64 305-64Q260-64 225.50-54Q191-44 167.50-34Q144-24 127-24Q124-34 115.50-41Q107-48 96-48L32-48Q19-48 9.50-38.50Q0-29 0-16L0 224Q0 237 9.50 246.50Q19 256 32 256L131 256Q139 263 151 279Q163 295 176.50 312.50Q190 330 200 339Q203 343 209 372Q215 401 229.50 424.50Q244 448 271 448Q316 448 341.50 422Q367 396 367 343Q367 320 358 297L394 297Q418 297 438 284.50Q458 272 469 252.50Q480 233 480 211Q480 185 466 161M405 107Q420 122 420.50 142.50Q421 163 410 173Q417 173 424.50 185Q432 197 432 211Q432 225 421 237Q410 249 394 249L290 249Q290 267 304.50 295.50Q319 324 319 343Q319 353 318.50 358.50Q318 364 315.50 373Q313 382 308.50 387Q304 392 294.50 396Q285 400 271 400Q263 392 256 356.50Q249 321 233 305Q226 298 212 279.50Q198 261 187 246.50Q176 232 162.50 220Q149 208 139 208L128 208L128 22Q153 22 207.50 3Q262-16 300-16L337-16Q401-16 391 50Q403 57 408 74Q413 91 405 107M81-1Q81-1 84.50 2.50Q88 6 88 16Q88 26 81 33Q74 40 64 40Q54 40 47 33Q40 26 40 16Q40 6 47-1Q54-8 64-8Q74-8 81-1Z"  horiz-adv-x="512" vert-adv-y="512"  />

      
      <glyph glyph-name="uniF165" unicode="&#xF165;" d="M466 223Q480 199 480 173Q480 139 455 113Q430 87 394 87L358 87Q367 64 367 41Q367-12 341.50-38Q316-64 271-64Q244-64 229.50-40.50Q215-17 209 12Q203 41 200 45Q189 56 165 87.50Q141 119 131 128L124 128Q114 112 96 112L32 112Q19 112 9.50 121.50Q0 131 0 144L0 384Q0 397 9.50 406.50Q19 416 32 416L96 416Q108 416 117 408L128 408Q143 408 166 418Q189 428 224.50 438Q260 448 305 448Q308 448 316 448Q324 448 327 448Q383 448 411 422.50Q439 397 440 353Q462 322 457 286Q473 256 466 223M47 159Q47 159 50.50 155.50Q54 152 64 152Q74 152 81 159Q88 166 88 176Q88 186 81 193Q74 200 64 200Q54 200 47 193Q40 186 40 176Q40 166 47 159M394 135Q404 135 413 140.50Q422 146 427 155Q432 164 432 173Q432 187 424.50 199Q417 211 410 211Q421 221 420.50 241.50Q420 262 405 277Q413 293 408 310Q403 327 391 334Q401 400 337 400L300 400Q262 400 207.50 381Q153 362 128 362L128 176L139 176Q151 176 168 158.50Q185 141 205 114Q225 87 233 79Q249 63 256 27.50Q263-8 271-16Q288-16 298.50-11Q309-6 313 4Q317 14 318 21Q319 28 319 41Q319 60 304.50 88.50Q290 117 290 135L394 135Z"  horiz-adv-x="512" vert-adv-y="512"  />

      
      <glyph glyph-name="uniF185" unicode="&#xF185;" d="M494 226Q512 214 512 192.50Q512 171 494 159L434 118L448 47Q452 26 437 11Q422-4 401 0L330 14L290-46Q277-64 255.50-64Q234-64 222-46L182 14L111 0Q90-4 75 11Q60 26 64 48L78 118L18 159Q0 171 0 192.50Q0 214 18 226L78 267L64 338Q60 359 75 374Q90 389 111 385L182 371L222 431Q234 448 256 448Q278 448 290 431L330 371L401 385Q422 389 437 374Q452 359 448 338L434 267L494 226M381 140L458 193L381 245L399 336L308 318L256 395L204 318L113 336L131 245L54 193L131 141L113 49L204 67L256-10L308 67L399 49L381 140M182.50 265.50Q182.50 265.50 197.75 280.75Q213 296 256 296Q299 296 329.50 265.50Q360 235 360 192Q360 149 329.50 118.50Q299 88 256 88Q213 88 182.50 118.50Q152 149 152 192Q152 235 182.50 265.50M216.50 152.50Q216.50 152.50 224.75 144.25Q233 136 256 136Q279 136 295.50 152.50Q312 169 312 192Q312 215 295.50 231.50Q279 248 256 248Q233 248 216.50 231.50Q200 215 200 192Q200 169 216.50 152.50Z"  horiz-adv-x="512" vert-adv-y="512"  />

      
      <glyph glyph-name="uniF186" unicode="&#xF186;" d="M279-64Q173-64 98 11Q23 86 23 192Q23 298 98 373Q173 448 279 448Q303 448 326 444Q347 440 358 422.50Q369 405 364.50 385Q360 365 341 355Q310 337 291.50 306Q273 275 273 239Q273 176 321.50 136Q370 96 432 108Q465 114 482 85.50Q499 57 478 31Q442-14 390-39Q338-64 279-64M279 400Q193 400 132 339Q71 278 71 192Q71 106 132 45Q193-16 279-16Q327-16 369.50 4.50Q412 25 441 61Q357 45 291 99.50Q225 154 225 239Q225 289 250 331Q275 373 317 397Q298 400 279 400Z"  horiz-adv-x="512" vert-adv-y="512"  />

      
      <glyph glyph-name="uniF191" unicode="&#xF191;" d="M272 291L272 93Q272 85 264.50 82Q257 79 252 85L153 184Q145 192 153 200L252 299Q257 305 264.50 302Q272 299 272 291M448 368L448 16Q448-4 434-18Q420-32 400-32L48-32Q28-32 14-18Q0-4 0 16L0 368Q0 388 14 402Q28 416 48 416L400 416Q420 416 434 402Q448 388 448 368M400 22L400 362Q400 368 394 368L54 368Q48 368 48 362L48 22Q48 16 54 16L394 16Q400 16 400 22Z"  horiz-adv-x="448" vert-adv-y="512"  />

      
      <glyph glyph-name="uniF192" unicode="&#xF192;" d="M397.50 333.50Q397.50 333.50 368.25 362.75Q339 392 256 392Q173 392 114.50 333.50Q56 275 56 192Q56 109 114.50 50.50Q173-8 256-8Q339-8 397.50 50.50Q456 109 456 192Q456 275 397.50 333.50M80.50 367.50Q80.50 367.50 116.75 403.75Q153 440 256 440Q359 440 431.50 367.50Q504 295 504 192Q504 89 431.50 16.50Q359-56 256-56Q153-56 80.50 16.50Q8 89 8 192Q8 295 80.50 367.50M199.50 248.50Q199.50 248.50 211.25 260.25Q223 272 256 272Q289 272 312.50 248.50Q336 225 336 192Q336 159 312.50 135.50Q289 112 256 112Q223 112 199.50 135.50Q176 159 176 192Q176 225 199.50 248.50Z"  horiz-adv-x="512" vert-adv-y="512"  />

      
      <glyph glyph-name="uniF1AD" unicode="&#xF1AD;" d="M128 300L128 340Q128 352 140 352L180 352Q192 352 192 340L192 300Q192 288 180 288L140 288Q128 288 128 300M268 288Q256 288 256 300L256 340Q256 352 268 352L308 352Q320 352 320 340L320 300Q320 288 308 288L268 288M140 192Q128 192 128 204L128 244Q128 256 140 256L180 256Q192 256 192 244L192 204Q192 192 180 192L140 192M268 192Q256 192 256 204L256 244Q256 256 268 256L308 256Q320 256 320 244L320 204Q320 192 308 192L268 192M192 108Q192 96 180 96L140 96Q128 96 128 108L128 148Q128 160 140 160L180 160Q192 160 192 148L192 108M268 96Q256 96 256 108L256 148Q256 160 268 160L308 160Q320 160 320 148L320 108Q320 96 308 96L268 96M448-28L448-64L0-64L0-28Q0-16 12-16L32-16L32 424Q32 434 39 441Q46 448 56 448L392 448Q402 448 409 441Q416 434 416 424L416-16L436-16Q448-16 448-28M80-15L192-15L192 52Q192 64 204 64L244 64Q256 64 256 52L256-15L368-15L368 399L80 400L80-15Z"  horiz-adv-x="448" vert-adv-y="512"  />

      
      <glyph glyph-name="uniF1C1" unicode="&#xF1C1;" d="M370 350Q384 336 384 316L384-16Q384-36 370-50Q356-64 336-64L48-64Q28-64 14-50Q0-36 0-16L0 400Q0 420 14 434Q28 448 48 448L252 448Q272 448 286 434L370 350M332 320L256 396L256 320L332 320M48-16L336-16L336 272L232 272Q222 272 215 279Q208 286 208 296L208 400L48 400L48-16M298 128Q308 120 303 104.50Q298 89 281 89Q256 89 225 106Q210 103 156 86Q117 18 90 35Q78 42 80 55Q85 77 131 101Q147 129 167 175Q154 223 160 242Q163 257 181 256Q199 255 202 236Q207 222 197 180Q209 149 234 134Q285 141 298 128M100 50Q100 49 103.50 51.50Q107 54 114.50 62.50Q122 71 130 85Q104 60 100 50M182 240Q180 240 180 233Q180 226 180.50 216Q181 206 184 200Q187 206 187 223Q187 240 182 240M157 104Q202 121 212 123Q194 136 182 159Q169 124 157 104M289 109Q294 112 283.50 115Q273 118 252 117Q266 111 275.50 109Q285 107 287 108L289 109Z"  horiz-adv-x="384" vert-adv-y="512"  />

      
      <glyph glyph-name="uniF1C2" unicode="&#xF1C2;" d="M370 350Q384 336 384 316L384-16Q384-36 370-50Q356-64 336-64L48-64Q28-64 14-50Q0-36 0-16L0 400Q0 420 14 434Q28 448 48 448L252 448Q272 448 286 434L370 350M332 320L256 396L256 320L332 320M48-16L336-16L336 272L232 272Q222 272 215 279Q208 286 208 296L208 400L48 400L48-16M268 192L284 192Q288 192 291 190Q294 188 295 184.50Q296 181 296 177Q286 139 261 41Q259 32 249 32L225 32Q215 32 213 41Q206 70 195 113L192 130Q192 122 189 113L171 41Q169 32 160 32L135 32Q125 32 123 41Q120 52 113.50 79.50Q107 107 100 135Q93 163 90 177Q88 183 92 187.50Q96 192 101 192L118 192Q128 192 130 182Q149 86 149 83Q149 82 150 79Q150 85 174 183Q177 192 186 192L199 192Q209 192 211 183Q234 86 235 83Q235 82 235 80.50Q235 79 235 79Q236 85 256 182Q258 192 268 192Z"  horiz-adv-x="384" vert-adv-y="512"  />

      
      <glyph glyph-name="uniF1C3" unicode="&#xF1C3;" d="M370 350Q384 336 384 316L384-16Q384-36 370-50Q356-64 336-64L48-64Q28-64 14-50Q0-36 0-16L0 400Q0 420 14 434Q28 448 48 448L252 448Q272 448 286 434L370 350M332 320L256 396L256 320L332 320M48-16L336-16L336 272L232 272Q222 272 215 279Q208 286 208 296L208 400L48 400L48-16M260 224Q267 224 270.50 218Q274 212 270 206Q235 145 224 128L270 50Q274 44 270.50 38Q267 32 260 32L231 32Q224 32 221 38Q219 41 192 96Q180 69 163 38Q160 32 153 32L124 32Q117 32 113.50 38Q110 44 114 50L160 128L114 206Q110 212 113.50 218Q117 224 124 224L153 224Q160 224 164 218Q173 200 192 160Q201 182 221 218Q224 224 231 224L260 224Z"  horiz-adv-x="384" vert-adv-y="512"  />

      
      <glyph glyph-name="uniF1C4" unicode="&#xF1C4;" d="M370 350Q384 336 384 316L384-16Q384-36 370-50Q356-64 336-64L48-64Q28-64 14-50Q0-36 0-16L0 400Q0 420 14 434Q28 448 48 448L252 448Q272 448 286 434L370 350M332 320L256 396L256 320L332 320M48-16L336-16L336 272L232 272Q222 272 215 279Q208 286 208 296L208 400L48 400L48-16M120 44L120 212Q120 224 132 224L201 224Q229 224 246.50 205.50Q264 187 264 158Q264 147 262 138Q260 129 257 122.50Q254 116 248.50 110.50Q243 105 238.50 102Q234 99 226.50 96.50Q219 94 214 93Q209 92 201 91.50Q193 91 189 91Q185 91 177.50 91Q170 91 168 91L168 44Q168 39 164.50 35.50Q161 32 156 32L132 32Q120 32 120 44M168 131L192 131Q203 131 209.50 138.50Q216 146 216 157.50Q216 169 209.50 176Q203 183 192 183L168 183L168 131Z"  horiz-adv-x="384" vert-adv-y="512"  />

      
      <glyph glyph-name="uniF1C5" unicode="&#xF1C5;" d="M370 350Q384 336 384 316L384-16Q384-36 370-50Q356-64 336-64L48-64Q28-64 14-50Q0-36 0-16L0 400Q0 420 14 434Q28 448 48 448L252 448Q272 448 286 434L370 350M332 320L256 396L256 320L332 320M48-16L336-16L336 272L232 272Q222 272 215 279Q208 286 208 296L208 400L48 400L48-16M80 32L80 96L120 136Q128 144 136 136L176 96L264 184Q272 192 280 184L304 160L304 32L80 32M94 258Q94 258 101 265Q108 272 128 272Q148 272 162 258Q176 244 176 224Q176 204 162 190Q148 176 128 176Q108 176 94 190Q80 204 80 224Q80 244 94 258Z"  horiz-adv-x="384" vert-adv-y="512"  />

      
      <glyph glyph-name="uniF1C6" unicode="&#xF1C6;" d="M128 288L160 288L160 256L128 256L128 288M192 384L192 352L160 352L160 384L192 384M128 352L160 352L160 320L128 320L128 352M192 320L192 288L160 288L160 320L192 320M370 350Q384 336 384 316L384-16Q384-36 370-50Q356-64 336-64L48-64Q28-64 14-50Q0-36 0-16L0 400Q0 420 14 434Q28 448 48 448L252 448Q272 448 286 434L370 350M256 396L256 320L332 320L256 396M336-16L336 272L232 272Q222 272 215 279Q208 286 208 296L208 400L160 400L160 384L128 384L128 400L48 400L48-16L336-16M194 182L212 95Q215 79 208.50 64.50Q202 50 189 41Q176 32 160 32Q135 32 119.50 51.50Q104 71 109 95L128 192L128 224L160 224L160 192L182 192Q192 192 194 182M137.50 66Q137.50 66 142.25 62Q147 58 160.50 58Q174 58 183.50 66Q193 74 193 85Q193 92 188.50 98.50Q184 105 176.50 108.50Q169 112 160 112Q151 112 144 108.50Q137 105 132.50 98.50Q128 92 128 85Q128 74 137.50 66M192 256L192 224L160 224L160 256L192 256Z"  horiz-adv-x="384" vert-adv-y="512"  />

      
      <glyph glyph-name="uniF1C7" unicode="&#xF1C7;" d="M370 350Q384 336 384 316L384-16Q384-36 370-50Q356-64 336-64L48-64Q28-64 14-50Q0-36 0-16L0 400Q0 420 14 434Q28 448 48 448L252 448Q272 448 286 434L370 350M332 320L256 396L256 320L332 320M48-16L336-16L336 272L232 272Q222 272 215 279Q208 286 208 296L208 400L48 400L48-16M192 60Q192 52 184.50 49Q177 46 172 52L136 88L108 88Q103 88 99.50 91.50Q96 95 96 100L96 156Q96 160 99.50 164Q103 168 108 168L136 168L172 204Q177 210 184.50 207Q192 204 192 196L192 60M233 107Q240 114 240 124Q240 134 233 141Q223 151 227.50 164.50Q232 178 244 181Q256 184 268 174Q288 153 288 124Q288 95 268 74Q257 63 244 67Q231 71 227.50 83Q224 95 233 107Z"  horiz-adv-x="384" vert-adv-y="512"  />

      
      <glyph glyph-name="uniF1C8" unicode="&#xF1C8;" d="M370 350Q384 336 384 316L384-16Q384-36 370-50Q356-64 336-64L48-64Q28-64 14-50Q0-36 0-16L0 400Q0 420 14 434Q28 448 48 448L252 448Q272 448 286 434L370 350M332 320L256 396L256 320L332 320M48-16L336-16L336 272L232 272Q222 272 215 279Q208 286 208 296L208 400L48 400L48-16M277 195Q284 203 294 199Q304 195 304 184L304 72Q304 61 294 57Q284 53 277 61L224 113L224 76Q224 68 218 62Q212 56 204 56L100 56Q92 56 86 62Q80 68 80 76L80 180Q80 188 86 194Q92 200 100 200L204 200Q212 200 218 194Q224 188 224 180L224 143L277 195Z"  horiz-adv-x="384" vert-adv-y="512"  />

      
      <glyph glyph-name="uniF1C9" unicode="&#xF1C9;" d="M150 99Q156 93 150 86L133 68Q130 65 126 65Q123 65 120 68L63 122Q56 128 63 134L120 188Q127 195 133 188L150 170L150 169Q156 163 150 157L117 128L150 99M370 350Q384 336 384 316L384-16Q384-36 370-50Q356-64 336-64L48-64Q28-64 14-50Q0-36 0-16L0 400Q0 420 14 434Q28 448 48 448L252 448Q272 448 286 434L370 350M256 396L256 320L332 320L256 396M336-16L336 272L232 272Q222 272 215 279Q208 286 208 296L208 400L48 400L48-16L336-16M210 234L234 227Q243 225 240 216L185 28Q183 19 174 22L150 29Q141 31 144 40L199 228Q201 236 210 234M234 157Q228 163 234 170L251 188Q257 195 264 188L321 134Q328 128 321 122L264 68Q257 61 251 68L234 86L234 87Q228 93 234 99L267 128L234 157Z"  horiz-adv-x="384" vert-adv-y="512"  />

      
      <glyph glyph-name="uniF1CD" unicode="&#xF1CD;" d="M431.50 16.50Q431.50 16.50 395.25-19.75Q359-56 256-56Q153-56 80.50 16.50Q8 89 8 192Q8 295 80.50 367.50Q153 440 256 440Q359 440 431.50 367.50Q504 295 504 192Q504 89 431.50 16.50M153 21Q200-8 256-8Q312-8 359 21L306 74Q256 53 206 74L153 21M312.50 135.50Q312.50 135.50 324.25 147.25Q336 159 336 192Q336 225 312.50 248.50Q289 272 256 272Q223 272 199.50 248.50Q176 225 176 192Q176 159 199.50 135.50Q223 112 256 112Q289 112 312.50 135.50M427 89Q456 136 456 192Q456 248 427 295L374 242Q395 192 374 142L427 89M359 363Q312 392 256 392Q200 392 153 363L206 310Q256 331 306 310L359 363M85 295Q56 248 56 192Q56 136 85 89L138 142Q117 192 138 242L85 295Z"  horiz-adv-x="512" vert-adv-y="512"  />

      
      <glyph glyph-name="uniF1D8" unicode="&#xF1D8;" d="M440 442Q466 456 491 439.50Q516 423 512 393L452 5Q448-18 428-29Q417-35 405-35Q395-35 386-32L274 14L231-45Q217-62 196.50-64Q176-66 160-52Q144-38 144-16L144 68L30 116Q2 127 0 157Q-2 187 24 202L440 442M192-16L229 34L192 49L192-16M405 13L464 400L48 160L156 115L367 300Q378 309 388.50 299.50Q399 290 391 278L251 76L405 13Z"  horiz-adv-x="512" vert-adv-y="512"  />

      
      <glyph glyph-name="uniF1E3" unicode="&#xF1E3;" d="M484 269Q516 171 469 79.50Q422-12 325-44Q287-56 248-56Q169-56 103-9Q37 38 12 115Q-20 213 27 304.50Q74 396 171 428Q209 440 248 440Q300 440 347.50 419Q395 398 431 359Q467 320 484 269M409 75Q421 91 426 101Q447 143 448 190L409 227L338 205L313 129L357 68L409 75M409 310Q372 362 311 382L264 356L264 282L328 235L399 257L409 310M185 382Q125 362 87 310L97 257L168 235L232 282L232 356L185 382M139 68L182 130L158 204L87 227L48 190Q49 127 86 75L139 68M187 2Q245-17 309 2L331 50L287 111L208 111L165 50L187 2Z"  horiz-adv-x="496" vert-adv-y="512"  />

      
      <glyph glyph-name="uniF1EA" unicode="&#xF1EA;" d="M552 384Q562 384 569 377Q576 370 576 360L576 24Q576 14 569 7Q562 0 552 0L56 0Q33 0 16.50 16.50Q0 33 0 56L0 328Q0 338 7 345Q14 352 24 352L67 352Q72 366 84.50 375Q97 384 112 384L552 384M48 56Q48 48 56 48Q64 48 64 56L64 304L48 304L48 56M528 48L528 336L112 336L112 56Q112 52 111 48L528 48M172 168Q160 168 160 180L160 276Q160 288 172 288L308 288Q320 288 320 276L320 180Q320 168 308 168L172 168M200 248L200 208L280 208L280 248L200 248M160 108L160 132Q160 144 172 144L308 144Q320 144 320 132L320 108Q320 96 308 96L172 96Q160 96 160 108M352 108L352 132Q352 144 364 144L468 144Q480 144 480 132L480 108Q480 96 468 96L364 96Q352 96 352 108M352 252L352 276Q352 288 364 288L468 288Q480 288 480 276L480 252Q480 240 468 240L364 240Q352 240 352 252M352 180L352 204Q352 216 364 216L468 216Q480 216 480 204L480 180Q480 168 468 168L364 168Q352 168 352 180Z"  horiz-adv-x="576" vert-adv-y="512"  />

      
      <glyph glyph-name="uniF1F6" unicode="&#xF1F6;" d="M634-23Q646-33 636-46L626-58Q616-70 604-60L6 407Q-6 417 4 430L14 442Q24 454 36 444L634-23M164 80L346 80L408 32L128 32Q114 32 105 41.50Q96 51 96 64Q96 76 105 86Q106 87 108 89Q116 98 120.50 103Q125 108 133 121Q141 134 145.50 147Q150 160 154.50 181Q159 202 159 226L205 191Q196 123 164 80M320 352Q286 352 257 333L219 362Q250 387 288 395L288 416Q288 429 297.50 438.50Q307 448 320 448Q333 448 342.50 438.50Q352 429 352 416L352 395Q389 388 418 366Q447 344 463.50 311Q480 278 480 240Q480 185 494 147L435 194Q432 217 432 239Q432 240 432 240Q432 286 399 319Q366 352 320 352M320-64Q294-64 275-45.50Q256-27 256 0L384 0Q384-17 375.50-32Q367-47 352-55.50Q337-64 320-64Z"  horiz-adv-x="640" vert-adv-y="512"  />

      
      <glyph glyph-name="uniF1F9" unicode="&#xF1F9;" d="M80.50 367.50Q80.50 367.50 116.75 403.75Q153 440 256 440Q359 440 431.50 367.50Q504 295 504 192Q504 89 431.50 16.50Q359-56 256-56Q153-56 80.50 16.50Q8 89 8 192Q8 295 80.50 367.50M114.50 50.50Q114.50 50.50 143.75 21.25Q173-8 256-8Q339-8 397.50 50.50Q456 109 456 192Q456 275 397.50 333.50Q339 392 256 392Q173 392 114.50 333.50Q56 275 56 192Q56 109 114.50 50.50M363 93Q322 52 259 52Q198 52 158.50 92.50Q119 133 119 193Q119 232 137 264Q155 296 187 314.50Q219 333 259 333Q318 333 356 298Q360 294 360 289Q360 286 358 283L340 254Q333 243 322 252Q294 274 261 274Q237 274 219 263.50Q201 253 192 234.50Q183 216 183 194Q183 160 204 135Q225 110 261 110Q297 110 327 137Q331 141 336 140.50Q341 140 345 136L365 109Q367 105 367 102Q367 97 363 93Z"  horiz-adv-x="512" vert-adv-y="512"  />

      
      <glyph glyph-name="uniF20A" unicode="&#xF20A;" d="M464 384Q484 384 498 370Q512 356 512 336L512 48Q512 28 498 14Q484 0 464 0L48 0Q28 0 14 14Q0 28 0 48L0 336Q0 356 14 370Q28 384 48 384L464 384M458 48Q464 48 464 54L464 330Q464 336 458 336L54 336Q48 336 48 330L48 54Q48 48 54 48L458 48M247 134Q250 130 246 126Q220 98 179 95.50Q138 93 106 120Q74 147 74 194Q74 240 106.50 266Q139 292 180 290.50Q221 289 246 264Q249 261 247 258L230 228Q226 222 220 226Q190 250 158 239.50Q126 229 126 195Q126 158 156.50 146.50Q187 135 218 162Q223 167 227 161L247 134M437 134Q440 130 437 126Q410 98 369 95.50Q328 93 296 120Q264 147 264 194Q264 240 296.50 266Q329 292 370 290.50Q411 289 436 264Q439 261 438 258L420 228Q416 222 411 226Q380 250 348 239.50Q316 229 316 195Q316 158 347 146.50Q378 135 408 162Q414 167 418 161L437 134Z"  horiz-adv-x="512" vert-adv-y="512"  />

      
      <glyph glyph-name="uniF247" unicode="&#xF247;" d="M500 320L488 320L488 64L500 64Q512 64 512 52L512-20Q512-32 500-32L428-32Q416-32 416-20L416-8L96-8L96-20Q96-32 84-32L12-32Q0-32 0-20L0 52Q0 64 12 64L24 64L24 320L12 320Q0 320 0 332L0 404Q0 416 12 416L84 416Q96 416 96 404L96 392L416 392L416 404Q416 416 428 416L500 416Q512 416 512 404L512 332Q512 320 500 320M448 384L448 352L480 352L480 384L448 384M32 384L32 352L64 352L64 384L32 384M64 0L64 32L32 32L32 0L64 0M480 0L480 32L448 32L448 0L480 0M440 64L440 320L428 320Q416 320 416 332L416 344L96 344L96 332Q96 320 84 320L72 320L72 64L84 64Q96 64 96 52L96 40L416 40L416 52Q416 64 428 64L440 64M404 256Q416 256 416 244L416 76Q416 64 404 64L204 64Q192 64 192 76L192 128L108 128Q96 128 96 140L96 308Q96 320 108 320L308 320Q320 320 320 308L320 256L404 256M136 280L136 168L280 168L280 280L136 280M376 104L376 216L320 216L320 140Q320 128 308 128L232 128L232 104L376 104Z"  horiz-adv-x="512" vert-adv-y="512"  />

      
      <glyph glyph-name="uniF248" unicode="&#xF248;" d="M564 224L552 224L552 64L564 64Q576 64 576 52L576-20Q576-32 564-32L492-32Q480-32 480-20L480-8L256-8L256-20Q256-32 244-32L172-32Q160-32 160-20L160 52Q160 64 172 64L184 64L184 88L96 88L96 76Q96 64 84 64L12 64Q0 64 0 76L0 148Q0 160 12 160L24 160L24 320L12 320Q0 320 0 332L0 404Q0 416 12 416L84 416Q96 416 96 404L96 392L320 392L320 404Q320 416 332 416L404 416Q416 416 416 404L416 332Q416 320 404 320L392 320L392 296L480 296L480 308Q480 320 492 320L564 320Q576 320 576 308L576 236Q576 224 564 224M352 384L352 352L384 352L384 384L352 384M352 128L352 96L384 96L384 128L352 128M64 96L64 128L32 128L32 96L64 96M64 352L64 384L32 384L32 352L64 352M96 136L320 136L320 148Q320 160 332 160L344 160L344 320L332 320Q320 320 320 332L320 344L96 344L96 332Q96 320 84 320L72 320L72 160L84 160Q96 160 96 148L96 136M224 0L224 32L192 32L192 0L224 0M504 64L504 224L492 224Q480 224 480 236L480 248L392 248L392 160L404 160Q416 160 416 148L416 76Q416 64 404 64L332 64Q320 64 320 76L320 88L232 88L232 64L244 64Q256 64 256 52L256 40L480 40L480 52Q480 64 492 64L504 64M544 0L544 32L512 32L512 0L544 0M544 256L544 288L512 288L512 256L544 256Z"  horiz-adv-x="576" vert-adv-y="512"  />

      
      <glyph glyph-name="uniF249" unicode="&#xF249;" d="M448 100Q448 80 434 66L350-18Q336-32 316-32L48-32Q28-32 14-18Q0-4 0 16L0 368Q0 388 14 402Q28 416 48 416L400 416Q420 416 434 402Q448 388 448 368L448 100M320 20L396 96L320 96L320 20M400 368L48 368L48 16L272 16L272 120Q272 130 279 137Q286 144 296 144L400 144L400 368Z"  horiz-adv-x="448" vert-adv-y="512"  />

      
      <glyph glyph-name="uniF24D" unicode="&#xF24D;" d="M464 448Q484 448 498 434Q512 420 512 400L512 80Q512 60 498 46Q484 32 464 32L416 32L416-16Q416-36 402-50Q388-64 368-64L48-64Q28-64 14-50Q0-36 0-16L0 304Q0 324 14 338Q28 352 48 352L96 352L96 400Q96 420 110 434Q124 448 144 448L464 448M362-16Q368-16 368-10L368 32L144 32Q124 32 110 46Q96 60 96 80L96 304L54 304Q48 304 48 298L48-10Q48-16 54-16L362-16M458 80Q464 80 464 86L464 394Q464 400 458 400L150 400Q144 400 144 394L144 86Q144 80 150 80L458 80Z"  horiz-adv-x="512" vert-adv-y="512"  />

      
      <glyph glyph-name="uniF254" unicode="&#xF254;" d="M368 400Q368 337 343 279.50Q318 222 271 192Q318 162 343 104.50Q368 47 368-16L372-16Q384-16 384-28L384-52Q384-64 372-64L12-64Q0-64 0-52L0-28Q0-16 12-16L16-16Q16 47 41 104.50Q66 162 113 192Q66 222 41 279.50Q16 337 16 400L12 400Q0 400 0 412L0 436Q0 448 12 448L372 448Q384 448 384 436L384 412Q384 400 372 400L368 400M64 400Q64 324 101.50 270Q139 216 192 216Q245 216 282.50 270Q320 324 320 400L64 400M320-16Q320 60 282.50 114Q245 168 192 168Q139 168 101.50 114Q64 60 64-16L320-16Z"  horiz-adv-x="384" vert-adv-y="512"  />

      
      <glyph glyph-name="uniF255" unicode="&#xF255;" d="M409 369Q445 385 478.50 363Q512 341 512 301L512 187Q512 163 503 142L460 42Q456 33 456 0Q456-13 446.50-22.50Q437-32 424-32L172-32Q159-32 149.50-22.50Q140-13 140 0Q140 4 140 8Q140 12 140 14.50Q140 17 140 19.50Q140 22 140 23.50Q140 25 140 26.50Q140 28 139.50 29Q139 30 139 30.50Q139 31 138.50 31.50Q138 32 137 33L39 118Q0 152 0 204L0 261Q0 296 28 318Q56 340 91 332Q93 373 129.50 393Q166 413 202 393Q224 416 256 416Q288 416 310 393Q334 407 363 400.50Q392 394 409 369M464 187L464 301Q464 317 451 323.50Q438 330 425 323.50Q412 317 412 302Q412 295 407.50 290.50Q403 286 396 286L389 286Q382 286 377.50 290.50Q373 295 373 302L373 328Q373 345 360 351.50Q347 358 334 351.50Q321 345 321 329L321 302Q321 295 316.50 290.50Q312 286 305 286L298 286Q291 286 286.50 290.50Q282 295 282 302L282 342Q282 358 269 365Q256 372 243 365.50Q230 359 230 343L230 302Q230 295 225.50 290.50Q221 286 214 286L207 286Q200 286 195.50 290.50Q191 295 191 302L191 328Q191 345 178 351.50Q165 358 152 351.50Q139 345 139 329L139 213Q139 208 137 204.50Q135 201 131 199Q127 197 123 197Q117 197 112 201L105 207Q100 211 100 219L100 260Q100 276 87 282.50Q74 289 61 282.50Q48 276 48 261L48 204Q48 174 71 154L168 69Q188 52 188 26L188 16L408 16L408 23Q408 43 416 61L459 161Q464 173 464 187Z"  horiz-adv-x="512" vert-adv-y="512"  />

      
      <glyph glyph-name="uniF256" unicode="&#xF256;" d="M373 335Q402 340 425 319.50Q448 299 448 269L448 137Q448 114 443 92L413-39Q410-50 401.50-57Q393-64 381-64L159-64Q142-64 132-51L13 118Q-3 140 1 167.50Q5 195 27 211Q56 232 89 220L89 346Q89 379 114.50 399Q140 419 172 411Q190 447 230 448Q270 449 290 412Q321 420 347 399.50Q373 379 373 346L373 335M400 137L400 269Q400 281 391 286Q382 291 372.50 286Q363 281 363 268L363 192Q363 185 358.50 180.50Q354 176 347 176L341 176Q334 176 329.50 180.50Q325 185 325 192L325 346Q325 358 315.50 363.50Q306 369 297 364Q288 359 288 347L288 192Q288 185 283.50 180.50Q279 176 272 176L265 176Q259 176 254 180.50Q249 185 249 192L249 380Q249 392 240 397.50Q231 403 222 398Q213 393 213 381L213 192Q213 185 208 180.50Q203 176 197 176L190 176Q183 176 178.50 180.50Q174 185 174 192L174 345Q174 357 164.50 362.50Q155 368 146 363Q137 358 137 346L137 140Q137 128 126 124.50Q115 121 108 130L81 168Q77 174 71 175.50Q65 177 60 175Q55 173 51.50 168.50Q48 164 48 158Q48 152 52 146L167-16L369-16L396 103Q400 120 400 137Z"  horiz-adv-x="448" vert-adv-y="512"  />

      
      <glyph glyph-name="uniF257" unicode="&#xF257;" d="M256-32Q222-32 202-5Q182 22 192 54Q176 64 167.50 81.50Q159 99 162 119L74 119Q43 119 21.50 140.50Q0 162 0 192Q0 222 21.50 243.50Q43 265 74 265L168 256L89 275Q60 286 48 314Q36 342 47 370Q58 398 86 410Q114 422 143 411L288 355Q331 408 380 380L478 325Q512 306 512 267L512 62Q512 39 497.50 20.50Q483 2 460-3L341-30Q334-32 326-32L256-32M256 16L326 16Q328 16 330 17L449 44Q464 47 464 62L464 267Q464 278 455 283L357 338Q342 346 332 334L310 307Q306 301 298 301Q295 301 292 302L126 366Q103 375 93 355Q82 334 101 322Q104 321 106 319L262 260Q272 256 272 245L272 233Q272 227 267.50 222Q263 217 256 217L74 217Q58 217 51 204.50Q44 192 51 179.50Q58 167 74 167L256 167Q263 167 267.50 162Q272 157 272 151L272 144Q272 137 267.50 132.50Q263 128 256 128L228 128Q216 128 211 119Q206 110 211 100.50Q216 91 228 91L256 91Q263 91 267.50 86.50Q272 82 272 75L272 69Q272 62 267.50 57.50Q263 53 256 53Q244 53 239 43.50Q234 34 239 25Q244 16 256 16Z"  horiz-adv-x="512" vert-adv-y="512"  />

      
      <glyph glyph-name="uniF258" unicode="&#xF258;" d="M557 157Q576 128 576 92L576-32L352-32L352 40L252 78Q248 80 244 80L112 80Q89 80 72.50 96.50Q56 113 56 136Q56 172 82 198Q108 224 144 224L258 224L276 272L80 272Q47 272 23.50 295.50Q0 319 0 352L0 360Q0 383 16.50 399.50Q33 416 56 416L350 416Q389 416 410 383L557 157M528 16L528 92Q528 114 516 131L370 357Q363 368 350 368L56 368Q48 368 48 360L48 352Q48 339 57.50 329.50Q67 320 80 320L293 320Q312 320 323 304.50Q334 289 327 271L303 207Q299 198 292 191Q285 184 276 180Q267 176 258 176L144 176Q127 176 115.50 164.50Q104 153 104 136Q104 128 112 128L244 128Q257 128 270 123L369 84Q383 79 391.50 67Q400 55 400 40L400 16L528 16Z"  horiz-adv-x="576" vert-adv-y="512"  />

      
      <glyph glyph-name="uniF259" unicode="&#xF259;" d="M501 332Q512 314 512 293Q512 285 510 276L452 34Q442-8 407.50-36Q373-64 328-64L221-64L220-64Q159-64 115-22L23 64Q0 86 0 118Q0 147 20 168Q48 198 88 190L64 272Q61 282 61 293Q61 322 80.50 343Q100 364 129 367Q128 370 128 374Q128 391 135.50 406Q143 421 155.50 431.50Q168 442 184 446Q205 451 224 444.50Q243 438 256 424Q269 410 273 393L287 339L292 362Q297 387 317.50 404Q338 421 364 421Q370 421 377.50 419.50Q385 418 397 413.50Q409 409 419.50 396.50Q430 384 435 367Q478 369 501 332M463 287Q467 303 456 312.50Q445 322 431 318.50Q417 315 413 299L388 195Q385 181 371.50 184.50Q358 188 360 201L389 340Q392 357 381 366.50Q370 376 356 372Q342 368 339 352L307 197Q304 184 291 184Q278 184 274 197L227 381Q223 396 209 399.50Q195 403 184 393Q173 383 177 368L220 203Q223 189 209 185Q195 181 191 195L159 300Q155 316 140.50 318.50Q126 321 115.50 311Q105 301 110 286L146 164Q156 130 156 94Q156 89 151.50 87Q147 85 143 88L91 136Q80 148 66 142.50Q52 137 49 124Q46 111 56 99L147 13Q178-16 220-16L221-16L328-16Q356-16 377.50 1.50Q399 19 406 45L463 287Z"  horiz-adv-x="512" vert-adv-y="512"  />

      
      <glyph glyph-name="uniF25A" unicode="&#xF25A;" d="M358 269Q391 281 419.50 261Q448 241 448 206L448 122Q448 114 446 107L419-12Q414-35 395.50-49.50Q377-64 354-64L176-64Q142-64 122-36L13 118Q-3 140 1 167.50Q5 195 27 211Q56 232 89 220L89 381Q89 409 108.50 428.50Q128 448 155.50 448Q183 448 202.50 428.50Q222 409 222 381L222 307Q255 312 278 288Q299 298 321.50 292.50Q344 287 358 269M81 168Q74 178 63.50 176Q53 174 49.50 165Q46 156 52 146L161-8Q167-16 176-16L354-16Q369-16 372-1L399 118Q400 120 400 122L400 206Q400 218 391 223Q382 228 372.50 223Q363 218 363 206Q363 202 361 198Q359 194 355.50 192Q352 190 347 190L341 190Q334 190 329.50 194.50Q325 199 325 206L325 227Q325 239 315.50 244Q306 249 297 244Q288 239 288 227L288 206Q288 199 283.50 194.50Q279 190 272 190L265 190Q261 190 257 192Q253 194 251 198Q249 202 249 206L249 241Q249 253 240 258Q231 263 222 258Q213 253 213 241L213 206Q213 202 210.50 198Q208 194 204.50 192Q201 190 197 190L190 190Q183 190 178.50 194.50Q174 199 174 206L174 381Q174 393 164.50 398Q155 403 146 398Q137 393 137 381L137 140Q137 128 126 124.50Q115 121 108 130L81 168M176 48L176 144Q176 151 180 155.50Q184 160 190 160L196 160Q202 160 206 155.50Q210 151 210 144L210 48Q210 45 209 42Q208 39 206 37Q204 35 201.50 33.50Q199 32 196 32L190 32Q184 32 180 36.50Q176 41 176 48M252 48L252 144Q252 151 256 155.50Q260 160 266 160L272 160Q277 160 281.50 155.50Q286 151 286 144L286 48Q286 41 281.50 36.50Q277 32 272 32L266 32Q260 32 256 36.50Q252 41 252 48M327 48L327 144Q327 160 341 160L347 160Q361 160 361 144L361 48Q361 32 347 32L341 32Q327 32 327 48Z"  horiz-adv-x="448" vert-adv-y="512"  />

      
      <glyph glyph-name="uniF25B" unicode="&#xF25B;" d="M362 256Q383 263 403 256Q423 249 435.50 231.50Q448 214 448 192L448 122Q448 114 446 107L419-12Q414-35 395.50-49.50Q377-64 354-64L149-64Q110-64 91-30L36 68Q8 117 61 160L5 305Q-6 334 6 362Q18 390 46 401Q66 408 84.50 405.50Q103 403 118.50 390.50Q134 378 141 359L160 280L151 374Q151 405 172.50 426.50Q194 448 224 448Q254 448 275.50 426.50Q297 405 297 374L297 286Q317 289 334.50 280.50Q352 272 362 256M400 122L400 192Q400 204 391 209Q382 214 372.50 209Q363 204 363 192Q363 185 358.50 180.50Q354 176 347 176L341 176Q334 176 329.50 180.50Q325 185 325 192L325 220Q325 232 315.50 237Q306 242 297 237Q288 232 288 220L288 192Q288 185 283.50 180.50Q279 176 272 176L265 176Q259 176 254 180.50Q249 185 249 192L249 374Q249 390 236.50 397Q224 404 211.50 397Q199 390 199 374L199 192Q199 185 194 180.50Q189 176 183 176L171 176Q160 176 156 186L97 342Q91 357 77 358.50Q63 360 53.50 349Q44 338 50 322L114 156Q115 153 115 150Q115 143 109 138L82 116Q70 106 78 91L133-7Q138-16 149-16L354-16Q369-16 372-1L399 118Q400 120 400 122Z"  horiz-adv-x="448" vert-adv-y="512"  />

      
      <glyph glyph-name="uniF25D" unicode="&#xF25D;" d="M80.50 367.50Q80.50 367.50 116.75 403.75Q153 440 256 440Q359 440 431.50 367.50Q504 295 504 192Q504 89 431.50 16.50Q359-56 256-56Q153-56 80.50 16.50Q8 89 8 192Q8 295 80.50 367.50M114.50 50.50Q114.50 50.50 143.75 21.25Q173-8 256-8Q339-8 397.50 50.50Q456 109 456 192Q456 275 397.50 333.50Q339 392 256 392Q173 392 114.50 333.50Q56 275 56 192Q56 109 114.50 50.50M366 74Q368 71 368 67.50Q368 64 366.50 61.50Q365 59 362 57.50Q359 56 356 56L313 56Q306 56 303 62L255 152L223 152L223 68Q223 63 219.50 59.50Q216 56 211 56L172 56Q168 56 164 59.50Q160 63 160 68L160 316Q160 321 164 324.50Q168 328 172 328L251 328Q353 328 353 243Q353 192 313 170Q315 167 366 74M257 208Q289 208 289 241Q289 251 286.50 257.50Q284 264 275 268Q266 272 250 272L223 272L223 208L257 208Z"  horiz-adv-x="512" vert-adv-y="512"  />

      
      <glyph glyph-name="uniF271" unicode="&#xF271;" d="M336 156L336 132Q336 120 324 120L248 120L248 44Q248 32 236 32L212 32Q200 32 200 44L200 120L124 120Q112 120 112 132L112 156Q112 168 124 168L200 168L200 244Q200 256 212 256L236 256Q248 256 248 244L248 168L324 168Q336 168 336 156M448 336L448-16Q448-36 434-50Q420-64 400-64L48-64Q28-64 14-50Q0-36 0-16L0 336Q0 356 14 370Q28 384 48 384L96 384L96 436Q96 448 108 448L148 448Q160 448 160 436L160 384L288 384L288 436Q288 448 300 448L340 448Q352 448 352 436L352 384L400 384Q420 384 434 370Q448 356 448 336M400-10L400 288L48 288L48-10Q48-16 54-16L394-16Q400-16 400-10Z"  horiz-adv-x="448" vert-adv-y="512"  />

      
      <glyph glyph-name="uniF272" unicode="&#xF272;" d="M124 120Q112 120 112 132L112 156Q112 168 124 168L324 168Q336 168 336 156L336 132Q336 120 324 120L124 120M448 336L448-16Q448-36 434-50Q420-64 400-64L48-64Q28-64 14-50Q0-36 0-16L0 336Q0 356 14 370Q28 384 48 384L96 384L96 436Q96 448 108 448L148 448Q160 448 160 436L160 384L288 384L288 436Q288 448 300 448L340 448Q352 448 352 436L352 384L400 384Q420 384 434 370Q448 356 448 336M400-10L400 288L48 288L48-10Q48-16 54-16L394-16Q400-16 400-10Z"  horiz-adv-x="448" vert-adv-y="512"  />

      
      <glyph glyph-name="uniF273" unicode="&#xF273;" d="M312 73L295 56Q286 48 278 56L224 110L170 56Q162 48 153 56L136 73Q128 82 136 90L190 144L136 198Q128 206 136 215L153 232Q162 240 170 232L224 178L278 232Q286 240 295 232L312 215Q320 206 312 198L258 144L312 90Q320 82 312 73M448 336L448-16Q448-36 434-50Q420-64 400-64L48-64Q28-64 14-50Q0-36 0-16L0 336Q0 356 14 370Q28 384 48 384L96 384L96 436Q96 448 108 448L148 448Q160 448 160 436L160 384L288 384L288 436Q288 448 300 448L340 448Q352 448 352 436L352 384L400 384Q420 384 434 370Q448 356 448 336M400-10L400 288L48 288L48-10Q48-16 54-16L394-16Q400-16 400-10Z"  horiz-adv-x="448" vert-adv-y="512"  />

      
      <glyph glyph-name="uniF274" unicode="&#xF274;" d="M400 384Q420 384 434 370Q448 356 448 336L448-16Q448-36 434-50Q420-64 400-64L48-64Q28-64 14-50Q0-36 0-16L0 336Q0 356 14 370Q28 384 48 384L96 384L96 436Q96 448 108 448L148 448Q160 448 160 436L160 384L288 384L288 436Q288 448 300 448L340 448Q352 448 352 436L352 384L400 384M394-16Q400-16 400-10L400 288L48 288L48-10Q48-16 54-16L394-16M341 185L199 43Q190 35 182 44L107 119Q98 128 107 136L130 159Q138 167 147 159L191 114L302 224Q310 233 319 224L341 202Q350 193 341 185Z"  horiz-adv-x="448" vert-adv-y="512"  />

      
      <glyph glyph-name="uniF279" unicode="&#xF279;" d="M560 416Q566 416 571 411.50Q576 407 576 400L576 54Q576 32 556 24L404-29Q394-32 384-32Q374-32 364-29L192 32L22-31Q19-32 16-32Q10-32 5-27.50Q0-23 0-16L0 330Q0 352 20 360L172 413Q182 416 192 416Q202 416 212 413L384 352L554 415Q557 416 560 416M224 358L224 72L352 26L352 312L224 358M48 30L175 77L176 77L176 363L48 319L48 30M528 65L528 354L401 307L400 307L400 21L528 65Z"  horiz-adv-x="576" vert-adv-y="512"  />

      
      <glyph glyph-name="uniF27A" unicode="&#xF27A;" d="M448 448Q474 448 493 429Q512 410 512 384L512 96Q512 70 493 51Q474 32 448 32L304 32L179-62Q176-64 172-64Q160-64 160-52L160 32L64 32Q38 32 19 51Q0 70 0 96L0 384Q0 410 19 429Q38 448 64 448L448 448M464 96L464 384Q464 391 459.50 395.50Q455 400 448 400L64 400Q57 400 52.50 395.50Q48 391 48 384L48 96Q48 89 52.50 84.50Q57 80 64 80L208 80L208 20L275 70L288 80L448 80Q455 80 459.50 84.50Q464 89 464 96Z"  horiz-adv-x="512" vert-adv-y="512"  />

      
      <glyph glyph-name="uniF28B" unicode="&#xF28B;" d="M80.50 367.50Q80.50 367.50 116.75 403.75Q153 440 256 440Q359 440 431.50 367.50Q504 295 504 192Q504 89 431.50 16.50Q359-56 256-56Q153-56 80.50 16.50Q8 89 8 192Q8 295 80.50 367.50M114.50 50.50Q114.50 50.50 143.75 21.25Q173-8 256-8Q339-8 397.50 50.50Q456 109 456 192Q456 275 397.50 333.50Q339 392 256 392Q173 392 114.50 333.50Q56 275 56 192Q56 109 114.50 50.50M352 272L352 112Q352 105 347.50 100.50Q343 96 336 96L288 96Q281 96 276.50 100.50Q272 105 272 112L272 272Q272 279 276.50 283.50Q281 288 288 288L336 288Q343 288 347.50 283.50Q352 279 352 272M240 272L240 112Q240 105 235.50 100.50Q231 96 224 96L176 96Q169 96 164.50 100.50Q160 105 160 112L160 272Q160 279 164.50 283.50Q169 288 176 288L224 288Q231 288 235.50 283.50Q240 279 240 272Z"  horiz-adv-x="512" vert-adv-y="512"  />

      
      <glyph glyph-name="uniF28D" unicode="&#xF28D;" d="M431.50 367.50Q431.50 367.50 467.75 331.25Q504 295 504 192Q504 89 431.50 16.50Q359-56 256-56Q153-56 80.50 16.50Q8 89 8 192Q8 295 80.50 367.50Q153 440 256 440Q359 440 431.50 367.50M114.50 333.50Q114.50 333.50 85.25 304.25Q56 275 56 192Q56 109 114.50 50.50Q173-8 256-8Q339-8 397.50 50.50Q456 109 456 192Q456 275 397.50 333.50Q339 392 256 392Q173 392 114.50 333.50M352 272L352 112Q352 105 347.50 100.50Q343 96 336 96L176 96Q169 96 164.50 100.50Q160 105 160 112L160 272Q160 279 164.50 283.50Q169 288 176 288L336 288Q343 288 347.50 283.50Q352 279 352 272Z"  horiz-adv-x="512" vert-adv-y="512"  />

      
      <glyph glyph-name="uniF2B5" unicode="&#xF2B5;" d="M519 320L640 320L640 64L576 64Q563 64 553.50 73.50Q544 83 544 96L486 96Q483 83 475 73L449 41Q437 26 419.50 21.50Q402 17 385 24Q366 0 336 0Q314 0 295 16Q272-1 242.50 0Q213 1 190 20L105 96L96 96Q96 87 91.50 80Q87 73 80 68.50Q73 64 64 64L0 64L0 320L118 320L166 368Q182 384 205 384L432 384Q455 384 472 368L519 320M36.50 101Q36.50 101 38.75 98.50Q41 96 48 96Q55 96 59.50 101Q64 106 64 112.50Q64 119 59.50 123.50Q55 128 48 128Q41 128 36.50 123.50Q32 119 32 112.50Q32 106 36.50 101M438 103Q443 110 437 115L329 202L320 195Q302 178 279.50 176.50Q257 175 242.50 182.50Q228 190 219 199Q199 221 200 250.50Q201 280 223 301L262 336L205 336Q204 336 202.50 335Q201 334 200 334L138 272L96 272L96 144L124 144L221 56Q233 46 249.50 48Q266 50 276 63L292 82L329 50Q338 43 347 53L377 89L401 70Q407 65 412 71L438 103M544 144L544 272L499 272L438 334Q435 336 432 336L348 336Q333 336 321 325L256 265Q248 259 248 249Q248 239 255 231Q261 224 271.50 224.50Q282 225 289 231L344 282Q356 293 367 281L378 269Q389 257 377 247L364 235L467 152Q471 148 475 144L544 144M580.50 101Q580.50 101 582.75 98.50Q585 96 592 96Q599 96 603.50 101Q608 106 608 112.50Q608 119 603.50 123.50Q599 128 592 128Q585 128 580.50 123.50Q576 119 576 112.50Q576 106 580.50 101Z"  horiz-adv-x="640" vert-adv-y="512"  />

      
      <glyph glyph-name="uniF2B6" unicode="&#xF2B6;" d="M495 283Q512 269 512 246L512-16Q512-36 498-50Q484-64 464-64L48-64Q28-64 14-50Q0-36 0-16L0 247Q0 269 18 284Q58 317 153 392Q156 395 165 402.50Q174 410 180 415Q186 420 196.50 427Q207 434 215.50 438Q224 442 235 445Q246 448 256 448Q266 448 277 445Q288 442 297 438Q306 434 316 426.50Q326 419 332 414.50Q338 410 347 402.50Q356 395 359 392Q459 313 495 283M464-10L464 244Q464 246 462 248Q381 314 329 355Q328 355 314.50 366.50Q301 378 294 383Q287 388 275.50 394Q264 400 256 400Q248 400 236.50 394Q225 388 218 383.50Q211 379 197.50 367Q184 355 183 355Q136 318 50 248Q48 247 48 244L48-10Q48-16 54-16L458-16Q464-16 464-10M432 178Q440 168 430 161Q375 116 359 104Q356 101 347 93.50Q338 86 332 81Q326 76 315.50 69Q305 62 296.50 58Q288 54 277 51Q266 48 256 48Q244 48 231.50 51.50Q219 55 206.50 63Q194 71 187 76Q180 81 167 91.50Q154 102 153 104Q137 116 82 161Q72 168 80 178L95 196Q103 205 112 198Q167 154 183 141Q184 141 197.50 129.50Q211 118 218 113Q225 108 236.50 102Q248 96 256 96Q262 96 268.50 98.50Q275 101 281 104.50Q287 108 294.50 113.50Q302 119 307.50 123Q313 127 319.50 133Q326 139 329 141Q345 154 400 198Q409 205 417 196L432 178Z"  horiz-adv-x="512" vert-adv-y="512"  />

      
      <glyph glyph-name="uniF2B9" unicode="&#xF2B9;" d="M436 288L416 288L416 224L436 224Q448 224 448 212L448 172Q448 160 436 160L416 160L416 96L436 96Q448 96 448 84L448 44Q448 32 436 32L416 32L416-16Q416-36 402-50Q388-64 368-64L48-64Q28-64 14-50Q0-36 0-16L0 400Q0 420 14 434Q28 448 48 448L368 448Q388 448 402 434Q416 420 416 400L416 352L436 352Q448 352 448 340L448 300Q448 288 436 288M368-16L368 400L48 400L48-16L368-16M253 211Q253 211 243.50 201.50Q234 192 208 192Q182 192 163 211Q144 230 144 256Q144 282 163 301Q182 320 208 320Q234 320 253 301Q272 282 272 256Q272 230 253 211M118 64Q109 64 102.50 69.50Q96 75 96 83L96 102Q96 126 115.50 143Q135 160 163 160Q167 160 180 156Q193 152 208 152Q223 152 236 156Q249 160 253 160Q281 160 300.50 143Q320 126 320 102L320 83Q320 75 313.50 69.50Q307 64 298 64L118 64Z"  horiz-adv-x="448" vert-adv-y="512"  />

      
      <glyph glyph-name="uniF2BB" unicode="&#xF2BB;" d="M528 416Q548 416 562 402Q576 388 576 368L576 16Q576-4 562-18Q548-32 528-32L48-32Q28-32 14-18Q0-4 0 16L0 368Q0 388 14 402Q28 416 48 416L528 416M528 16L528 368L48 368L48 16L528 16M253 211Q253 211 243.50 201.50Q234 192 208 192Q182 192 163 211Q144 230 144 256Q144 282 163 301Q182 320 208 320Q234 320 253 301Q272 282 272 256Q272 230 253 211M118 64Q109 64 102.50 69.50Q96 75 96 83L96 102Q96 126 115.50 143Q135 160 163 160Q167 160 180 156Q193 152 208 152Q223 152 236 156Q249 160 253 160Q281 160 300.50 143Q320 126 320 102L320 83Q320 75 313.50 69.50Q307 64 298 64L118 64M360 128Q352 128 352 136L352 152Q352 160 360 160L472 160Q480 160 480 152L480 136Q480 128 472 128L360 128M360 192Q352 192 352 200L352 216Q352 224 360 224L472 224Q480 224 480 216L480 200Q480 192 472 192L360 192M360 256Q352 256 352 264L352 280Q352 288 360 288L472 288Q480 288 480 280L480 264Q480 256 472 256L360 256Z"  horiz-adv-x="576" vert-adv-y="512"  />

      
      <glyph glyph-name="uniF2BD" unicode="&#xF2BD;" d="M180 316Q180 316 194 330Q208 344 248 344Q288 344 316 316Q344 288 344 248Q344 208 316 180Q288 152 248 152Q208 152 180 180Q152 208 152 248Q152 288 180 316M214 214Q214 214 221 207Q228 200 248 200Q268 200 282 214Q296 228 296 248Q296 268 282 282Q268 296 248 296Q228 296 214 282Q200 268 200 248Q200 228 214 214M72.50 367.50Q72.50 367.50 108.75 403.75Q145 440 248 440Q351 440 423.50 367.50Q496 295 496 192Q496 89 423.50 16.50Q351-56 248-56Q145-56 72.50 16.50Q0 89 0 192Q0 295 72.50 367.50M118 40Q174-8 248-8Q322-8 378 40Q354 78 308 80Q278 70 248 70Q219 70 188 80Q143 79 118 40M411 76Q448 128 448 192Q448 275 389.50 333.50Q331 392 248 392Q165 392 106.50 333.50Q48 275 48 192Q48 128 85 76Q126 128 190 128Q193 128 211.50 123Q230 118 248 118Q266 118 284.50 123Q303 128 306 128Q370 128 411 76Z"  horiz-adv-x="496" vert-adv-y="512"  />

      
      <glyph glyph-name="uniF2C1" unicode="&#xF2C1;" d="M336 448Q356 448 370 434Q384 420 384 400L384-16Q384-36 370-50Q356-64 336-64L48-64Q28-64 14-50Q0-36 0-16L0 400Q0 420 14 434Q28 448 48 448L336 448M336-16L336 400L48 400L48-16L336-16M144 336Q137 336 132.50 340.50Q128 345 128 352Q128 359 132.50 363.50Q137 368 144 368L240 368Q247 368 251.50 363.50Q256 359 256 352Q256 345 251.50 340.50Q247 336 240 336L144 336M237 179Q237 179 227.50 169.50Q218 160 192 160Q166 160 147 179Q128 198 128 224Q128 250 147 269Q166 288 192 288Q218 288 237 269Q256 250 256 224Q256 198 237 179M102 32Q93 32 86.50 37.50Q80 43 80 51L80 70Q80 94 99.50 111Q119 128 147 128Q151 128 164 124Q177 120 192 120Q207 120 220 124Q233 128 237 128Q265 128 284.50 111Q304 94 304 70L304 51Q304 43 297.50 37.50Q291 32 282 32L102 32Z"  horiz-adv-x="384" vert-adv-y="512"  />

      
      <glyph glyph-name="uniF2C2" unicode="&#xF2C2;" d="M528 416Q548 416 562 402Q576 388 576 368L576 16Q576-4 562-18Q548-32 528-32L48-32Q28-32 14-18Q0-4 0 16L0 368Q0 388 14 402Q28 416 48 416L528 416M528 16L528 304L48 304L48 16L81 16Q80 20 80 38Q80 62 99.50 79Q119 96 147 96Q151 96 164 92Q177 88 192 88Q207 88 220 92Q233 96 237 96Q265 96 284.50 79Q304 62 304 38Q304 20 303 16L528 16M360 96Q352 96 352 104L352 120Q352 128 360 128L472 128Q480 128 480 120L480 104Q480 96 472 96L360 96M360 160Q352 160 352 168L352 184Q352 192 360 192L472 192Q480 192 480 184L480 168Q480 160 472 160L360 160M360 224Q352 224 352 232L352 248Q352 256 360 256L472 256Q480 256 480 248L480 232Q480 224 472 224L360 224M237 147Q237 147 227.50 137.50Q218 128 192 128Q166 128 147 147Q128 166 128 192Q128 218 147 237Q166 256 192 256Q218 256 237 237Q256 218 256 192Q256 166 237 147Z"  horiz-adv-x="576" vert-adv-y="512"  />

      
      <glyph glyph-name="uniF2D0" unicode="&#xF2D0;" d="M464 416Q484 416 498 402Q512 388 512 368L512 16Q512-4 498-18Q484-32 464-32L48-32Q28-32 14-18Q0-4 0 16L0 368Q0 388 14 402Q28 416 48 416L464 416M464 22L464 256L48 256L48 22Q48 16 54 16L458 16Q464 16 464 22Z"  horiz-adv-x="512" vert-adv-y="512"  />

      
      <glyph glyph-name="uniF2D1" unicode="&#xF2D1;" d="M480-32L32-32Q19-32 9.50-22.50Q0-13 0 0Q0 13 9.50 22.50Q19 32 32 32L480 32Q493 32 502.50 22.50Q512 13 512 0Q512-13 502.50-22.50Q493-32 480-32Z"  horiz-adv-x="512" vert-adv-y="512"  />

      
      <glyph glyph-name="uniF2D2" unicode="&#xF2D2;" d="M464 448Q484 448 498 434Q512 420 512 400L512 80Q512 60 498 46Q484 32 464 32L416 32L416-16Q416-36 402-50Q388-64 368-64L48-64Q28-64 14-50Q0-36 0-16L0 304Q0 324 14 338Q28 352 48 352L96 352L96 400Q96 420 110 434Q124 448 144 448L464 448M368-16L368 192L48 192L48-16L368-16M464 80L464 400L144 400L144 352L368 352Q388 352 402 338Q416 324 416 304L416 80L464 80Z"  horiz-adv-x="512" vert-adv-y="512"  />

      
      <glyph glyph-name="uniF2DC" unicode="&#xF2DC;" d="M440 93Q446 89 447.50 83Q449 77 446 71L438 57Q430 43 416 51L377 74L386 40Q387 35 386 31Q385 27 382 24Q379 21 375 20L360 16Q354 14 348 17.50Q342 21 340 27L319 108L247 150L247 66L306 7Q317-5 306-16L294-27Q283-39 272-27L247-2L247-48Q247-55 242.50-59.50Q238-64 232-64L216-64Q209-64 204.50-59.50Q200-55 200-48L200-2L175-28Q164-39 153-28L142-16Q138-12 138-5Q138 2 142 6L200 66L200 150L128 108L107 27Q105 21 99.50 17.50Q94 14 88 16L73 20Q66 22 63 27.50Q60 33 62 39L71 74L32 51Q26 48 19.50 49.50Q13 51 10 57L2 71Q-6 85 8 93L47 116L13 125Q7 127 3.50 132.50Q0 138 2 145L6 160Q8 167 13.50 170Q19 173 25 172L105 150L177 192L105 234L25 212Q19 211 13.50 214Q8 217 6 224L2 239Q0 246 3.50 251.50Q7 257 13 259L47 268L8 291Q-6 299 2 313L10 327Q18 341 32 333L71 310L62 344Q60 351 63 356.50Q66 362 73 364L88 368Q94 370 100 366.50Q106 363 107 357L128 276L200 234L200 318L142 377Q131 389 142 400L154 411Q165 423 176 411L201 386L201 432Q201 439 205.50 443.50Q210 448 216 448L232 448Q239 448 243.50 443.50Q248 439 248 432L248 386L273 412Q284 423 295 412L306 400Q317 389 306 378L248 318L248 234L320 276L341 357Q343 363 348.50 366.50Q354 370 360 368L375 364Q382 362 385 356.50Q388 351 386 345L377 310L417 333Q422 336 428.50 334.50Q435 333 438 327L446 313Q454 299 440 291L401 268L435 259Q441 257 444.50 251.50Q448 246 446 239L442 224Q440 217 434.50 214Q429 211 423 212L343 234L271 192L343 150L423 172Q429 173 434.50 170Q440 167 442 160L446 145Q448 138 444.50 132.50Q441 127 435 125L401 116L440 93Z"  horiz-adv-x="448" vert-adv-y="512"  />

      
      <glyph glyph-name="uniF2ED" unicode="&#xF2ED;" d="M268 32Q256 32 256 44L256 260Q256 272 268 272L292 272Q304 272 304 260L304 44Q304 32 292 32L268 32M432 368Q439 368 443.50 363.50Q448 359 448 352L448 336Q448 329 443.50 324.50Q439 320 432 320L416 320L416-16Q416-36 402-50Q388-64 368-64L80-64Q60-64 46-50Q32-36 32-16L32 320L16 320Q9 320 4.50 324.50Q0 329 0 336L0 352Q0 359 4.50 363.50Q9 368 16 368L98 368L132 425Q146 448 174 448L274 448Q302 448 316 425L350 368L432 368M172 397L154 368L294 368L276 397Q274 400 271 400L177 400Q174 400 172 397M368-16L368 320L80 320L80-16L368-16M156 32Q144 32 144 44L144 260Q144 272 156 272L180 272Q192 272 192 260L192 44Q192 32 180 32L156 32Z"  horiz-adv-x="448" vert-adv-y="512"  />

      
      <glyph glyph-name="uniF302" unicode="&#xF302;" d="M480 32L480 16Q480-4 466-18Q452-32 432-32L48-32Q28-32 14-18Q0-4 0 16L0 272Q0 292 14 306Q28 320 48 320L64 320L64 272L54 272Q48 272 48 266L48 22Q48 16 54 16L426 16Q432 16 432 22L432 32L480 32M522 368L150 368Q144 368 144 362L144 118Q144 112 150 112L522 112Q528 112 528 118L528 362Q528 368 522 368M528 416Q548 416 562 402Q576 388 576 368L576 112Q576 92 562 78Q548 64 528 64L144 64Q124 64 110 78Q96 92 96 112L96 368Q96 388 110 402Q124 416 144 416L528 416M252.50 332.50Q252.50 332.50 258.25 326.75Q264 321 264 304Q264 287 252.50 275.50Q241 264 224 264Q207 264 195.50 275.50Q184 287 184 304Q184 321 195.50 332.50Q207 344 224 344Q241 344 252.50 332.50M192 208L232 248Q240 256 248 248L288 208L392 312Q400 320 408 312L480 240L480 160L192 160L192 208Z"  horiz-adv-x="576" vert-adv-y="512"  />

      
      <glyph glyph-name="uniF328" unicode="&#xF328;" d="M336 384Q356 384 370 370Q384 356 384 336L384-16Q384-36 370-50Q356-64 336-64L48-64Q28-64 14-50Q0-36 0-16L0 336Q0 356 14 370Q28 384 48 384L128 384Q128 410 147 429Q166 448 192 448Q218 448 237 429Q256 410 256 384L336 384M209 401Q209 401 205.50 404.50Q202 408 192 408Q182 408 175 401Q168 394 168 384Q168 374 175 367Q182 360 192 360Q202 360 209 367Q216 374 216 384Q216 394 209 401M336-10L336 330Q336 336 330 336L288 336L288 300Q288 288 276 288L108 288Q96 288 96 300L96 336L54 336Q48 336 48 330L48-10Q48-16 54-16L330-16Q336-16 336-10Z"  horiz-adv-x="384" vert-adv-y="512"  />

      
      <glyph glyph-name="uniF358" unicode="&#xF358;" d="M80.50 367.50Q80.50 367.50 116.75 403.75Q153 440 256 440Q359 440 431.50 367.50Q504 295 504 192Q504 89 431.50 16.50Q359-56 256-56Q153-56 80.50 16.50Q8 89 8 192Q8 295 80.50 367.50M114.50 50.50Q114.50 50.50 143.75 21.25Q173-8 256-8Q339-8 397.50 50.50Q456 109 456 192Q456 275 397.50 333.50Q339 392 256 392Q173 392 114.50 333.50Q56 275 56 192Q56 109 114.50 50.50M224 308Q224 320 236 320L276 320Q288 320 288 308L288 192L355 192Q363 192 366 184.50Q369 177 364 172L264 72Q256 64 248 72L148 172Q143 177 146 184.50Q149 192 157 192L224 192L224 308Z"  horiz-adv-x="512" vert-adv-y="512"  />

      
      <glyph glyph-name="uniF359" unicode="&#xF359;" d="M80.50 16.50Q80.50 16.50 44.25 52.75Q8 89 8 192Q8 295 80.50 367.50Q153 440 256 440Q359 440 431.50 367.50Q504 295 504 192Q504 89 431.50 16.50Q359-56 256-56Q153-56 80.50 16.50M397.50 50.50Q397.50 50.50 426.75 79.75Q456 109 456 192Q456 275 397.50 333.50Q339 392 256 392Q173 392 114.50 333.50Q56 275 56 192Q56 109 114.50 50.50Q173-8 256-8Q339-8 397.50 50.50M384 212L384 172Q384 160 372 160L256 160L256 93Q256 85 248.50 82Q241 79 236 84L136 184Q128 192 136 200L236 300Q241 305 248.50 302Q256 299 256 291L256 224L372 224Q384 224 384 212Z"  horiz-adv-x="512" vert-adv-y="512"  />

      
      <glyph glyph-name="uniF35A" unicode="&#xF35A;" d="M431.50 367.50Q431.50 367.50 467.75 331.25Q504 295 504 192Q504 89 431.50 16.50Q359-56 256-56Q153-56 80.50 16.50Q8 89 8 192Q8 295 80.50 367.50Q153 440 256 440Q359 440 431.50 367.50M114.50 333.50Q114.50 333.50 85.25 304.25Q56 275 56 192Q56 109 114.50 50.50Q173-8 256-8Q339-8 397.50 50.50Q456 109 456 192Q456 275 397.50 333.50Q339 392 256 392Q173 392 114.50 333.50M128 172L128 212Q128 224 140 224L256 224L256 291Q256 299 263.50 302Q271 305 276 300L376 200Q384 192 376 184L276 84Q271 79 263.50 82Q256 85 256 93L256 160L140 160Q128 160 128 172Z"  horiz-adv-x="512" vert-adv-y="512"  />

      
      <glyph glyph-name="uniF35B" unicode="&#xF35B;" d="M431.50 16.50Q431.50 16.50 395.25-19.75Q359-56 256-56Q153-56 80.50 16.50Q8 89 8 192Q8 295 80.50 367.50Q153 440 256 440Q359 440 431.50 367.50Q504 295 504 192Q504 89 431.50 16.50M397.50 333.50Q397.50 333.50 368.25 362.75Q339 392 256 392Q173 392 114.50 333.50Q56 275 56 192Q56 109 114.50 50.50Q173-8 256-8Q339-8 397.50 50.50Q456 109 456 192Q456 275 397.50 333.50M276 64L236 64Q224 64 224 76L224 192L157 192Q149 192 146 199.50Q143 207 148 212L248 312Q256 320 264 312L364 212Q369 207 366 199.50Q363 192 355 192L288 192L288 76Q288 64 276 64Z"  horiz-adv-x="512" vert-adv-y="512"  />

      
      <glyph glyph-name="uniF3A5" unicode="&#xF3A5;" d="M464 448Q470 448 474 443L574 295Q579 288 573 281L297-60Q294-64 288-64Q282-64 279-60L3 281Q-3 288 2 295L102 443Q105 448 112 448L464 448M445 400L388 400L440 304L508 304L445 400M243 400L191 304L385 304L333 400L243 400M131 400L68 304L136 304L188 400L131 400M88 256L208 96L140 256L88 256M191 256L288 13L385 256L191 256M368 96L488 256L436 256L368 96Z"  horiz-adv-x="576" vert-adv-y="512"  />

      
      <glyph glyph-name="uniF3D1" unicode="&#xF3D1;" d="M252 271Q252 271 266 287.50Q280 304 320 304Q360 304 388 271Q416 238 416 192Q416 146 388 113Q360 80 320 80Q280 80 252 113Q224 146 224 192Q224 238 252 271M360 136L360 152Q360 160 352 160L336 160L336 248Q336 256 328 256L314 256Q307 256 301 252L286 242Q282 239 282 235Q282 233 284 231L292 217Q295 214 299 214Q302 214 304 215L304 160L288 160Q280 160 280 152L280 136Q280 128 288 128L352 128Q360 128 360 136M608 384Q621 384 630.50 374.50Q640 365 640 352L640 32Q640 19 630.50 9.50Q621 0 608 0L32 0Q19 0 9.50 9.50Q0 19 0 32L0 352Q0 365 9.50 374.50Q19 384 32 384L608 384M592 112L592 272Q565 272 546.50 290.50Q528 309 528 336L112 336Q112 309 93.50 290.50Q75 272 48 272L48 112Q75 112 93.50 93.50Q112 75 112 48L528 48Q528 75 546.50 93.50Q565 112 592 112Z"  horiz-adv-x="640" vert-adv-y="512"  />

      
      <glyph glyph-name="uniF410" unicode="&#xF410;" d="M464 416Q484 416 498 402Q512 388 512 368L512 16Q512-4 498-18Q484-32 464-32L48-32Q28-32 14-18Q0-4 0 16L0 368Q0 388 14 402Q28 416 48 416L464 416M464 22L464 362Q464 368 458 368L54 368Q48 368 48 362L48 22Q48 16 54 16L458 16Q464 16 464 22M356 253L295 192L356 131Q365 122 356 114L334 92Q326 83 317 92L256 153L195 92Q186 83 178 92L156 114Q147 122 156 131L217 192L156 253Q147 262 156 270L178 292Q186 301 195 292L256 231L317 292Q326 301 334 292L356 270Q365 262 356 253Z"  horiz-adv-x="512" vert-adv-y="512"  />

      
      <glyph glyph-name="uniF4AD" unicode="&#xF4AD;" d="M121.50 230.50Q121.50 230.50 126.25 235.25Q131 240 144 240Q157 240 166.50 230.50Q176 221 176 208Q176 195 166.50 185.50Q157 176 144 176Q131 176 121.50 185.50Q112 195 112 208Q112 221 121.50 230.50M233.50 230.50Q233.50 230.50 238.25 235.25Q243 240 256 240Q269 240 278.50 230.50Q288 221 288 208Q288 195 278.50 185.50Q269 176 256 176Q243 176 233.50 185.50Q224 195 224 208Q224 221 233.50 230.50M345.50 230.50Q345.50 230.50 350.25 235.25Q355 240 368 240Q381 240 390.50 230.50Q400 221 400 208Q400 195 390.50 185.50Q381 176 368 176Q355 176 345.50 185.50Q336 195 336 208Q336 221 345.50 230.50M75 355Q75 355 112.50 385.50Q150 416 256 416Q362 416 437 355Q512 294 512 208Q512 122 437 61Q362 0 256 0Q209 0 163 14Q98-32 24-32Q8-32 2-17.50Q-4-3 6 8Q8 10 15.50 18.50Q23 27 34.50 45.50Q46 64 53 82Q0 138 0 208Q0 294 75 355M256 48Q342 48 403 95Q464 142 464 208Q464 274 403 321Q342 368 256 368Q170 368 109 321Q48 274 48 208Q48 157 88 115L108 93L98 65Q90 45 78 24Q108 34 135 54L155 67L178 60Q216 48 256 48Z"  horiz-adv-x="512" vert-adv-y="512"  />

      
      <glyph glyph-name="uniF4DA" unicode="&#xF4DA;" d="M72.50 367.50Q72.50 367.50 108.75 403.75Q145 440 248 440Q351 440 423.50 367.50Q496 295 496 192Q496 89 423.50 16.50Q351-56 248-56Q145-56 72.50 16.50Q0 89 0 192Q0 295 72.50 367.50M106.50 50.50Q106.50 50.50 135.75 21.25Q165-8 248-8Q331-8 389.50 50.50Q448 109 448 192Q448 275 389.50 333.50Q331 392 248 392Q165 392 106.50 333.50Q48 275 48 192Q48 109 106.50 50.50M348 144Q348 144 353 144.50Q358 145 365.50 138.50Q373 132 374 122Q375 112 369 105Q322 48 248 48Q174 48 127 105Q121 112 122 122Q123 132 130.50 138.50Q138 145 148 144Q158 143 164 135Q197 96 248 96Q299 96 332 135Q338 143 348 144M190.50 217.50Q190.50 217.50 185.75 212.75Q181 208 168 208Q155 208 145.50 217.50Q136 227 136 240Q136 253 145.50 262.50Q155 272 168 272Q181 272 190.50 262.50Q200 253 200 240Q200 227 190.50 217.50M328 268Q348 268 366.50 256Q385 244 388 226Q389 218 381.50 214Q374 210 368 215L358 224Q347 233 328 233Q309 233 297 224L288 215Q282 210 274.50 214Q267 218 268 226Q270 238 279.50 248Q289 258 302 263Q315 268 328 268Z"  horiz-adv-x="496" vert-adv-y="512"  />

      
      <glyph glyph-name="uniF556" unicode="&#xF556;" d="M72.50 367.50Q72.50 367.50 108.75 403.75Q145 440 248 440Q351 440 423.50 367.50Q496 295 496 192Q496 89 423.50 16.50Q351-56 248-56Q145-56 72.50 16.50Q0 89 0 192Q0 295 72.50 367.50M106.50 50.50Q106.50 50.50 135.75 21.25Q165-8 248-8Q331-8 389.50 50.50Q448 109 448 192Q448 275 389.50 333.50Q331 392 248 392Q165 392 106.50 333.50Q48 275 48 192Q48 109 106.50 50.50M161 95Q195 136 248 136Q301 136 335 95Q341 88 340 78Q339 68 332 62Q324 55 314 56Q304 57 298 65Q279 87 248 87Q217 87 198 65Q192 57 182 56Q172 55 164.50 61.50Q157 68 156 78Q155 88 161 95M200 208Q200 195 190.50 185.50Q181 176 168 176Q155 176 145.50 185.50Q136 195 136 208Q136 216 141 224L113 233Q104 236 99 244.50Q94 253 97 262.50Q100 272 108.50 277Q117 282 127 279L207 255Q216 252 221 243.50Q226 235 223 225Q218 208 200 208M387.50 277Q387.50 277 391.75 274.50Q396 272 399 262.50Q402 253 397 244.50Q392 236 383 233L355 225Q360 216 360 208Q360 195 350.50 185.50Q341 176 328 176Q315 176 305.50 185.50Q296 195 296 208Q278 208 273 225Q271 230 272 234.50Q273 239 275 243Q277 247 280.50 250.50Q284 254 289 255L369 279Q379 282 387.50 277Z"  horiz-adv-x="496" vert-adv-y="512"  />

      
      <glyph glyph-name="uniF567" unicode="&#xF567;" d="M72.50 367.50Q72.50 367.50 108.75 403.75Q145 440 248 440Q351 440 423.50 367.50Q496 295 496 192Q496 89 423.50 16.50Q351-56 248-56Q145-56 72.50 16.50Q0 89 0 192Q0 295 72.50 367.50M106.50 50.50Q106.50 50.50 135.75 21.25Q165-8 248-8Q331-8 389.50 50.50Q448 109 448 192Q448 275 389.50 333.50Q331 392 248 392Q165 392 106.50 333.50Q48 275 48 192Q48 109 106.50 50.50M220 224Q220 224 220 220Q220 216 214 210Q208 204 200 204Q192 204 186 210L168 228L150 210Q144 204 136 204Q128 204 122 210Q116 216 116 224Q116 232 122 238L140 256L122 274Q116 280 116 288Q116 296 122 302Q128 308 136 308Q144 308 150 302L168 284L186 302Q192 308 200 308Q208 308 214 302Q220 296 220 288Q220 280 214 274L196 256L214 238Q220 232 220 224M360 308Q360 308 364 308Q368 308 374 302Q380 296 380 288Q380 280 374 274L356 256L374 238Q380 232 380 224Q380 216 374 210Q368 204 360 204Q352 204 346 210L328 228L310 210Q304 204 296 204Q288 204 282 210Q276 216 276 224Q276 232 282 238L300 256L282 274Q276 280 276 288Q276 296 282 302Q288 308 296 308Q304 308 310 302L328 284L346 302Q352 308 360 308M203 157Q203 157 212.50 166.50Q222 176 248 176Q274 176 293 157Q312 138 312 112Q312 86 293 67Q274 48 248 48Q222 48 203 67Q184 86 184 112Q184 138 203 157Z"  horiz-adv-x="496" vert-adv-y="512"  />

      
      <glyph glyph-name="uniF579" unicode="&#xF579;" d="M72.50 367.50Q72.50 367.50 108.75 403.75Q145 440 248 440Q351 440 423.50 367.50Q496 295 496 192Q496 89 423.50 16.50Q351-56 248-56Q145-56 72.50 16.50Q0 89 0 192Q0 295 72.50 367.50M106.50 50.50Q106.50 50.50 135.75 21.25Q165-8 248-8Q331-8 389.50 50.50Q448 109 448 192Q448 275 389.50 333.50Q331 392 248 392Q165 392 106.50 333.50Q48 275 48 192Q48 109 106.50 50.50M287.50 280.50Q287.50 280.50 299.25 292.25Q311 304 344 304Q377 304 400.50 280.50Q424 257 424 224Q424 191 400.50 167.50Q377 144 344 144Q311 144 287.50 167.50Q264 191 264 224Q264 257 287.50 280.50M310 190Q310 190 317 183Q324 176 344 176Q364 176 378 190Q392 204 392 224Q392 244 378 258Q364 272 344 272Q324 272 310 258Q296 244 296 224Q296 204 310 190M327 241Q327 241 330.50 244.50Q334 248 344 248Q354 248 361 241Q368 234 368 224Q368 214 361 207Q354 200 344 200Q334 200 327 207Q320 214 320 224Q320 234 327 241M208.50 280.50Q208.50 280.50 220.25 268.75Q232 257 232 224Q232 191 208.50 167.50Q185 144 152 144Q119 144 95.50 167.50Q72 191 72 224Q72 257 95.50 280.50Q119 304 152 304Q185 304 208.50 280.50M118 190Q118 190 125 183Q132 176 152 176Q172 176 186 190Q200 204 200 224Q200 244 186 258Q172 272 152 272Q132 272 118 258Q104 244 104 224Q104 204 118 190M135 241Q135 241 138.50 244.50Q142 248 152 248Q162 248 169 241Q176 234 176 224Q176 214 169 207Q162 200 152 200Q142 200 135 207Q128 214 128 224Q128 234 135 241M312 104Q322 104 329 97Q336 90 336 80Q336 70 329 63Q322 56 312 56L184 56Q174 56 167 63Q160 70 160 80Q160 90 167 97Q174 104 184 104L312 104Z"  horiz-adv-x="496" vert-adv-y="512"  />

      
      <glyph glyph-name="uniF57A" unicode="&#xF57A;" d="M72.50 367.50Q72.50 367.50 108.75 403.75Q145 440 248 440Q351 440 423.50 367.50Q496 295 496 192Q496 89 423.50 16.50Q351-56 248-56Q145-56 72.50 16.50Q0 89 0 192Q0 295 72.50 367.50M106.50 50.50Q106.50 50.50 135.75 21.25Q165-8 248-8Q331-8 389.50 50.50Q448 109 448 192Q448 275 389.50 333.50Q331 392 248 392Q165 392 106.50 333.50Q48 275 48 192Q48 109 106.50 50.50M190.50 262.50Q190.50 262.50 195.25 257.75Q200 253 200 240Q200 227 190.50 217.50Q181 208 168 208Q155 208 145.50 217.50Q136 227 136 240Q136 253 145.50 262.50Q155 272 168 272Q181 272 190.50 262.50M305.50 262.50Q305.50 262.50 310.25 267.25Q315 272 328 272Q341 272 350.50 262.50Q360 253 360 240Q360 227 350.50 217.50Q341 208 328 208Q315 208 305.50 217.50Q296 227 296 240Q296 253 305.50 262.50M187.50 143Q187.50 143 202.75 151.50Q218 160 248 160Q278 160 308.50 143Q339 126 344 99Q345 90 338.50 84Q332 78 323 81Q274 96 248 96Q222 96 173 81Q164 78 157.50 84Q151 90 152 99Q157 126 187.50 143Z"  horiz-adv-x="496" vert-adv-y="512"  />

      
      <glyph glyph-name="uniF57F" unicode="&#xF57F;" d="M72.50 367.50Q72.50 367.50 108.75 403.75Q145 440 248 440Q351 440 423.50 367.50Q496 295 496 192Q496 89 423.50 16.50Q351-56 248-56Q145-56 72.50 16.50Q0 89 0 192Q0 295 72.50 367.50M106.50 50.50Q106.50 50.50 135.75 21.25Q165-8 248-8Q331-8 389.50 50.50Q448 109 448 192Q448 275 389.50 333.50Q331 392 248 392Q165 392 106.50 333.50Q48 275 48 192Q48 109 106.50 50.50M190.50 217.50Q190.50 217.50 185.75 212.75Q181 208 168 208Q155 208 145.50 217.50Q136 227 136 240Q136 253 145.50 262.50Q155 272 168 272Q181 272 190.50 262.50Q200 253 200 240Q200 227 190.50 217.50M350.50 217.50Q350.50 217.50 345.75 212.75Q341 208 328 208Q315 208 305.50 217.50Q296 227 296 240Q296 253 305.50 262.50Q315 272 328 272Q341 272 350.50 262.50Q360 253 360 240Q360 227 350.50 217.50M344 192Q364 192 378 178Q392 164 392 144L392 112Q392 92 378 78Q364 64 344 64L152 64Q132 64 118 78Q104 92 104 112L104 144Q104 164 118 178Q132 192 152 192L344 192M176 96L176 120L136 120L136 112Q136 105 140.50 100.50Q145 96 152 96L176 96M176 136L176 160L152 160Q145 160 140.50 155.50Q136 151 136 144L136 136L176 136M240 96L240 120L192 120L192 96L240 96M240 136L240 160L192 160L192 136L240 136M304 96L304 120L256 120L256 96L304 96M304 136L304 160L256 160L256 136L304 136M360 112L360 120L320 120L320 96L344 96Q351 96 355.50 100.50Q360 105 360 112M360 136L360 144Q360 151 355.50 155.50Q351 160 344 160L320 160L320 136L360 136Z"  horiz-adv-x="496" vert-adv-y="512"  />

      
      </font>
</defs>
</svg>
