<?xml version="1.0" standalone="no"?>
  <!DOCTYPE svg PUBLIC "-//W3C//DTD SVG 1.1//EN" "http://www.w3.org/Graphics/SVG/1.1/DTD/svg11.dtd" >
  <svg>
  <metadata>
  Created by font-carrier
  </metadata>
  <defs>
  <font id="FontAwesome5Free-Solid" horiz-adv-x="640" vert-adv-y="640" >
    <font-face
      
      font-family="Font Awesome 5 Free Solid"
      
      font-weight="400"
      
      font-stretch="normal"
      
      units-per-em="512"
      
      ascent="448"
      
      descent="-64"
      
    />
      <missing-glyph />

      
      <glyph glyph-name="x" unicode="&#x78;" horiz-adv-x="100"
        d="M20 20 L50 20 L50 -20 Z" />
      

      
      <glyph glyph-name="uniE005" unicode="&#xE005;" d="M352 192Q418 192 465 145Q512 98 512 32Q512 19 502.50 9.50Q493 0 480 0L416 0Q403 0 393.50 9.50Q384 19 384 32Q384 45 374.50 54.50Q365 64 352 64L339 64Q323 35 292.50 17.50Q262 0 224 0Q186 0 155.50 17.50Q125 35 109 64L16 64Q9 64 4.50 68.50Q0 73 0 80L0 176Q0 183 4.50 187.50Q9 192 16 192L135 192Q158 212 192 220L192 268L224 271L256 268L256 220Q289 212 313 192L352 192M82 288Q75 287 69.50 292Q64 297 64 305L64 335Q64 343 69.50 348Q75 353 82 352L192 340L192 368Q192 375 196.50 379.50Q201 384 208 384L240 384Q247 384 251.50 379.50Q256 375 256 368L256 340L366 352Q373 353 378.50 348Q384 343 384 335L384 305Q384 297 378.50 292Q373 287 366 288L224 303L82 288Z"  horiz-adv-x="512" vert-adv-y="512"  />

      
      <glyph glyph-name="uniE041" unicode="&#xE041;" d="M624 128Q631 128 635.50 123.50Q640 119 640 112L640 80Q640 73 635.50 68.50Q631 64 624 64L286 64Q280 105 249 132.50Q218 160 176 160Q134 160 103 132.50Q72 105 66 64L16 64Q9 64 4.50 68.50Q0 73 0 80L0 368Q0 375 4.50 379.50Q9 384 16 384L528 384Q535 384 539.50 379.50Q544 375 544 368L544 128L624 128M96 204L96 312Q96 320 88 320L72 320Q64 320 64 312L64 184Q79 196 96 204M192 223L192 312Q192 320 184 320L168 320Q160 320 160 312L160 223Q172 224 176 224Q180 224 192 223M288 184L288 312Q288 320 280 320L264 320Q256 320 256 312L256 204Q273 196 288 184M384 128L384 312Q384 320 376 320L360 320Q352 320 352 312L352 128L384 128M480 128L480 312Q480 320 472 320L456 320Q448 320 448 312L448 128L480 128M119.50 104.50Q119.50 104.50 131.25 116.25Q143 128 176 128Q209 128 232.50 104.50Q256 81 256 48Q256 15 232.50-8.50Q209-32 176-32Q143-32 119.50-8.50Q96 15 96 48Q96 81 119.50 104.50M153.50 25.50Q153.50 25.50 158.25 20.75Q163 16 176 16Q189 16 198.50 25.50Q208 35 208 48Q208 61 198.50 70.50Q189 80 176 80Q163 80 153.50 70.50Q144 61 144 48Q144 35 153.50 25.50Z"  horiz-adv-x="640" vert-adv-y="512"  />

      
      <glyph glyph-name="uniE059" unicode="&#xE059;" d="M272 222Q269 220 265 220L265 220Q254 220 249 231L245 240Q245 239 243.50 238.50Q242 238 241 237Q236 234 231 230Q225 224 220 218Q216 214 212 209Q212 208 211 207Q210 206 210 206L219 202Q229 197 229 186Q229 178 224 173Q219 168 211 168Q207 168 204 170L195 174Q192 166 191 158Q188 141 179 127L188 118Q193 113 193 105.50Q193 98 187.50 93Q182 88 175 88Q168 88 162 93L154 102Q133 88 108 88Q108 88 107 88Q106 88 105 88L102 77Q99 64 85 64Q78 64 72.50 69.50Q67 75 67 82Q67 84 68 86L71 97Q47 109 34 133L23 129Q20 129 18 129Q10 129 5 134Q0 139 0 146Q0 160 13 163L24 167Q24 170 24 173Q24 179 25 186Q27 194 33 216L22 220Q10 224 10 236Q10 244 15.50 249Q21 254 28 254Q31 254 34 253L44 249Q54 272 67 293L59 300Q51 305 51 314Q51 320 55 325Q60 332 69 332Q75 332 80 328L88 322Q104 341 123 357L117 366Q113 371 113 377Q113 386 120 391Q125 394 131 394Q140 394 145 387L152 379Q173 393 196 402L192 412Q191 415 191 418Q191 425 196.50 430.50Q202 436 209 436Q222 436 226 424L229 415Q251 421 262 423Q269 424 276 424Q277 424 279 424L282 435Q285 448 299 448Q304 448 308 445.50Q312 443 314.50 439Q317 435 317 430Q317 428 316 426L313 415Q337 403 350 379L361 383Q364 383 366 383Q371 383 375 381Q379 379 381.50 375Q384 371 384 366Q384 353 371 349L359 345Q360 343 360 340Q360 317 348 297L357 288Q363 283 363 275Q363 268 358 262.50Q353 257 346 257Q339 257 334 262L324 271Q308 260 290 257Q284 256 277 254L281 245Q283 242 283 238Q283 226 272 222M105.50 201.50Q105.50 201.50 110.25 196.75Q115 192 128 192Q141 192 150.50 201.50Q160 211 160 224Q160 237 150.50 246.50Q141 256 128 256Q115 256 105.50 246.50Q96 237 96 224Q96 211 105.50 201.50M196.50 292.50Q196.50 292.50 198.75 290.25Q201 288 208 288Q215 288 219.50 292.50Q224 297 224 304Q224 311 219.50 315.50Q215 320 208 320Q201 320 196.50 315.50Q192 311 192 304Q192 297 196.50 292.50M639 243Q640 240 640 238Q640 224 627 221L616 217Q616 214 616 211Q616 205 615 198Q613 190 607 168L618 164Q630 160 630 148Q630 140 624.50 135Q619 130 612 130Q609 130 606 131L596 135Q586 112 573 91L581 84Q589 79 589 70Q589 62 584 57Q579 52 571 52Q565 52 560 56L552 62Q536 43 517 27L523 18Q527 13 527 7Q527-2 520-7Q515-10 509-10Q500-10 495-3L488 5Q467-9 444-18L448-28Q449-31 449-34Q449-42 443.50-47Q438-52 431-52Q418-52 414-40L411-31Q389-37 378-39Q371-40 364-40Q363-40 361-40L358-51Q355-64 341-64Q334-64 328.50-59Q323-54 323-46Q323-44 324-42L327-31Q303-19 290 5L279 1Q276 0 274 0Q266 0 261 5.50Q256 11 256 18Q256 31 269 35L281 39Q280 41 280 44Q280 67 292 87L282 96Q276 101 276 109Q276 116 281.50 121.50Q287 127 294 127Q301 127 306 122L316 113Q332 124 350 127Q356 128 363 130L359 139Q357 142 357 146Q357 158 368 162Q371 164 375 164Q386 164 391 153L395 144Q395 145 396.50 145.50Q398 146 399 147Q404 150 409 154Q415 160 420 166Q424 170 428 175Q428 176 429 177Q430 178 430 178L421 182Q411 187 411 198Q411 206 416 211Q421 216 429 216Q433 216 436 214L445 210Q448 218 449 226Q452 243 461 257L452 266Q447 271 447 278.50Q447 286 452.50 291Q458 296 465 296Q472 296 478 291L486 282Q507 296 532 296Q532 296 533 296Q534 296 535 296L538 307Q542 320 555 320Q562 320 567.50 314.50Q573 309 573 302Q573 300 572 298L569 287Q593 275 606 251L617 255Q620 255 622 255L622 255Q635 255 639 243M393.50 41.50Q393.50 41.50 398.25 36.75Q403 32 416 32Q429 32 438.50 41.50Q448 51 448 64Q448 77 438.50 86.50Q429 96 416 96Q403 96 393.50 86.50Q384 77 384 64Q384 51 393.50 41.50Z"  horiz-adv-x="640" vert-adv-y="512"  />

      
      <glyph glyph-name="uniE05A" unicode="&#xE05A;" d="M511 345Q512 342 512 338Q512 321 495 316L479 311Q479 308 479 304Q479 273 464 247L477 235Q485 228 485 217Q485 207 478 200Q471 193 461.50 193Q452 193 445 200L431 212Q411 198 386 194Q378 192 370 189L375 177Q377 173 377 168Q377 158 370 151Q363 144 353 144Q338 144 332 158L327 170Q326 170 324.50 169Q323 168 322 167Q315 162 309 157Q300 150 293 141Q288 136 283 129Q282 128 281 127L280 125L292 119Q306 113 306 98Q306 88 299 81Q292 74 282 74Q277 74 272 77L260 82Q256 72 254 62Q251 39 238 20L251 8Q257 1 257-8Q257-18 250-25Q243-32 233-32Q223-32 216-25L205-14Q177-32 144-32Q143-32 142-32Q141-32 140-32L136-46Q132-64 113-64Q110-64 107-63Q89-59 89-40Q89-37 90-34L94-20Q62-4 46 28L31 23Q27 22 24 22Q14 22 7 29Q0 36 0 46Q0 63 17 68L32 73Q32 77 32 81Q32 90 33 98Q37 119 43 139L30 143Q13 149 13 166Q13 176 20 183Q27 190 37 190Q41 190 45 188L58 184Q71 214 89 242L78 250Q68 257 68 270Q68 280 75 287Q82 294 91 294Q100 294 106 289L117 281Q138 306 164 328L156 339Q151 345 151 353Q151 365 161 372Q167 376 175 376Q187 376 194 367L202 356Q230 375 260 388L256 400Q255 404 255 408Q255 418 262 425Q269 432 279 432Q295 432 301 416L305 404Q327 411 350 414Q359 416 368 416Q370 416 372 416L376 430Q380 448 399 448Q408 448 415 441Q422 434 422 424Q422 421 422 418L418 404Q450 388 466 357L481 361Q485 362 488 362Q506 362 511 345M126 94Q126 94 133 87Q140 80 160 80Q180 80 194 94Q208 108 208 128Q208 148 194 162Q180 176 160 176Q140 176 126 162Q112 148 112 128Q112 108 126 94M223 223Q223 223 226.50 219.50Q230 216 240 216Q250 216 257 223Q264 230 264 240Q264 250 257 257Q250 264 240 264Q230 264 223 257Q216 250 216 240Q216 230 223 223Z"  horiz-adv-x="512" vert-adv-y="512"  />

      
      <glyph glyph-name="uniE05B" unicode="&#xE05B;" d="M384 160L128 160L64 448L205 448Q228 448 246.50 434.50Q265 421 272 400Q279 379 297.50 365.50Q316 352 338 352L448 352L384 160M0-32L0 32L512 32L512-32Q512-45 502.50-54.50Q493-64 480-64L32-64Q19-64 9.50-54.50Q0-45 0-32M480 224Q493 224 502.50 214.50Q512 205 512 192L512 64L0 64L0 192Q0 205 9.50 214.50Q19 224 32 224L81 224L95 160L80 160Q73 160 68.50 155.50Q64 151 64 144.50Q64 138 68.50 133Q73 128 80 128L432 128Q439 128 443.50 133Q448 138 448 144.50Q448 151 443.50 155.50Q439 160 432 160L418 160L439 224L480 224Z"  horiz-adv-x="512" vert-adv-y="512"  />

      
      <glyph glyph-name="uniE05C" unicode="&#xE05C;" d="M160 272Q153 272 148.50 277Q144 282 144 288L144 352Q144 359 148.50 363.50Q153 368 160 368L224 368L224 432Q224 439 228.50 443.50Q233 448 240 448L304 448Q311 448 315.50 443.50Q320 439 320 432L320 368L384 368Q391 368 395.50 363.50Q400 359 400 352L400 288Q400 284 398 280Q396 276 392 274Q388 272 384 272L320 272L320 208Q320 202 315.50 197Q311 192 304 192L240 192Q233 192 228.50 197Q224 202 224 208L224 272L160 272M568 112Q576 101 576 88Q576 68 560 56L425-44Q397-64 363-64L16-64Q9-64 4.50-59Q0-54 0-48L0 48Q0 55 4.50 59.50Q9 64 16 64L71 64L118 102Q150 128 192 128L352 128Q365 128 374.50 118.50Q384 109 384 96Q384 93 383 91Q383 85 379.50 80Q376 75 371.50 71.50Q367 68 361.50 66Q356 64 350 64L272 64Q265 64 260.50 59.50Q256 55 256 48.50Q256 42 260.50 37Q265 32 272 32L392 32L512 120Q523 128 536 128Q556 128 568 112Z"  horiz-adv-x="576" vert-adv-y="512"  />

      
      <glyph glyph-name="uniE05D" unicode="&#xE05D;" d="M107 277L86 228Q84 224 80 224Q76 224 74 228L53 277L4 298Q2 299 1 300.50Q0 302 0 304Q0 308 4 310L53 331L74 380Q76 384 80 384Q84 384 86 380L107 331L156 310Q160 308 160 304Q160 300 156 298L107 277M471-19L509-35Q496-64 466-64L268-64Q244-64 229-44L104 128Q96 139 96 152Q96 169 107.50 180.50Q119 192 136 192Q156 192 168 175L192 143L192 384Q192 397 201.50 406.50Q211 416 224 416Q237 416 246.50 406.50Q256 397 256 384L256 232Q256 224 264 224L280 224Q288 224 288 232L288 416Q288 429 297.50 438.50Q307 448 320 448Q333 448 342.50 438.50Q352 429 352 416L352 232Q352 224 360 224L376 224Q384 224 384 232L384 384Q384 397 393.50 406.50Q403 416 416 416Q429 416 438.50 406.50Q448 397 448 384L448 232Q448 224 456 224L472 224Q480 224 480 232L480 304Q480 317 489.50 326.50Q499 336 512 336Q525 336 534.50 326.50Q544 317 544 304L544 128Q544 127 544 126Q544 125 544 124Q531 118 525 107L525 106L524 105L509 67L471 52L470 51L469 51Q448 40 448 16Q448-8 469-18L470-19L471-19M350 108Q352 110 352 112.50Q352 115 350 116L320 128L308 158Q306 160 304 160Q302 160 300 158L288 128L258 116Q256 115 256 112.50Q256 110 258 108L288 96L300 66Q302 64 304 64Q306 64 308 66L320 96L350 108M640 16L640 16Q640 12 636 10L587-11L587-11L566-60Q564-64 560-64Q556-64 554-60L533-11L484 10Q480 12 480 16Q480 20 484 22L533 43L554 92Q556 96 560 96Q564 96 566 92L587 43L636 22Q640 20 640 16Z"  horiz-adv-x="640" vert-adv-y="512"  />

      
      <glyph glyph-name="uniE05E" unicode="&#xE05E;" d="M530 238Q530 238 523 231Q516 224 496 224Q476 224 462 238Q448 252 448 272Q448 292 462 306Q476 320 496 320Q516 320 530 306Q544 292 544 272Q544 252 530 238M311 270L295 265L316 331Q319 339 326 344Q333 349 342 348Q351 347 357 340.50Q363 334 363 324Q363 321 362 317L347 269Q338 272 328 272Q320 272 311 270M94 62Q75 72 61.50 88Q48 104 40 124.50Q32 145 32 167L32 280Q32 290 39.50 296.50Q47 303 57 303Q67 303 74 296Q81 289 81 279L83 229L143 419Q145 428 152.50 433Q160 438 169 437Q178 436 184 429Q190 422 190 413Q190 409 189 405L150 283Q150 282 150 281Q150 273 158 273Q164 273 166 279L213 430Q216 439 223.50 444Q231 449 239 448Q245 447 250 444Q255 441 258 435.50Q261 430 261 424Q261 420 260 417L216 279Q216 278 216 277Q216 269 224 269Q230 269 231 274L265 381Q267 386 270.50 390Q274 394 279.50 396.50Q285 399 291 398Q295 398 299 395.50Q303 393 306 390Q309 387 310.50 383Q312 379 312 374Q312 370 311 367L277 259L203 236Q156 220 126 179.50Q96 139 96 88L96 62Q96 62 95 62Q94 62 94 62M519 112Q528 112 535 106.50Q542 101 544 93Q544 90 544 88Q544 78 537 71Q530 64 520 64L360 64Q352 64 352 56Q352 48 360 48L487 48Q496 48 503 42.50Q510 37 512 29Q512 26 512 24Q512 14 505 7Q498 0 488 0L360 0Q352 0 352-8Q352-16 360-16L455-16Q464-16 471-21.50Q478-27 480-35Q480-38 480-40Q480-50 473-57Q466-64 456-64L248-64Q215-64 186-46Q192-32 192-16Q192 13 174 35Q156 57 128 62L128 88Q128 115 139 139Q150 163 169.50 180.50Q189 198 213 206L321 239Q324 240 328 240Q338 240 345 233Q352 226 352 216Q352 198 335 193L288 176L487 176Q496 176 503 170.50Q510 165 512 157Q512 154 512 152Q512 142 505 135Q498 128 488 128L360 128Q352 128 352 120Q352 112 360 112L519 112M438.50 393.50Q438.50 393.50 433.75 388.75Q429 384 416 384Q403 384 393.50 393.50Q384 403 384 416Q384 429 393.50 438.50Q403 448 416 448Q429 448 438.50 438.50Q448 429 448 416Q448 403 438.50 393.50M78 18Q78 18 85 25Q92 32 112 32Q132 32 146 18Q160 4 160-16Q160-36 146-50Q132-64 112-64Q92-64 78-50Q64-36 64-16Q64 4 78 18Z"  horiz-adv-x="576" vert-adv-y="512"  />

      
      <glyph glyph-name="uniE05F" unicode="&#xE05F;" d="M359 252L385 276Q390 281 390 288Q390 295 385.50 299.50Q381 304 374 304Q368 304 363 300L336 275L303 245L634-10Q640-15 640-23Q640-28 637-33L617-58Q612-64 604-64Q599-64 595-61L6 394Q0 399 0 407Q0 412 3 417L23 442Q28 448 36 448Q41 448 45 445L162 354L183 375Q192 384 205 384L289 384L213 315L239 295L327 376Q336 384 349 384L435 384Q448 384 457 375L512 320L624 320Q631 320 635.50 315.50Q640 311 640 304L640 112Q640 106 635.50 101Q631 96 624 96L526 96Q522 119 504 134L359 252M16 320L24 320L406 24L397 14Q386 0 368 0Q355 0 345 8L327 24Q308 0 277 0Q254 0 237 14L146 96L16 96Q9 96 4.50 100.50Q0 105 0 112L0 304Q0 311 4.50 315.50Q9 320 16 320Z"  horiz-adv-x="640" vert-adv-y="512"  />

      
      <glyph glyph-name="uniE060" unicode="&#xE060;" d="M0 320L24 320L96 264L96 96Q96 83 86.50 73.50Q77 64 64 64L0 64L0 320M48 128Q44 128 40 126Q36 124 34 120Q32 116 32 112Q32 105 36.50 100.50Q41 96 48 96Q55 96 59.50 100.50Q64 105 64 112Q64 119 59.50 123.50Q55 128 48 128M128 96L128 239L406 24L397 14Q386 0 368 0Q355 0 345 8L327 24Q308 0 277 0Q254 0 237 14L146 96L128 96M544 320L640 320L640 64L576 64Q569 64 563.50 66.50Q558 69 553.50 73.50Q549 78 546.50 83.50Q544 89 544 96L544 320M580.50 100.50Q580.50 100.50 582.75 98.25Q585 96 592 96Q599 96 603.50 100.50Q608 105 608 112Q608 119 603.50 123.50Q599 128 592 128Q588 128 584 126Q580 124 578 120Q576 116 576 112Q576 105 580.50 100.50M303 245L634-10Q640-15 640-23Q640-28 637-33L617-58Q612-64 604-64Q599-64 595-61L6 394Q0 399 0 407Q0 412 3 417L23 442Q28 448 36 448Q41 448 45 445L162 354L183 375Q192 384 205 384L289 384L213 315L239 295L327 376Q336 384 349 384L435 384Q448 384 457 375L512 320L512 126Q508 131 504 134L358 252L384 276Q389 281 389 288Q389 294 384.50 299Q380 304 373 304Q367 304 363 300L303 245Z"  horiz-adv-x="640" vert-adv-y="512"  />

      
      <glyph glyph-name="uniE061" unicode="&#xE061;" d="M633 151Q633 151 629.50 147.50Q626 144 616 144Q606 144 599 151Q592 158 592 168Q592 178 599 185Q606 192 616 192Q626 192 633 185Q640 178 640 168Q640 158 633 151M535 25Q535 25 538.50 28.50Q542 32 552 32Q562 32 569 25Q576 18 576 8Q576-2 569-9Q562-16 552-16Q542-16 535-9Q528-2 528 8Q528 18 535 25M471 81Q471 81 474.50 84.50Q478 88 488 88Q498 88 505 81Q512 74 512 64Q512 54 505 47Q498 40 488 40Q478 40 471 47Q464 54 464 64Q464 74 471 81M599-23Q599-23 602.50-19.50Q606-16 616-16Q626-16 633-23Q640-30 640-40Q640-50 633-57Q626-64 616-64Q606-64 599-57Q592-50 592-40Q592-30 599-23M599 81Q599 81 602.50 84.50Q606 88 616 88Q626 88 633 81Q640 74 640 64Q640 54 633 47Q626 40 616 40Q606 40 599 47Q592 54 592 64Q592 74 599 81M535 121Q535 121 538.50 124.50Q542 128 552 128Q562 128 569 121Q576 114 576 104Q576 94 569 87Q562 80 552 80Q542 80 535 87Q528 94 528 104Q528 114 535 121M477 173Q480 167 480 160Q480 147 470.50 137.50Q461 128 448 128L416 128L416 96L320 96Q307 96 297.50 86.50Q288 77 288 64Q288 51 297.50 41.50Q307 32 320 32L416 32Q416 6 397-13Q378-32 352-32L288-32L288-64L64-64L64 113Q0 171 0 256Q0 336 56 392Q112 448 192 448L234 448Q269 448 301 437Q333 426 359 406.50Q385 387 404 360Q418 340 444.50 263.50Q471 187 477 173M265.50 233.50Q265.50 233.50 270.25 228.75Q275 224 288 224Q301 224 310.50 233.50Q320 243 320 256Q320 269 310.50 278.50Q301 288 288 288Q275 288 265.50 278.50Q256 269 256 256Q256 243 265.50 233.50Z"  horiz-adv-x="640" vert-adv-y="512"  />

      
      <glyph glyph-name="uniE062" unicode="&#xE062;" d="M454 129L634-10Q640-15 640-23Q640-28 637-33L617-58Q612-64 604-64Q599-64 595-61L6 394Q0 399 0 407Q0 412 3 417L23 442Q28 448 36 448Q41 448 45 445L84 415Q133 448 192 448L234 448Q269 448 301 437Q333 426 359 406.50Q385 387 404 360Q418 340 444.50 263.50Q471 187 477 173Q484 159 476.50 145.50Q469 132 454 129M313 238Q320 247 320 256Q320 269 310.50 278.50Q301 288 288 288Q273 288 264 276L313 238M633 151Q633 151 629.50 147.50Q626 144 616 144Q606 144 599 151Q592 158 592 168Q592 178 599 185Q606 192 616 192Q626 192 633 185Q640 178 640 168Q640 158 633 151M569 87Q569 87 565.50 83.50Q562 80 552 80Q542 80 535 87Q528 94 528 104Q528 114 535 121Q542 128 552 128Q562 128 569 121Q576 114 576 104Q576 94 569 87M297.50 86.50Q297.50 86.50 292.75 81.75Q288 77 288 64Q288 51 297.50 41.50Q307 32 320 32L416 32Q416 6 397-13Q378-32 352-32L288-32L288-64L64-64L64 113Q0 171 0 256Q0 302 21 342L340 96L320 96Q307 96 297.50 86.50M599 81Q599 81 602.50 84.50Q606 88 616 88Q626 88 633 81Q640 74 640 64Q640 54 633 47Q626 40 616 40Q606 40 599 47Q592 54 592 64Q592 74 599 81Z"  horiz-adv-x="640" vert-adv-y="512"  />

      
      <glyph glyph-name="uniE063" unicode="&#xE063;" d="M0 264Q1 278 4 292L224 131L224-64L64-64L64 113Q-3 174 0 264M509 173Q512 167 512 161Q512 160 512 160L239 160L13 324Q35 379 86.50 413.50Q138 448 200 448L266 448Q318 448 362.50 424.50Q407 401 436 360Q447 344 460.50 308.50Q474 273 487.50 232Q501 191 509 173M297.50 233.50Q297.50 233.50 302.25 228.75Q307 224 320 224Q333 224 342.50 233.50Q352 243 352 256Q352 269 342.50 278.50Q333 288 320 288Q307 288 297.50 278.50Q288 269 288 256Q288 243 297.50 233.50M336 80Q329 80 324.50 75.50Q320 71 320 64Q320 57 324.50 52.50Q329 48 336 48L485 48L475 16L336 16Q329 16 324.50 11.50Q320 7 320 0Q320-7 324.50-11.50Q329-16 336-16L464-16L463-20Q456-40 439.50-52Q423-64 402-64L256-64L256 128L512 128L496 80L336 80Z"  horiz-adv-x="512" vert-adv-y="512"  />

      
      <glyph glyph-name="uniE064" unicode="&#xE064;" d="M260.50 203.50Q260.50 203.50 262.75 205.75Q265 208 272 208Q279 208 283.50 203.50Q288 199 288 192Q288 185 283.50 180.50Q279 176 272 176Q265 176 260.50 180.50Q256 185 256 192Q256 199 260.50 203.50M196.50 267.50Q196.50 267.50 198.75 269.75Q201 272 208 272Q215 272 219.50 267.50Q224 263 224 256Q224 249 219.50 244.50Q215 240 208 240Q201 240 196.50 244.50Q192 249 192 256Q192 263 196.50 267.50M509 173Q512 167 512 160Q512 147 502.50 137.50Q493 128 480 128L448 128L448 64Q448 38 429 19Q410 0 384 0L320 0L320-64L64-64L64 113Q0 170 0 256Q0 336 56 392Q112 448 192 448L266 448Q318 448 362.50 424.50Q407 401 436 360Q450 339 476.50 263Q503 187 509 173M368 208Q375 208 379.50 212.50Q384 217 384 224Q384 231 379.50 235.50Q375 240 368 240L356 240Q334 240 326 260Q318 280 333 295L342 303Q347 308 347 314.50Q347 321 342 326Q337 331 330.50 331Q324 331 319 326L311 317Q296 302 276 310Q256 318 256 340L256 352Q256 359 251.50 363.50Q247 368 240 368Q233 368 228.50 363.50Q224 359 224 352L224 340Q224 318 204 310Q184 302 169 317L161 326Q156 331 149.50 331Q143 331 138 326Q133 321 133 314.50Q133 308 138 303L147 295Q162 280 154 260Q146 240 124 240L112 240Q105 240 100.50 235.50Q96 231 96 224Q96 217 100.50 212.50Q105 208 112 208L124 208Q146 208 154 188Q162 168 147 153L138 145Q133 140 133 133.50Q133 127 138 122Q143 117 149.50 117Q156 117 161 122L169 131Q184 146 204 138Q224 130 224 108L224 96Q224 89 228.50 84.50Q233 80 240 80Q247 80 251.50 84.50Q256 89 256 96L256 108Q256 130 276 138Q296 146 311 131L319 122Q324 117 330.50 117Q337 117 342 122Q347 127 347 133.50Q347 140 342 145L333 153Q318 168 326 188Q334 208 356 208L368 208Z"  horiz-adv-x="512" vert-adv-y="512"  />

      
      <glyph glyph-name="uniE065" unicode="&#xE065;" d="M571 212Q575 207 576 200Q575 194 572 189L550 165Q545 161 539 160Q533 161 528 164L512 178L512-32Q512-45 502.50-54.50Q493-64 480-64L96-64Q83-64 73.50-54.50Q64-45 64-32L64 178L48 164Q43 161 38 160Q31 161 26 165L4 189Q0 194 0 200Q0 207 5 212L261 438Q273 448 288 448Q303 448 315 438L416 348L416 400Q416 407 420.50 411.50Q425 416 432 416L496 416Q503 416 507.50 411.50Q512 407 512 400L512 264L571 212M333 253Q333 253 323.50 262.50Q314 272 288 272Q262 272 243 253Q224 234 224 208Q224 182 243 163Q262 144 288 144Q314 144 333 163Q352 182 352 208Q352 234 333 253M400 0Q407 0 411.50 4.50Q416 9 416 16Q416 56 388 84Q360 112 320 112L256 112Q216 112 188 84Q160 56 160 16Q160 9 164.50 4.50Q169 0 176 0L400 0Z"  horiz-adv-x="576" vert-adv-y="512"  />

      
      <glyph glyph-name="uniE066" unicode="&#xE066;" d="M272 160L272 32L96 32Q83 32 73.50 41.50Q64 51 64 64L64 228L42 209Q38 206 33 206Q27 206 22 210L4 232Q0 236 0 241Q0 247 5 252L217 439Q227 448 240.50 448Q254 448 264 439L352 361L352 400Q352 407 356.50 411.50Q361 416 368 416L400 416Q407 416 411.50 411.50Q416 407 416 400L416 304L475 252Q480 247 480 241Q480 236 476 232L470 224L333 224Q306 224 288 203L288 240Q288 247 283.50 251.50Q279 256 272 256L208 256Q201 256 196.50 251.50Q192 247 192 240L192 176Q192 169 196.50 164.50Q201 160 208 160L272 160M629 0Q634 0 637-3Q640-6 640-11L640-21Q640-39 627.50-51.50Q615-64 597-64L299-64Q281-64 268.50-51.50Q256-39 256-21L256-11Q256-6 259-3Q262 0 267 0L304 0L304 160Q304 169 308 176Q312 183 318.50 187.50Q325 192 333 192L563 192Q575 192 583.50 182.50Q592 173 592 160L592 0L629 0M544 0L544 144L352 144L352 0L544 0Z"  horiz-adv-x="640" vert-adv-y="512"  />

      
      <glyph glyph-name="uniE067" unicode="&#xE067;" d="M344 297Q333 304 320 304Q307 304 296 297L296 432Q296 439 300.50 443.50Q305 448 312 448L328 448Q335 448 339.50 443.50Q344 439 344 432L344 297M196 4Q209-11 229-11Q233-11 237-10Q217-36 185-45L125-60Q78-73 39-45.50Q0-18 0 28Q0 43 4 58Q37 181 106 289Q107 291 113 300Q119 309 120 311Q121 313 126.50 320.50Q132 328 134 330Q136 332 141.50 337Q147 342 151 343.50Q155 345 160.50 347.50Q166 350 172.50 351Q179 352 186 352Q215 352 235.50 333Q256 314 256 286L256 259Q244 267 229 267Q209 267 195 253Q181 239 181 219Q181 199 196 185L204 176L192 176Q172 176 158 162Q144 148 144 128Q144 108 158 94Q172 80 192 80L204 80L196 71Q182 57 182 37.50Q182 18 196 4M427 37.50Q427 37.50 427 34.25Q427 31 422 26Q417 21 410.50 21Q404 21 399 26L391 35Q376 50 356 41.50Q336 33 336 12L336 0Q336-7 331.50-11.50Q327-16 320-16Q313-16 308.50-11.50Q304-7 304 0L304 12Q304 33 284 41.50Q264 50 249 35L241 26Q236 21 229.50 21Q223 21 218 26Q213 31 213 37.50Q213 44 218 49L227 57Q242 72 234 92Q226 112 204 112L192 112Q185 112 180.50 116.50Q176 121 176 128Q176 135 180.50 139.50Q185 144 192 144L204 144Q226 144 234 164Q242 184 227 199L218 207Q213 212 213 218.50Q213 225 218 230Q223 235 229.50 235Q236 235 241 230L249 221Q264 206 284 214Q304 222 304 244L304 256Q304 263 308.50 267.50Q313 272 320 272Q327 272 331.50 267.50Q336 263 336 256L336 244Q336 222 356 214Q376 206 391 221L399 230Q404 235 410.50 235Q417 235 422 230Q427 225 427 218.50Q427 212 422 207L413 199Q398 184 406 164Q414 144 436 144L448 144Q455 144 459.50 139.50Q464 135 464 128Q464 121 459.50 116.50Q455 112 448 112L436 112Q414 112 406 92Q398 72 413 57L422 49Q427 44 427 37.50M276.50 148.50Q276.50 148.50 278.75 146.25Q281 144 288 144Q295 144 299.50 148.50Q304 153 304 160Q304 167 299.50 171.50Q295 176 288 176Q281 176 276.50 171.50Q272 167 272 160Q272 153 276.50 148.50M340.50 84.50Q340.50 84.50 342.75 82.25Q345 80 352 80Q359 80 363.50 84.50Q368 89 368 96Q368 103 363.50 107.50Q359 112 352 112Q345 112 340.50 107.50Q336 103 336 96Q336 89 340.50 84.50M636 58Q640 43 640 28Q640-18 601-45.50Q562-73 515-60L455-45Q423-36 403-10Q407-11 411-11Q431-11 445 3Q459 17 459 37Q459 57 444 71L436 80L448 80Q468 80 482 94Q496 108 496 128Q496 148 482 162Q468 176 448 176L436 176L444 185Q459 199 459 218.50Q459 238 444.50 252.50Q430 267 411 267Q396 267 384 259L384 286Q384 314 404.50 333Q425 352 454 352Q461 352 467.50 351Q474 350 479.50 347.50Q485 345 489 343.50Q493 342 498.50 337Q504 332 506 330Q508 328 513.50 320.50Q519 313 520 311Q521 309 527 300Q533 291 534 289Q603 181 636 58Z"  horiz-adv-x="640" vert-adv-y="512"  />

      
      <glyph glyph-name="uniE068" unicode="&#xE068;" d="M141 339Q141 339 131.50 329.50Q122 320 96 320Q70 320 51 339Q32 358 32 384Q32 410 51 429Q70 448 96 448Q122 448 141 429Q160 410 160 384Q160 358 141 339M110 176Q96 163 96 144Q96 125 110 112L160 64L160-32Q160-45 150.50-54.50Q141-64 128-64L64-64Q51-64 41.50-54.50Q32-45 32-32L32 96Q19 96 9.50 105.50Q0 115 0 128L0 224Q0 250 19 269Q38 288 64 288L128 288Q141 288 153 283Q165 278 174 268.50Q183 259 187 248Q187 247 185 246Q183 245 182 244L110 176M525 339Q525 339 515.50 329.50Q506 320 480 320Q454 320 435 339Q416 358 416 384Q416 410 435 429Q454 448 480 448Q506 448 525 429Q544 410 544 384Q544 358 525 339M512 288Q538 288 557 269Q576 250 576 224L576 128Q576 115 566.50 105.50Q557 96 544 96L544-32Q544-45 534.50-54.50Q525-64 512-64L448-64Q435-64 425.50-54.50Q416-45 416-32L416 64L466 112Q480 125 480 144Q480 163 466 176L394 244Q393 245 391 246Q389 247 389 248Q396 266 412 277Q428 288 448 288L512 288M444 153Q448 149 448 144Q448 139 444 135L372 67Q369 64 364 64Q359 64 355.50 67.50Q352 71 352 76L352 112L224 112L224 76Q224 71 220.50 67.50Q217 64 212 64Q207 64 204 67L132 135Q128 139 128 144Q128 149 132 153L204 221Q207 224 212 224Q217 224 220.50 220.50Q224 217 224 212L224 176L352 176L352 212Q352 217 355.50 220.50Q359 224 364 224Q369 224 372 221L444 153Z"  horiz-adv-x="576" vert-adv-y="512"  />

      
      <glyph glyph-name="uniE069" unicode="&#xE069;" d="M32 300Q32 302 32 304Q32 308 34 312L359 61L293-56Q288-64 279-64L213-64Q207-64 202-59.50Q197-55 197-48Q197-46 198-44L247 128L144 128L101 70Q96 64 88 64L48 64Q41 64 36.50 68.50Q32 73 32 80Q32 82 32 84L64 192L32 300M634-10Q640-15 640-23Q640-28 637-33L617-58Q612-64 604-64Q599-64 595-61L6 394Q0 399 0 407Q0 412 3 417L23 442Q28 448 36 448Q41 448 45 445L235 298L198 428Q197 430 197 432Q197 439 202 443.50Q207 448 213 448L279 448Q288 448 293 440L398 256L512 256Q542 256 575 236.50Q608 217 608 192Q608 167 575 147.50Q542 128 512 128L455 128L634-10Z"  horiz-adv-x="640" vert-adv-y="512"  />

      
      <glyph glyph-name="uniE06A" unicode="&#xE06A;" d="M236 288Q248 288 259 283.50Q270 279 278.50 271.50Q287 264 292.50 253Q298 242 299 230L320 6Q320 3 320 0Q320-17 311.50-32Q303-47 288-55.50Q273-64 256-64L64-64Q37-64 18.50-45Q0-26 0 0Q0 3 0 6L21 230Q23 255 41 271.50Q59 288 84 288L236 288M240 115L240 142Q240 147 236 151Q232 155 227 155L187 155L187 195Q187 200 183 204Q179 208 173 208L147 208Q141 208 137 204Q133 200 133 195L133 155L93 155Q88 155 84 151Q80 147 80 142L80 115Q80 109 84 105.50Q88 102 93 102L133 102L133 62Q133 56 137 52Q141 48 147 48L173 48Q177 48 180 50Q183 52 185 55Q187 58 187 62L187 102L227 102Q232 102 236 105.50Q240 109 240 115M379 354Q384 349 384 342.50Q384 336 379 331L357 309Q352 304 345.50 304Q339 304 334 309L291 352L224 352L224 320L96 320L96 416Q96 429 105.50 438.50Q115 448 128 448L192 448Q205 448 214.50 438.50Q224 429 224 416L291 416Q317 416 336 397L379 354Z"  horiz-adv-x="384" vert-adv-y="512"  />

      
      <glyph glyph-name="uniE06B" unicode="&#xE06B;" d="M236 288Q261 288 279 271Q297 254 299 230L320 6Q320 3 320 0Q320-26 301-45Q282-64 256-64L64-64Q38-64 19-45.50Q0-27 0 0Q0 3 0 6L21 230Q21 238 24 245.50Q27 253 31 259.50Q35 266 41 271Q47 276 53.50 280Q60 284 68 286Q76 288 84 288L236 288M160 32Q185 32 202.50 49Q220 66 220 91Q220 119 168 188Q165 192 160 192Q155 192 152 188Q100 118 100 91Q100 79 105 68Q110 57 118 49Q126 41 137 36.50Q148 32 160 32M379 354Q384 349 384 342.50Q384 336 379 331L357 309Q352 304 345.50 304Q339 304 334 309L291 352L224 352L224 320L96 320L96 416Q96 429 105.50 438.50Q115 448 128 448L192 448Q205 448 214.50 438.50Q224 429 224 416L291 416Q317 416 336 397L379 354Z"  horiz-adv-x="384" vert-adv-y="512"  />

      
      <glyph glyph-name="uniE06C" unicode="&#xE06C;" d="M212.50 251.50Q212.50 251.50 214.75 253.75Q217 256 224 256Q231 256 235.50 251.50Q240 247 240 240Q240 233 235.50 228.50Q231 224 224 224Q217 224 212.50 228.50Q208 233 208 240Q208 247 212.50 251.50M466 364Q496 352 496 320Q496 267 485.50 218Q475 169 457.50 131Q440 93 417.50 60.50Q395 28 369.50 4.50Q344-19 320.50-35Q297-51 274-60Q266-64 256-64Q246-64 238-60Q196-43 157.50-9.50Q119 24 87 71.50Q55 119 35.50 184Q16 249 16 320Q16 335 24 347Q32 359 46 364L238 444Q247 448 256 448Q266 448 274 444L466 364M384 192Q391 192 395.50 196.50Q400 201 400 208Q400 215 395.50 219.50Q391 224 384 224L372 224Q350 224 342 244Q334 264 349 279L358 287Q363 292 363 298.50Q363 305 358 310Q353 315 346.50 315Q340 315 335 310L327 301Q312 286 292 294Q272 302 272 324L272 336Q272 343 267.50 347.50Q263 352 256 352Q249 352 244.50 347.50Q240 343 240 336L240 324Q240 302 220 294Q200 286 185 301L177 310Q172 315 165.50 315Q159 315 154 310Q149 305 149 298.50Q149 292 154 287L163 279Q178 264 170 244Q162 224 140 224L128 224Q121 224 116.50 219.50Q112 215 112 208Q112 201 116.50 196.50Q121 192 128 192L140 192Q162 192 170 172Q178 152 163 137L154 129Q149 124 149 117.50Q149 111 154 106Q159 101 165.50 101Q172 101 177 106L185 115Q200 130 220 122Q240 114 240 92L240 80Q240 73 244.50 68.50Q249 64 256 64Q263 64 267.50 68.50Q272 73 272 80L272 92Q272 114 292 122Q312 130 327 115L335 106Q340 101 347 101Q350 101 353 102.50Q356 104 358 106Q360 108 361.50 111Q363 114 363 117Q363 124 358 129L349 137Q334 152 342 172Q350 192 372 192L384 192M276.50 187.50Q276.50 187.50 278.75 189.75Q281 192 288 192Q295 192 299.50 187.50Q304 183 304 176Q304 169 299.50 164.50Q295 160 288 160Q281 160 276.50 164.50Q272 169 272 176Q272 183 276.50 187.50Z"  horiz-adv-x="512" vert-adv-y="512"  />

      
      <glyph glyph-name="uniE06D" unicode="&#xE06D;" d="M32 32L32 64L480 64L480 32Q480-8 452-36Q424-64 384-64L128-64Q88-64 60-36Q32-8 32 32M496 160Q503 160 507.50 155.50Q512 151 512 144L512 112Q512 105 507.50 100.50Q503 96 496 96L16 96Q9 96 4.50 100.50Q0 105 0 112L0 144Q0 151 4.50 155.50Q9 160 16 160L112 160L112 192L48 192Q41 192 36.50 196.50Q32 201 32 208L32 224Q32 231 36.50 235.50Q41 240 48 240L128 240Q141 240 150.50 230.50Q160 221 160 208L160 160L224 160L224 348Q224 384 245.50 412Q267 440 301 446Q310 448 320 448Q360 448 388 420Q416 392 416 352L416 336Q416 329 411.50 324.50Q407 320 400 320L368 320Q361 320 356.50 324.50Q352 329 352 336L352 352Q352 365 342.50 374.50Q333 384 320 384Q307 384 297.50 374.50Q288 365 288 352L288 160L352 160L352 208Q352 221 361.50 230.50Q371 240 384 240L464 240Q471 240 475.50 235.50Q480 231 480 224L480 208Q480 201 475.50 196.50Q471 192 464 192L400 192L400 160L496 160Z"  horiz-adv-x="512" vert-adv-y="512"  />

      
      <glyph glyph-name="uniE06E" unicode="&#xE06E;" d="M416 256Q456 256 484 228Q512 200 512 160L512 32Q512-8 484-36Q456-64 416-64L96-64Q56-64 28-36Q0-8 0 32L0 160Q0 200 28 228Q56 256 96 256L224 256Q224 219 249 192L160 192Q120 192 92 164Q64 136 64 96Q64 56 92 28Q120 0 160 0L352 0Q392 0 420 28Q448 56 448 96Q448 126 430.50 151Q413 176 385 186Q416 214 416 256M365 211Q365 211 355.50 201.50Q346 192 320 192Q294 192 275 211Q256 230 256 256Q256 282 275 301Q294 320 320 320Q346 320 365 301Q384 282 384 256Q384 230 365 211M242 366Q242 366 235 359Q228 352 208 352Q188 352 174 366Q160 380 160 400Q160 420 174 434Q188 448 208 448Q228 448 242 434Q256 420 256 400Q256 380 242 366M406.50 393.50Q406.50 393.50 401.75 388.75Q397 384 384 384Q371 384 361.50 393.50Q352 403 352 416Q352 429 361.50 438.50Q371 448 384 448Q397 448 406.50 438.50Q416 429 416 416Q416 403 406.50 393.50M160 160L352 160Q378 160 397 141Q416 122 416 96Q416 70 397 51Q378 32 352 32L160 32Q134 32 115 51Q96 70 96 96Q96 122 115 141Q134 160 160 160Z"  horiz-adv-x="512" vert-adv-y="512"  />

      
      <glyph glyph-name="uniE06F" unicode="&#xE06F;" d="M398 257Q432 206 432 144Q432 57 370-4Q308-65 221-64Q135-63 74.50 1Q14 65 16 150Q18 226 68.50 282Q119 338 192 350L192 384L160 384Q153 384 148.50 388.50Q144 393 144 400L144 432Q144 439 148.50 443.50Q153 448 160 448L288 448Q295 448 299.50 443.50Q304 439 304 432L304 400Q304 393 299.50 388.50Q295 384 288 384L256 384L256 350Q312 341 356 305L380 330Q385 334 391.50 334Q398 334 403 330L426 307Q430 302 430 295.50Q430 289 426 284L399 258L398 257M204 70L155 70Q158 90 182 122Q196 141 201 149Q206 157 211 171.50Q216 186 216 203Q216 264 160 264Q104 264 104 204L104 200Q104 192 112 192L137 192Q145 192 146 200L146 205Q146 228 158 228Q166 228 168 222.50Q170 217 170 203Q170 186 165.50 176Q161 166 143 141Q124 114 115.50 94.50Q107 75 105 50Q105 49 105 48Q105 42 110 37Q115 32 121 32Q121 32 122 32L204 32Q213 32 213 40L213 62Q213 70 204 70M344 96L344 203Q344 232 330 248Q316 264 288 264Q232 264 232 201L232 95Q232 32 287 32Q344 32 344 96M275 206Q275 226 288 226Q301 226 301 207L301 91Q301 70 288 70Q275 70 275 90L275 206Z"  horiz-adv-x="448" vert-adv-y="512"  />

      
      <glyph glyph-name="uniE070" unicode="&#xE070;" d="M18 324L106 256L32 256Q13 256 4 273Q-5 290 6 306L18 324M576 35L634-10Q640-15 640-23Q640-28 637-33L617-58Q612-64 604-64Q599-64 595-61L6 394Q0 399 0 407Q0 412 3 417L23 442Q28 448 36 448Q41 448 45 445L80 418L91 434Q100 448 117 448L523 448Q540 448 549 434L635 306Q645 290 636 273Q627 256 608 256L290 256L331 224L384 224L384 183L512 84L512 224L576 224L576 35M320 64L320 91L384 41L384-32Q384-45 374.50-54.50Q365-64 352-64L96-64Q83-64 73.50-54.50Q64-45 64-32L64 224L128 224L128 64L320 64Z"  horiz-adv-x="640" vert-adv-y="512"  />

      
      <glyph glyph-name="uniE071" unicode="&#xE071;" d="M122 64L348 64L506-64L91-64Q79-64 70-54.50Q61-45 61-32L61 165Q68 162 76 161Q85 160 94 160Q108 160 122 164L122 64M94 192L93 192Q87 192 80 193Q37 199 19 243.50Q1 288 24 328L158 219Q130 192 94 192M602-10Q608-15 608-23Q608-28 605-33L586-58Q582-64 574-64Q569-64 565-61L6 394Q0 399 0 407Q0 412 3 417L22 442Q26 448 34 448Q39 448 43 445L77 417L86 433Q95 448 112 448L496 448Q513 448 522 433L583 329Q608 289 590 244Q572 199 527 193Q521 192 514 192Q472 192 444 225Q416 192 374 192Q361 192 349 196L486 84L486 164Q500 160 514 160Q523 160 532 161Q540 162 547 165L547 35L602-10Z"  horiz-adv-x="640" vert-adv-y="512"  />

      
      <glyph glyph-name="uniE072" unicode="&#xE072;" d="M64 256Q64 271 65 288L381 43Q377 12 359-42Q352-64 329-64L48-64Q44-64 40-62Q36-60 34-56Q32-52 32-48Q32-45 33-43Q36-34 42.50-15Q49 4 50.50 10Q52 16 56 28.50Q60 41 61 47.50Q62 54 63 64Q64 74 64 84L64 256M634-10Q640-15 640-23Q640-28 637-33L617-58Q612-64 604-64Q599-64 595-61L6 394Q0 399 0 407Q0 412 3 417L23 442Q28 448 36 448Q41 448 45 445L99 403Q125 448 160 448L444 448Q416 419 400 368.50Q384 318 384 256L384 183L434 144Q416 195 416 256Q416 336 444 392Q472 448 512 448Q552 448 580 392Q608 336 608 256Q608 187 586.50 135Q565 83 532 69L634-10M489.50 210.50Q489.50 210.50 494.25 201.25Q499 192 512 192Q525 192 534.50 210.50Q544 229 544 256Q544 283 534.50 301.50Q525 320 512 320Q499 320 489.50 301.50Q480 283 480 256Q480 229 489.50 210.50Z"  horiz-adv-x="640" vert-adv-y="512"  />

      
      <glyph glyph-name="uniE073" unicode="&#xE073;" d="M133 236Q116 224 96 224Q69 224 50.50 242.50Q32 261 32 288Q32 299 36 310L133 236M173 173Q153 162 137 145.50Q121 129 111 108Q101 87 98 64L32 64Q19 64 9.50 73.50Q0 83 0 96L0 128Q0 154 19 173Q38 192 64 192L128 192Q154 192 173 173M589 243Q589 243 579.50 233.50Q570 224 544 224Q518 224 499 243Q480 262 480 288Q480 314 499 333Q518 352 544 352Q570 352 589 333Q608 314 608 288Q608 262 589 243M501 93L634-10Q640-15 640-23Q640-28 637-33L617-58Q612-64 604-64Q599-64 595-61L6 394Q0 399 0 407Q0 412 3 417L23 442Q28 448 36 448Q41 448 45 445L209 318Q215 360 246 388Q277 416 320 416Q366 416 399 383Q432 350 432 304Q432 281 423 260Q414 239 398 224Q382 209 361 201L416 158Q435 155 451.50 146Q468 137 480.50 123.50Q493 110 501 93M128 45Q128 89 158 122Q188 155 232 159L477-30Q470-32 464-32L176-32Q156-32 142-18Q128-4 128 16L128 45M576 192Q602 192 621 173Q640 154 640 128L640 96Q640 83 630.50 73.50Q621 64 608 64L542 64Q537 99 517 128Q497 157 467 173Q486 192 512 192L576 192Z"  horiz-adv-x="640" vert-adv-y="512"  />

      
      <glyph glyph-name="uniE074" unicode="&#xE074;" d="M484 220Q496 220 504.50 212Q513 204 513 192Q513 180 504.50 172Q496 164 484 164L462 164Q424 164 409.50 128.50Q395 93 422 66L437 51Q445 43 445 32Q445 20 436.50 11.50Q428 3 416 3Q405 3 397 11L382 26Q355 53 319.50 38.50Q284 24 284-14L284-36Q284-47 276-55.50Q268-64 256-64Q244-64 236-55.50Q228-47 228-36L228-14Q228 24 192.50 38.50Q157 53 130 26L115 11Q107 3 96 3Q84 3 75.50 11.50Q67 20 67 32Q67 43 75 51L90 66Q117 93 102.50 128.50Q88 164 50 164L28 164Q16 164 7.50 172Q-1 180-1 192Q-1 204 7.50 212Q16 220 28 220L50 220Q88 220 102.50 255.50Q117 291 90 318L75 333Q67 341 67 352Q67 364 75.50 372.50Q84 381 96 381Q107 381 115 373L130 358Q157 331 192.50 345.50Q228 360 228 398L228 420Q228 431 236 439.50Q244 448 256 448Q268 448 276 439.50Q284 431 284 420L284 398Q284 360 319.50 345.50Q355 331 382 358L397 373Q405 381 416 381Q428 381 436.50 372.50Q445 364 445 352Q445 341 437 333L422 318Q395 291 409.50 255.50Q424 220 462 220L484 220M190 190Q190 190 197 183Q204 176 224 176Q244 176 258 190Q272 204 272 224Q272 244 258 258Q244 272 224 272Q204 272 190 258Q176 244 176 224Q176 204 190 190M287 127Q287 127 290.50 123.50Q294 120 304 120Q314 120 321 127Q328 134 328 144Q328 154 321 161Q314 168 304 168Q294 168 287 161Q280 154 280 144Q280 134 287 127Z"  horiz-adv-x="512" vert-adv-y="512"  />

      
      <glyph glyph-name="uniE075" unicode="&#xE075;" d="M114 220Q129 221 142 228L387 39Q370 33 359 19Q348 5 348-14L348-36Q348-47 340-55.50Q332-64 320-64Q312-64 305.50-60Q299-56 295.50-49.50Q292-43 292-36L292-14Q292 24 256.50 38.50Q221 53 194 26L179 11L178 10L178 9Q169 1 157 1.50Q145 2 137 11Q129 20 129.50 31.50Q130 43 139 51L154 66Q181 93 166.50 128.50Q152 164 114 164L92 164Q81 164 72.50 172Q64 180 64 192Q64 204 72.50 212Q81 220 92 220L114 220M617-58Q613-63 606.50-64Q600-65 595-61L6 394Q-6 404 3 416L23 442Q33 454 46 445L139 372Q147 381 159 381Q171 381 179 373L194 358Q221 331 256.50 345.50Q292 360 292 398L292 420Q292 431 300 439.50Q308 448 320 448Q332 448 340 439.50Q348 431 348 420L348 398Q348 360 383.50 345.50Q419 331 446 358L461 373Q469 380 480 380Q491 380 499 373Q508 365 508.50 353Q509 341 501 333L486 317Q459 291 473.50 255.50Q488 220 526 220L548 220Q559 220 567.50 212Q576 204 576 192Q576 180 567.50 172Q559 164 548 164L526 164Q511 164 499 157Q487 150 480 139.50Q473 129 471 116L634-10Q646-20 637-32L617-58M335 220Q335 221 335.50 222Q336 223 336 224Q336 244 322 258Q308 272 288 272Q280 272 272 269L335 220Z"  horiz-adv-x="640" vert-adv-y="512"  />

      
      <glyph glyph-name="uniE076" unicode="&#xE076;" d="M624 96Q631 96 635.50 91.50Q640 87 640 80Q640 73 635.50 68.50Q631 64 624 64L612 64Q590 64 582 44Q574 24 589 9L598 1Q603-4 603-10.50Q603-17 598-22Q593-27 586.50-27Q580-27 575-22L567-13Q552 2 532-6Q512-14 512-36L512-48Q512-55 507.50-59.50Q503-64 496-64Q489-64 484.50-59.50Q480-55 480-48L480-36Q480-14 460-6Q440 2 425-13L417-22Q412-27 405.50-27Q399-27 394-22Q389-17 389-10.50Q389-4 394 1L403 9Q418 24 410 44Q402 64 380 64L368 64Q361 64 356.50 68.50Q352 73 352 80Q352 87 356.50 91.50Q361 96 368 96L380 96Q402 96 410 116Q418 136 403 151L394 159Q389 164 389 170.50Q389 177 394 182Q399 187 405.50 187Q412 187 417 182L425 173Q440 158 460 166Q480 174 480 196L480 208Q480 215 484.50 219.50Q489 224 496 224Q503 224 507.50 219.50Q512 215 512 208L512 196Q512 174 532 166Q552 158 567 173L575 182Q580 187 586.50 187Q593 187 598 182Q603 177 603 170.50Q603 164 598 159L589 151Q574 136 582 116Q590 96 612 96L624 96M457.50 73.50Q457.50 73.50 462.25 68.75Q467 64 480 64Q493 64 502.50 73.50Q512 83 512 96Q512 109 502.50 118.50Q493 128 480 128Q467 128 457.50 118.50Q448 109 448 96Q448 83 457.50 73.50M347 235Q318 235 307 208.50Q296 182 316 162L328 150Q334 144 334 135Q334 126 328 120Q322 114 313 114Q304 114 298 120L286 132Q266 152 239.50 141Q213 130 213 101L213 85Q213 77 207 70.50Q201 64 192 64Q183 64 177 70.50Q171 77 171 85L171 101Q171 130 144.50 141Q118 152 98 132L86 120Q80 114 71 114Q62 114 56 120Q50 126 50 135Q50 144 56 150L68 162Q88 182 77 208.50Q66 235 37 235L21 235Q13 235 6.50 241Q0 247 0 256Q0 265 6.50 271Q13 277 21 277L37 277Q66 277 77 303.50Q88 330 68 350L56 362Q50 368 50 376.50Q50 385 56.50 391.50Q63 398 71.50 398Q80 398 86 392L98 380Q118 360 144.50 371Q171 382 171 411L171 427Q171 435 177 441.50Q183 448 192 448Q201 448 207 441.50Q213 435 213 427L213 411Q213 382 239.50 371Q266 360 286 380L298 392Q304 398 312.50 398Q321 398 327.50 391.50Q334 385 334 376.50Q334 368 328 362L316 350Q296 330 307 303.50Q318 277 347 277L363 277Q371 277 377.50 271Q384 265 384 256Q384 247 377.50 241Q371 235 363 235L347 235M137.50 265.50Q137.50 265.50 142.25 260.75Q147 256 160 256Q173 256 182.50 265.50Q192 275 192 288Q192 301 182.50 310.50Q173 320 160 320Q147 320 137.50 310.50Q128 301 128 288Q128 275 137.50 265.50M228.50 228.50Q228.50 228.50 230.75 226.25Q233 224 240 224Q247 224 251.50 228.50Q256 233 256 240Q256 247 251.50 251.50Q247 256 240 256Q233 256 228.50 251.50Q224 247 224 240Q224 233 228.50 228.50Z"  horiz-adv-x="640" vert-adv-y="512"  />

      
      <glyph glyph-name="uniE085" unicode="&#xE085;" d="M437 208Q448 192 448 173L448-32Q448-45 438.50-54.50Q429-64 416-64L224-64L224 160L298 381Q263 362 224 362Q185 362 150 381L207 211L194 170Q192 165 192 160L192-64L32-64Q19-64 9.50-54.50Q0-45 0-32L0 173Q0 192 11 208L64 288L64 416Q64 429 73.50 438.50Q83 448 96 448L128 448Q135 448 141 444L166 427Q192 410 224 410Q256 410 282 427L307 444Q313 448 320 448L352 448Q365 448 374.50 438.50Q384 429 384 416L384 288L437 208M131 77Q136 81 136 87.50Q136 94 131 99Q126 104 119.50 104Q113 104 109 99L61 51Q56 47 56 40Q56 36 58 32Q60 28 64 26Q68 24 72 24Q79 24 83 29L131 77M376 24Q376 24 379.50 24Q383 24 387.50 28.50Q392 33 392 40Q392 47 387 51L339 99Q335 104 328.50 104Q322 104 317 99Q312 94 312 87.50Q312 81 317 77L365 29Q369 24 376 24Z"  horiz-adv-x="448" vert-adv-y="512"  />

      
      <glyph glyph-name="uniE086" unicode="&#xE086;" d="M437 208Q448 192 448 173L448-32Q448-45 438.50-54.50Q429-64 416-64L224-64L224 160L298 381Q263 362 224 362Q185 362 150 381L207 211L194 170Q192 165 192 160L192-64L32-64Q19-64 9.50-54.50Q0-45 0-32L0 173Q0 192 11 208L64 288L64 416Q64 429 73.50 438.50Q83 448 96 448L128 448Q135 448 141 444L166 427Q192 410 224 410Q256 410 282 427L307 444Q313 448 320 448L352 448Q365 448 374.50 438.50Q384 429 384 416L384 288L437 208M64 176L79 160L64 144Q60 141 60 136Q60 133 61.50 130Q63 127 66 125.50Q69 124 72 124Q77 124 80 128L96 143L112 128Q115 124 120 124Q125 124 128.50 127.50Q132 131 132 136Q132 141 128 144L113 160L128 176Q132 179 132 184Q132 189 128.50 192.50Q125 196 120 196Q115 196 112 192L96 177L80 192Q77 196 72 196Q67 196 63.50 192.50Q60 189 60 184Q60 179 64 176M67.50 3.50Q67.50 3.50 73.25-2.25Q79-8 96-8Q113-8 124.50 3.50Q136 15 136 32Q136 49 124.50 60.50Q113 72 96 72Q79 72 67.50 60.50Q56 49 56 32Q56 15 67.50 3.50M359 112Q369 112 376.50 119.50Q384 127 384 137Q384 138 384 139Q383 149 375.50 155Q368 161 358 161L353 161L353 166Q354 176 347.50 183.50Q341 191 331 192Q330 192 329 192Q319 192 311.50 185Q304 178 304 167L304 119Q304 112 311 112L359 112Z"  horiz-adv-x="448" vert-adv-y="512"  />

      
      <glyph glyph-name="uniF000" unicode="&#xF000;" d="M502 390L288 176L288-16L344-16Q361-16 372.50-27.50Q384-39 384-56Q384-64 376-64L136-64Q128-64 128-56Q128-39 139.50-27.50Q151-16 168-16L224-16L224 176L10 390Q-6 406 2.50 427Q11 448 34 448L478 448Q501 448 509.50 427Q518 406 502 390Z"  horiz-adv-x="512" vert-adv-y="512"  />

      
      <glyph glyph-name="uniF001" unicode="&#xF001;" d="M470 446Q475 448 480 448Q493 448 502.50 438.50Q512 429 512 416L512 64Q512 37 484 18.50Q456 0 416 0Q376 0 348 18.50Q320 37 320 64Q320 91 348 109.50Q376 128 416 128Q432 128 448 124L448 309L192 234L192 0Q192-27 164-45.50Q136-64 96-64Q56-64 28-45.50Q0-27 0 0Q0 27 28 45.50Q56 64 96 64Q112 64 128 60L128 321Q128 345 150 352L470 446Z"  horiz-adv-x="512" vert-adv-y="512"  />

      
      <glyph glyph-name="uniF002" unicode="&#xF002;" d="M505 5Q512-2 512-12Q512-22 505-29L477-57Q470-64 460-64Q450-64 443-57L343 43Q336 50 336 60L336 76Q280 32 208 32Q122 32 61 93Q0 154 0 240Q0 326 61 387Q122 448 208 448Q294 448 355 387Q416 326 416 240Q416 168 372 112L388 112Q398 112 405 105L505 5M117.50 149.50Q117.50 149.50 136.25 130.75Q155 112 208 112Q261 112 298.50 149.50Q336 187 336 240Q336 293 298.50 330.50Q261 368 208 368Q155 368 117.50 330.50Q80 293 80 240Q80 187 117.50 149.50Z"  horiz-adv-x="512" vert-adv-y="512"  />

      
      <glyph glyph-name="uniF004" unicode="&#xF004;" d="M462 385Q509 345 512 283Q515 221 472 178L279-22Q269-32 256-32Q243-32 233-22L40 178Q-3 221 0 283Q3 345 50 385Q91 420 144.50 415.50Q198 411 236 372L256 352L276 372Q314 411 367.50 415.50Q421 420 462 385Z"  horiz-adv-x="512" vert-adv-y="512"  />

      
      <glyph glyph-name="uniF005" unicode="&#xF005;" d="M259 430Q268 448 288 448Q308 448 317 430L382 298L528 276Q548 274 554 255Q560 236 546 222L440 119L465-27Q468-46 452-57.50Q436-69 419-60L288 8L157-60Q140-70 124-58Q108-46 111-27L136 119L30 222Q16 236 22 255Q28 274 48 276L194 298L259 430Z"  horiz-adv-x="576" vert-adv-y="512"  />

      
      <glyph glyph-name="uniF007" unicode="&#xF007;" d="M314.50 229.50Q314.50 229.50 295.75 210.75Q277 192 224 192Q171 192 133.50 229.50Q96 267 96 320Q96 373 133.50 410.50Q171 448 224 448Q277 448 314.50 410.50Q352 373 352 320Q352 267 314.50 229.50M314 160Q369 160 408.50 120.50Q448 81 448 26L448-16Q448-36 434-50Q420-64 400-64L48-64Q28-64 14-50Q0-36 0-16L0 26Q0 81 39.50 120.50Q79 160 134 160L151 160Q186 144 224 144Q262 144 297 160L314 160Z"  horiz-adv-x="448" vert-adv-y="512"  />

      
      <glyph glyph-name="uniF008" unicode="&#xF008;" d="M488 384Q498 384 505 377Q512 370 512 360L512 24Q512 14 505 7Q498 0 488 0L480 0L480 20Q480 32 468 32L428 32Q416 32 416 20L416 0L96 0L96 20Q96 32 84 32L44 32Q32 32 32 20L32 0L24 0Q14 0 7 7Q0 14 0 24L0 360Q0 370 7 377Q14 384 24 384L32 384L32 364Q32 352 44 352L84 352Q96 352 96 364L96 384L416 384L416 364Q416 352 428 352L468 352Q480 352 480 364L480 384L488 384M96 76L96 116Q96 128 84 128L44 128Q32 128 32 116L32 76Q32 64 44 64L84 64Q96 64 96 76M96 172L96 212Q96 224 84 224L44 224Q32 224 32 212L32 172Q32 160 44 160L84 160Q96 160 96 172M96 268L96 308Q96 320 84 320L44 320Q32 320 32 308L32 268Q32 256 44 256L84 256Q96 256 96 268M368 60L368 156Q368 168 356 168L156 168Q144 168 144 156L144 60Q144 48 156 48L356 48Q368 48 368 60M368 228L368 324Q368 336 356 336L156 336Q144 336 144 324L144 228Q144 216 156 216L356 216Q368 216 368 228M480 76L480 116Q480 128 468 128L428 128Q416 128 416 116L416 76Q416 64 428 64L468 64Q480 64 480 76M480 172L480 212Q480 224 468 224L428 224Q416 224 416 212L416 172Q416 160 428 160L468 160Q480 160 480 172M480 268L480 308Q480 320 468 320L428 320Q416 320 416 308L416 268Q416 256 428 256L468 256Q480 256 480 268Z"  horiz-adv-x="512" vert-adv-y="512"  />

      
      <glyph glyph-name="uniF009" unicode="&#xF009;" d="M296 416L488 416Q498 416 505 409Q512 402 512 392L512 232Q512 222 505 215Q498 208 488 208L296 208Q286 208 279 215Q272 222 272 232L272 392Q272 402 279 409Q286 416 296 416M216 416Q226 416 233 409Q240 402 240 392L240 232Q240 222 233 215Q226 208 216 208L24 208Q14 208 7 215Q0 222 0 232L0 392Q0 402 7 409Q14 416 24 416L216 416M0 152Q0 162 7 169Q14 176 24 176L216 176Q226 176 233 169Q240 162 240 152L240-8Q240-18 233-25Q226-32 216-32L24-32Q14-32 7-25Q0-18 0-8L0 152M296-32Q286-32 279-25Q272-18 272-8L272 152Q272 162 279 169Q286 176 296 176L488 176Q498 176 505 169Q512 162 512 152L512-8Q512-18 505-25Q498-32 488-32L296-32Z"  horiz-adv-x="512" vert-adv-y="512"  />

      
      <glyph glyph-name="uniF00A" unicode="&#xF00A;" d="M149 392L149 312Q149 302 142 295Q135 288 125 288L24 288Q14 288 7 295Q0 302 0 312L0 392Q0 402 7 409Q14 416 24 416L125 416Q135 416 142 409Q149 402 149 392M331 152Q331 145 327.50 139.50Q324 134 318.50 131Q313 128 307 128L205 128Q195 128 188 135Q181 142 181 152L181 232Q181 242 188 249Q195 256 205 256L307 256Q317 256 324 249Q331 242 331 232L331 152M363 392Q363 402 370 409Q377 416 387 416L488 416Q498 416 505 409Q512 402 512 392L512 312Q512 302 505 295Q498 288 488 288L387 288Q377 288 370 295Q363 302 363 312L363 392M331 312Q331 307 329 302.50Q327 298 323.50 295Q320 292 316 290Q312 288 307 288L205 288Q195 288 188 295Q181 302 181 312L181 392Q181 402 188 409Q195 416 205 416L307 416Q317 416 324 409Q331 402 331 392L331 312M125 256Q135 256 142 249Q149 242 149 232L149 152Q149 142 142 135Q135 128 125 128L24 128Q14 128 7 135Q0 142 0 152L0 232Q0 242 7 249Q14 256 24 256L125 256M0 72Q0 82 7 89Q14 96 24 96L125 96Q135 96 142 89Q149 82 149 72L149-8Q149-18 142-25Q135-32 125-32L24-32Q14-32 7-25Q0-18 0-8L0 72M387 128Q377 128 370 135Q363 142 363 152L363 232Q363 242 370 249Q377 256 387 256L488 256Q498 256 505 249Q512 242 512 232L512 152Q512 142 505 135Q498 128 488 128L387 128M387-32Q377-32 370-25Q363-18 363-8L363 72Q363 82 370 89Q377 96 387 96L488 96Q498 96 505 89Q512 82 512 72L512-8Q512-18 505-25Q498-32 488-32L387-32M181 72Q181 82 188 89Q195 96 205 96L307 96Q317 96 324 89Q331 82 331 72L331-8Q331-18 324-25Q317-32 307-32L205-32Q195-32 188-25Q181-18 181-8L181 72Z"  horiz-adv-x="512" vert-adv-y="512"  />

      
      <glyph glyph-name="uniF00B" unicode="&#xF00B;" d="M149 232L149 152Q149 142 142 135Q135 128 125 128L24 128Q14 128 7 135Q0 142 0 152L0 232Q0 242 7 249Q14 256 24 256L125 256Q135 256 142 249Q149 242 149 232M0 72Q0 82 7 89Q14 96 24 96L125 96Q135 96 142 89Q149 82 149 72L149-8Q149-18 142-25Q135-32 125-32L24-32Q14-32 7-25Q0-18 0-8L0 72M125 416Q135 416 142 409Q149 402 149 392L149 312Q149 302 142 295Q135 288 125 288L24 288Q14 288 7 295Q0 302 0 312L0 392Q0 402 7 409Q14 416 24 416L125 416M205-32Q195-32 188-25Q181-18 181-8L181 72Q181 82 188 89Q195 96 205 96L488 96Q498 96 505 89Q512 82 512 72L512-8Q512-18 505-25Q498-32 488-32L205-32M181 392Q181 402 188 409Q195 416 205 416L488 416Q498 416 505 409Q512 402 512 392L512 312Q512 302 505 295Q498 288 488 288L205 288Q195 288 188 295Q181 302 181 312L181 392M205 128Q195 128 188 135Q181 142 181 152L181 232Q181 242 188 249Q195 256 205 256L488 256Q498 256 505 249Q512 242 512 232L512 152Q512 142 505 135Q498 128 488 128L205 128Z"  horiz-adv-x="512" vert-adv-y="512"  />

      
      <glyph glyph-name="uniF00C" unicode="&#xF00C;" d="M174 9L7 175Q0 182 0 193Q0 204 7 211L44 247Q51 255 61.50 255Q72 255 80 247L192 135L432 375Q440 383 450.50 383Q461 383 468 375L505 339Q512 332 512 321Q512 310 505 303L210 9Q203 1 192 1Q181 1 174 9Z"  horiz-adv-x="512" vert-adv-y="512"  />

      
      <glyph glyph-name="uniF00D" unicode="&#xF00D;" d="M243 192L343 92Q352 83 352 70Q352 57 343 47L321 25Q311 16 298 16Q285 16 276 25L176 125L76 25Q67 16 54 16Q41 16 31 25L9 47Q0 57 0 70Q0 83 9 92L109 192L9 292Q0 301 0 314Q0 327 9 337L31 359Q41 368 54 368Q67 368 76 359L176 259L276 359Q285 368 298 368Q311 368 321 359L343 337Q352 327 352 314Q352 301 343 292L243 192Z"  horiz-adv-x="352" vert-adv-y="512"  />

      
      <glyph glyph-name="uniF00E" unicode="&#xF00E;" d="M304 256L304 224Q304 212 292 212L236 212L236 156Q236 144 224 144L192 144Q180 144 180 156L180 212L124 212Q112 212 112 224L112 256Q112 268 124 268L180 268L180 324Q180 336 192 336L224 336Q236 336 236 324L236 268L292 268Q304 268 304 256M505-29L477-57Q470-64 460-64Q450-64 443-57L343 43Q336 50 336 60L336 76Q280 32 208 32Q122 32 61 93Q0 154 0 240Q0 326 61 387Q122 448 208 448Q294 448 355 387Q416 326 416 240Q416 168 372 112L388 112Q398 112 405 105L505 5Q512-2 512-12Q512-22 505-29M304 144Q304 144 324 164Q344 184 344 240Q344 296 304 336Q264 376 208 376Q152 376 112 336Q72 296 72 240Q72 184 112 144Q152 104 208 104Q264 104 304 144Z"  horiz-adv-x="512" vert-adv-y="512"  />

      
      <glyph glyph-name="uniF010" unicode="&#xF010;" d="M304 256L304 224Q304 212 292 212L124 212Q112 212 112 224L112 256Q112 268 124 268L292 268Q304 268 304 256M505-29L477-57Q470-64 460-64Q450-64 443-57L343 43Q336 50 336 60L336 76Q280 32 208 32Q122 32 61 93Q0 154 0 240Q0 326 61 387Q122 448 208 448Q294 448 355 387Q416 326 416 240Q416 168 372 112L388 112Q398 112 405 105L505 5Q512-2 512-12Q512-22 505-29M304 144Q304 144 324 164Q344 184 344 240Q344 296 304 336Q264 376 208 376Q152 376 112 336Q72 296 72 240Q72 184 112 144Q152 104 208 104Q264 104 304 144Z"  horiz-adv-x="512" vert-adv-y="512"  />

      
      <glyph glyph-name="uniF011" unicode="&#xF011;" d="M400 394Q448 360 476 306.50Q504 253 504 192Q504 89 431.50 16.50Q359-56 256-56Q189-56 132-23Q75 10 41.50 67Q8 124 8 192Q8 233 21 271Q34 309 57 340Q80 371 112 394Q121 400 131.50 397.50Q142 395 147 386L163 358Q167 350 165 341Q163 332 156 327Q140 315 127.50 300.50Q115 286 106.50 269Q98 252 93 232.50Q88 213 88 192Q88 123 137 73.50Q186 24 256 24Q325 24 374.50 73Q424 122 424 193Q424 232 406 267.50Q388 303 356 327Q349 332 347 341Q345 350 349 358L365 386Q370 395 380.50 397.50Q391 400 400 394M296 184Q296 174 289 167Q282 160 272 160L240 160Q230 160 223 167Q216 174 216 184L216 424Q216 434 223 441Q230 448 240 448L272 448Q282 448 289 441Q296 434 296 424L296 184Z"  horiz-adv-x="512" vert-adv-y="512"  />

      
      <glyph glyph-name="uniF012" unicode="&#xF012;" d="M216 160Q223 160 227.50 155.50Q232 151 232 144L232-48Q232-55 227.50-59.50Q223-64 216-64L168-64Q161-64 156.50-59.50Q152-55 152-48L152 144Q152 151 156.50 155.50Q161 160 168 160L216 160M88 64Q95 64 99.50 59.50Q104 55 104 48L104-48Q104-55 99.50-59.50Q95-64 88-64L40-64Q33-64 28.50-59.50Q24-55 24-48L24 48Q24 55 28.50 59.50Q33 64 40 64L88 64M344 256Q351 256 355.50 251.50Q360 247 360 240L360-48Q360-55 355.50-59.50Q351-64 344-64L296-64Q289-64 284.50-59.50Q280-55 280-48L280 240Q280 247 284.50 251.50Q289 256 296 256L344 256M472 352Q479 352 483.50 347.50Q488 343 488 336L488-48Q488-55 483.50-59.50Q479-64 472-64L424-64Q417-64 412.50-59.50Q408-55 408-48L408 336Q408 343 412.50 347.50Q417 352 424 352L472 352M600 448Q607 448 611.50 443.50Q616 439 616 432L616-48Q616-55 611.50-59.50Q607-64 600-64L552-64Q545-64 540.50-59.50Q536-55 536-48L536 432Q536 439 540.50 443.50Q545 448 552 448L600 448Z"  horiz-adv-x="640" vert-adv-y="512"  />

      
      <glyph glyph-name="uniF013" unicode="&#xF013;" d="M487 132Q496 128 493 118Q476 65 438 24Q432 17 424 21L381 46Q354 23 320 11L320-38Q320-48 311-50Q256-62 202-50Q192-48 192-38L192 11Q158 23 131 46L89 21Q80 17 74 24Q36 65 19 118Q16 127 25 132L67 157Q64 174 64 192Q64 210 67 227L25 252Q16 256 19 266Q36 319 74 360Q80 367 89 362L131 338Q158 361 192 373L192 422Q192 432 201 434Q256 446 311 434Q320 432 320 422L320 373Q354 361 381 338L423 363Q432 367 438 360Q476 319 493 266Q496 256 487 252L445 227Q451 192 445 157L487 132M199.50 135.50Q199.50 135.50 211.25 123.75Q223 112 256 112Q289 112 312.50 135.50Q336 159 336 192Q336 225 312.50 248.50Q289 272 256 272Q223 272 199.50 248.50Q176 225 176 192Q176 159 199.50 135.50Z"  horiz-adv-x="512" vert-adv-y="512"  />

      
      <glyph glyph-name="uniF015" unicode="&#xF015;" d="M280 300Q284 302 288 302Q292 302 296 300L480 148L480-16Q480-23 475.50-27.50Q471-32 464-32L352-32Q345-32 340.50-27Q336-22 336-16L336 80Q336 87 331.50 91.50Q327 96 320 96L256 96Q249 96 244.50 91.50Q240 87 240 80L240-16Q240-20 238-23.50Q236-27 232-29.50Q228-32 224-32L112-32Q105-32 100.50-27.50Q96-23 96-16L96 148L280 300M572 197Q576 193 576 187Q576 183 573 180L548 149Q544 144 539 144Q534 144 531 147L296 341Q292 343 288 343Q284 343 280 341L45 147Q42 144 38 144Q32 144 28 149L3 180Q0 183 0 187Q0 193 4 197L257 405Q271 416 288 416Q305 416 318 405L408 331L408 404Q408 409 411.50 412.50Q415 416 420 416L476 416Q481 416 484.50 412.50Q488 409 488 404L488 265L572 197Z"  horiz-adv-x="576" vert-adv-y="512"  />

      
      <glyph glyph-name="uniF017" unicode="&#xF017;" d="M80.50 367.50Q80.50 367.50 116.75 403.75Q153 440 256 440Q359 440 431.50 367.50Q504 295 504 192Q504 89 431.50 16.50Q359-56 256-56Q153-56 80.50 16.50Q8 89 8 192Q8 295 80.50 367.50M348 127Q352 131 352 137Q352 145 346 150L288 192L288 336Q288 343 283.50 347.50Q279 352 272 352L240 352Q233 352 228.50 347.50Q224 343 224 336L224 180Q224 161 239 149L306 100Q310 96 316 96Q324 96 328 102L348 127Z"  horiz-adv-x="512" vert-adv-y="512"  />

      
      <glyph glyph-name="uniF018" unicode="&#xF018;" d="M573 45Q580 29 571 14.50Q562 0 545 0L349 0L338 98Q338 104 333.50 108Q329 112 322 112L254 112Q250 112 246.50 110Q243 108 240.50 105Q238 102 238 98L227 0L31 0Q14 0 5 14.50Q-4 29 3 45L143 365Q151 384 170 384L268 384L265 361Q265 357 267.50 354.50Q270 352 273 352L303 352Q306 352 308.50 354.50Q311 357 311 361L308 384L406 384Q425 384 433 365L573 45M260 313L256 269Q255 264 258.50 260Q262 256 268 256L308 256Q314 256 317.50 260Q321 264 320 269L316 313Q315 320 308 320L268 320Q261 320 260 313M316 144Q320 144 324 146.50Q328 149 330 153Q332 157 332 162L326 210Q326 216 321.50 220Q317 224 311 224L265 224Q259 224 254.50 220Q250 216 250 210L244 162Q244 157 246 153Q248 149 252 146.50Q256 144 260 144L316 144Z"  horiz-adv-x="576" vert-adv-y="512"  />

      
      <glyph glyph-name="uniF019" unicode="&#xF019;" d="M216 448L296 448Q306 448 313 441Q320 434 320 424L320 256L408 256Q421 256 426 243.50Q431 231 422 222L270 70Q264 64 256 64Q248 64 242 70L90 222Q81 231 86 243.50Q91 256 104 256L192 256L192 424Q192 434 199 441Q206 448 216 448M512 72L512-40Q512-50 505-57Q498-64 488-64L24-64Q14-64 7-57Q0-50 0-40L0 72Q0 82 7 89Q14 96 24 96L171 96L220 47Q235 32 256 32Q277 32 292 47L341 96L488 96Q498 96 505 89Q512 82 512 72M382-30Q382-30 385-27Q388-24 388-16Q388-8 382-2Q376 4 368 4Q360 4 354-2Q348-8 348-16Q348-24 354-30Q360-36 368-36Q376-36 382-30M446-30Q446-30 449-27Q452-24 452-16Q452-8 446-2Q440 4 432 4Q424 4 418-2Q412-8 412-16Q412-24 418-30Q424-36 432-36Q440-36 446-30Z"  horiz-adv-x="512" vert-adv-y="512"  />

      
      <glyph glyph-name="uniF01C" unicode="&#xF01C;" d="M568 204Q576 192 576 177L576 48Q576 28 562 14Q548 0 528 0L48 0Q28 0 14 14Q0 28 0 48L0 177Q0 192 8 204L114 363Q128 384 154 384L422 384Q448 384 462 363L568 204M162 320L77 192L200 192L232 128L344 128L376 192L499 192L414 320L162 320Z"  horiz-adv-x="576" vert-adv-y="512"  />

      
      <glyph glyph-name="uniF01E" unicode="&#xF01E;" d="M500 448Q505 448 508.50 444.50Q512 441 512 436L512 236Q512 231 508.50 227.50Q505 224 500 224L300 224Q295 224 291.50 227.50Q288 231 288 236L288 283Q288 288 291.50 291.50Q295 295 300 295Q300 295 301 295L402 290Q386 314 364 331.50Q342 349 314 358.50Q286 368 256 368Q183 368 131.50 316.50Q80 265 80 192Q80 119 131.50 67.50Q183 16 256 16Q322 16 372 60Q376 63 380 63Q385 63 389 59L423 25Q426 22 426 17Q426 11 422 8Q352-56 256-56Q189-56 131.50-23Q74 10 41 67Q8 124 8 192Q8 294 81 367Q154 440 256 440Q293 440 328.50 429.50Q364 419 393 399.50Q422 380 445 353L441 435Q441 436 441 436Q441 441 444.50 444.50Q448 448 453 448L500 448Z"  horiz-adv-x="512" vert-adv-y="512"  />

      
      <glyph glyph-name="uniF021" unicode="&#xF021;" d="M441 435Q441 436 441 436Q441 441 444.50 444.50Q448 448 453 448L500 448Q512 448 512 436L512 236Q512 231 508.50 227.50Q505 224 500 224L300 224Q295 224 291.50 227.50Q288 231 288 236L288 283Q288 288 291.50 291.50Q295 295 300 295L402 290Q378 326 339.50 347Q301 368 256 368Q194 368 146.50 330Q99 292 85 233Q83 224 73 224L24 224Q19 224 15.50 227.50Q12 231 12 236Q12 237 12 238Q29 325 97.50 382.50Q166 440 256 440Q312 440 361 417Q410 394 445 353L441 435M256 16Q317 16 365 54Q413 92 427 151Q429 160 439 160L488 160Q493 160 496.50 156.50Q500 153 500 148Q500 147 499 146Q483 59 414.50 1.50Q346-56 256-56Q200-56 151-33Q102-10 67 31L71-51Q71-52 71-52Q71-57 67.50-60.50Q64-64 59-64L12-64Q0-64 0-52L0 148Q0 153 3.50 156.50Q7 160 12 160L212 160Q217 160 220.50 156.50Q224 153 224 148L224 101Q224 96 220.50 92.50Q217 89 212 89L110 94Q134 58 172.50 37Q211 16 256 16Z"  horiz-adv-x="512" vert-adv-y="512"  />

      
      <glyph glyph-name="uniF022" unicode="&#xF022;" d="M464-32L48-32Q28-32 14-18Q0-4 0 16L0 368Q0 388 14 402Q28 416 48 416L464 416Q484 416 498 402Q512 388 512 368L512 16Q512-4 498-18Q484-32 464-32M156.50 316.50Q156.50 316.50 150.75 322.25Q145 328 128 328Q111 328 99.50 316.50Q88 305 88 288Q88 271 99.50 259.50Q111 248 128 248Q145 248 156.50 259.50Q168 271 168 288Q168 305 156.50 316.50M156.50 220.50Q156.50 220.50 150.75 226.25Q145 232 128 232Q111 232 99.50 220.50Q88 209 88 192Q88 175 99.50 163.50Q111 152 128 152Q145 152 156.50 163.50Q168 175 168 192Q168 209 156.50 220.50M156.50 124.50Q156.50 124.50 150.75 130.25Q145 136 128 136Q111 136 99.50 124.50Q88 113 88 96Q88 79 99.50 67.50Q111 56 128 56Q145 56 156.50 67.50Q168 79 168 96Q168 113 156.50 124.50M416 272L416 304Q416 316 404 316L204 316Q192 316 192 304L192 272Q192 260 204 260L404 260Q416 260 416 272M416 176L416 208Q416 220 404 220L204 220Q192 220 192 208L192 176Q192 164 204 164L404 164Q416 164 416 176M416 80L416 112Q416 124 404 124L204 124Q192 124 192 112L192 80Q192 68 204 68L404 68Q416 68 416 80Z"  horiz-adv-x="512" vert-adv-y="512"  />

      
      <glyph glyph-name="uniF023" unicode="&#xF023;" d="M400 224Q420 224 434 210Q448 196 448 176L448-16Q448-36 434-50Q420-64 400-64L48-64Q28-64 14-50Q0-36 0-16L0 176Q0 196 14 210Q28 224 48 224L72 224L72 296Q72 359 116.50 403.50Q161 448 224 448Q287 448 331.50 403.50Q376 359 376 296L376 224L400 224M296 224L296 296Q296 326 275 347Q254 368 224 368Q194 368 173 347Q152 326 152 296L152 224L296 224Z"  horiz-adv-x="448" vert-adv-y="512"  />

      
      <glyph glyph-name="uniF024" unicode="&#xF024;" d="M350 349Q398 349 467 381Q482 388 497 379Q512 370 512 352L512 109Q512 92 498 83Q439 42 376 42Q340 42 288 59.50Q236 77 210 77Q148 77 96 54L96-40Q96-50 89-57Q82-64 72-64L56-64Q46-64 39-57Q32-50 32-40L32 346Q8 363 8 392Q8 416 25 432.50Q42 449 66 448Q88 447 103.50 432Q119 417 120 396Q120 394 120 392Q120 382 116 372Q149 384 184.50 384Q220 384 272 366.50Q324 349 350 349Z"  horiz-adv-x="512" vert-adv-y="512"  />

      
      <glyph glyph-name="uniF025" unicode="&#xF025;" d="M75 341Q75 341 112.50 378.50Q150 416 256 416Q362 416 437 341Q512 266 512 160L512 112Q512 92 494 83L480 76Q478 31 445.50-0.50Q413-32 368-32L344-32Q334-32 327-25Q320-18 320-8L320 168Q320 178 327 185Q334 192 344 192L368 192Q415 192 448 158L448 160Q448 239 391.50 295.50Q335 352 256 352Q177 352 120.50 295.50Q64 239 64 160L64 158Q97 192 144 192L168 192Q178 192 185 185Q192 178 192 168L192-8Q192-18 185-25Q178-32 168-32L144-32Q99-32 66.50-0.50Q34 31 32 76L18 83Q0 92 0 112L0 160Q0 266 75 341Z"  horiz-adv-x="512" vert-adv-y="512"  />

      
      <glyph glyph-name="uniF026" unicode="&#xF026;" d="M215 377Q226 388 241 382Q256 376 256 360L256 24Q256 8 241 2Q226-4 215 7L126 96L24 96Q14 96 7 103Q0 110 0 120L0 264Q0 274 7 281Q14 288 24 288L126 288L215 377Z"  horiz-adv-x="256" vert-adv-y="512"  />

      
      <glyph glyph-name="uniF027" unicode="&#xF027;" d="M215 376Q226 387 241 381Q256 375 256 359L256 23Q256 7 241 1Q226-5 215 6L126 95L24 95Q14 95 7 102Q0 109 0 119L0 263Q0 273 7 280Q14 287 24 287L126 287L215 376M338 268Q359 256 371.50 235.50Q384 215 384 191Q384 167 371.50 146.50Q359 126 338 114Q330 109 320 112Q310 115 305.50 123.50Q301 132 303.50 141.50Q306 151 315 156Q336 168 336 191Q336 214 315 226Q306 231 303.50 240.50Q301 250 305.50 258.50Q310 267 320 270Q330 273 338 268Z"  horiz-adv-x="384" vert-adv-y="512"  />

      
      <glyph glyph-name="uniF028" unicode="&#xF028;" d="M215 377Q226 388 241 382Q256 376 256 360L256 24Q256 8 241 2Q226-4 215 7L126 96L24 96Q14 96 7 103Q0 110 0 120L0 264Q0 274 7 281Q14 288 24 288L126 288L215 377M448 428Q508 389 542 326Q576 263 576 192Q576 121 542 58Q508-5 448-44Q440-50 430-47.50Q420-45 414.50-37Q409-29 411-19Q413-9 422-4Q455 18 478.50 48.50Q502 79 515 116Q528 153 528 192Q528 251 499.50 303Q471 355 422 388Q413 393 411 403Q409 413 414.50 421Q420 429 430 431.50Q440 434 448 428M457.50 281.50Q457.50 281.50 468.75 260.75Q480 240 480 192Q480 144 457.50 102.50Q435 61 394 36Q385 30 375.50 32.50Q366 35 361 43Q356 52 358 61.50Q360 71 369 77Q388 89 402.50 107Q417 125 424.50 147Q432 169 432 192Q432 215 424.50 237Q417 259 402.50 277Q388 295 369 307Q360 313 358 322.50Q356 332 361 340.50Q366 349 376 351.50Q386 354 394 348Q435 323 457.50 281.50M338 269Q359 257 371.50 236.50Q384 216 384 192Q384 168 371.50 147.50Q359 127 338 115Q330 110 320 113Q310 116 305.50 124.50Q301 133 303.50 142.50Q306 152 315 157Q336 169 336 192Q336 215 315 227Q306 232 303.50 241.50Q301 251 305.50 259.50Q310 268 320 271Q330 274 338 269Z"  horiz-adv-x="576" vert-adv-y="512"  />

      
      <glyph glyph-name="uniF029" unicode="&#xF029;" d="M0 224L0 416L192 416L192 224L0 224M64 352L64 288L128 288L128 352L64 352M256 416L448 416L448 224L256 224L256 416M384 288L384 352L320 352L320 288L384 288M0-32L0 160L192 160L192-32L0-32M64 96L64 32L128 32L128 96L64 96M416 160L448 160L448 32L352 32L352 64L320 64L320-32L256-32L256 160L352 160L352 128L416 128L416 160M416 0L448 0L448-32L416-32L416 0M352 0L384 0L384-32L352-32L352 0Z"  horiz-adv-x="448" vert-adv-y="512"  />

      
      <glyph glyph-name="uniF02A" unicode="&#xF02A;" d="M0 0L0 384L18 384L18 0L0 0M27 0L27 384L36 384L36 0L27 0M54 0L54 384L63 384L63 0L54 0M99 0L99 384L108 384L108 0L99 0M135 0L135 384L153 384L153 0L135 0M180 0L180 384L189 384L189 0L180 0M198 0L198 384L207 384L207 0L198 0M216 0L216 384L225 384L225 0L216 0M251 0L251 384L269 384L269 0L251 0M296 0L296 384L314 384L314 0L296 0M332 0L332 384L350 384L350 0L332 0M368 0L368 384L386 384L386 0L368 0M395 0L395 384L413 384L413 0L395 0M440 0L440 384L467 384L467 0L440 0M476 0L476 384L485 384L485 0L476 0M494 0L494 384L512 384L512 0L494 0Z"  horiz-adv-x="512" vert-adv-y="512"  />

      
      <glyph glyph-name="uniF02B" unicode="&#xF02B;" d="M0 196L0 400Q0 420 14 434Q28 448 48 448L252 448Q272 448 286 434L498 222Q512 208 512 188Q512 168 498 154L294-50Q280-64 260-64Q240-64 226-50L14 162Q0 176 0 196M146 370Q146 370 139 377Q132 384 112 384Q92 384 78 370Q64 356 64 336Q64 316 78 302Q92 288 112 288Q132 288 146 302Q160 316 160 336Q160 356 146 370Z"  horiz-adv-x="512" vert-adv-y="512"  />

      
      <glyph glyph-name="uniF02C" unicode="&#xF02C;" d="M498 222Q512 208 512 188Q512 168 498 154L294-50Q280-64 260-64Q240-64 226-50L14 162Q0 176 0 196L0 400Q0 420 14 434Q28 448 48 448L252 448Q272 448 286 434L498 222M78 302Q78 302 85 295Q92 288 112 288Q132 288 146 302Q160 316 160 336Q160 356 146 370Q132 384 112 384Q92 384 78 370Q64 356 64 336Q64 316 78 302M626 154L422-50Q408-64 388-64Q368-64 354-50L528 124Q554 151 554 188Q554 225 528 252L331 448L380 448Q400 448 414 434L626 222Q640 208 640 188Q640 168 626 154Z"  horiz-adv-x="640" vert-adv-y="512"  />

      
      <glyph glyph-name="uniF02D" unicode="&#xF02D;" d="M448 88Q448 76 439 69Q436 58 436 32Q436 6 439-5Q448-13 448-24L448-40Q448-50 441-57Q434-64 424-64L96-64Q56-64 28-36Q0-8 0 32L0 352Q0 392 28 420Q56 448 96 448L424 448Q434 448 441 441Q448 434 448 424L448 88M128 314L128 294Q128 288 134 288L346 288Q352 288 352 294L352 314Q352 320 346 320L134 320Q128 320 128 314M128 250L128 230Q128 224 134 224L346 224Q352 224 352 230L352 250Q352 256 346 256L134 256Q128 256 128 250M381 0Q378 32 381 64L96 64Q83 64 73.50 54.50Q64 45 64 32Q64 19 73.50 9.50Q83 0 96 0L381 0Z"  horiz-adv-x="448" vert-adv-y="512"  />

      
      <glyph glyph-name="uniF02E" unicode="&#xF02E;" d="M0-64L0 400Q0 420 14 434Q28 448 48 448L336 448Q356 448 370 434Q384 420 384 400L384-64L192 48L0-64Z"  horiz-adv-x="384" vert-adv-y="512"  />

      
      <glyph glyph-name="uniF02F" unicode="&#xF02F;" d="M448 256Q475 256 493.50 237.50Q512 219 512 192L512 80Q512 73 507.50 68.50Q503 64 496 64L448 64L448-32Q448-45 438.50-54.50Q429-64 416-64L96-64Q83-64 73.50-54.50Q64-45 64-32L64 64L16 64Q9 64 4.50 68.50Q0 73 0 80L0 192Q0 219 18.50 237.50Q37 256 64 256L64 416Q64 429 73.50 438.50Q83 448 96 448L371 448Q384 448 393 439L439 393Q448 384 448 371L448 256M384 0L384 96L128 96L128 0L384 0M384 224L384 320L336 320Q329 320 324.50 324.50Q320 329 320 336L320 384L128 384L128 224L384 224M415 159Q415 159 418.50 155.50Q422 152 432 152Q442 152 449 159Q456 166 456 176Q456 186 449 193Q442 200 432 200Q422 200 415 193Q408 186 408 176Q408 166 415 159Z"  horiz-adv-x="512" vert-adv-y="512"  />

      
      <glyph glyph-name="uniF030" unicode="&#xF030;" d="M512 304L512 16Q512-4 498-18Q484-32 464-32L48-32Q28-32 14-18Q0-4 0 16L0 304Q0 324 14 338Q28 352 48 352L136 352L148 385Q152 394 158.50 401Q165 408 174 412Q183 416 193 416L319 416Q334 416 346 407.50Q358 399 364 385L376 352L464 352Q484 352 498 338Q512 324 512 304M341 75Q341 75 358.50 92.50Q376 110 376 160Q376 210 341 245Q306 280 256 280Q206 280 171 245Q136 210 136 160Q136 110 171 75Q206 40 256 40Q306 40 341 75M318 222Q318 222 331 209Q344 196 344 160Q344 124 318 98Q292 72 256 72Q220 72 194 98Q168 124 168 160Q168 196 194 222Q220 248 256 248Q292 248 318 222Z"  horiz-adv-x="512" vert-adv-y="512"  />

      
      <glyph glyph-name="uniF031" unicode="&#xF031;" d="M432 32Q439 32 443.50 27.50Q448 23 448 16L448-16Q448-23 443.50-27.50Q439-32 432-32L304-32Q297-32 292.50-27.50Q288-23 288-16L288 16Q288 23 292.50 27.50Q297 32 304 32L324 32L300 96L148 96L124 32L144 32Q151 32 155.50 27.50Q160 23 160 16L160-16Q160-23 155.50-27.50Q151-32 144-32L16-32Q9-32 4.50-27.50Q0-23 0-16L0 16Q0 23 4.50 27.50Q9 32 16 32L39 32L170 394Q178 416 200 416L248 416Q270 416 278 394L409 32L432 32M177 176L271 176L224 305L177 176Z"  horiz-adv-x="448" vert-adv-y="512"  />

      
      <glyph glyph-name="uniF032" unicode="&#xF032;" d="M333 210Q360 189 374 157.50Q388 126 384 90Q379 38 338 3Q297-32 243-32L34-32Q27-32 22.50-27.50Q18-23 18-16L18 32Q18 39 22.50 43.50Q27 48 34 48L66 48L66 336L34 336Q27 336 22.50 340.50Q18 345 18 352L18 400Q18 407 22.50 411.50Q27 416 34 416L233 416Q290 416 328 374Q366 332 360 275Q357 239 333 210M146 336L146 240L233 240Q253 240 267 254Q281 268 281 288Q281 308 267 322Q253 336 233 336L146 336M233 48Q257 48 273 64.50Q289 81 289 104Q289 127 273 143.50Q257 160 233 160L146 160L146 48L233 48Z"  horiz-adv-x="384" vert-adv-y="512"  />

      
      <glyph glyph-name="uniF033" unicode="&#xF033;" d="M320 400L320 368Q320 361 315.50 356.50Q311 352 304 352L241 352L161 32L208 32Q215 32 219.50 27.50Q224 23 224 16L224-16Q224-23 219.50-27.50Q215-32 208-32L16-32Q9-32 4.50-27.50Q0-23 0-16L0 16Q0 23 4.50 27.50Q9 32 16 32L79 32L159 352L112 352Q105 352 100.50 356.50Q96 361 96 368L96 400Q96 407 100.50 411.50Q105 416 112 416L304 416Q311 416 315.50 411.50Q320 407 320 400Z"  horiz-adv-x="320" vert-adv-y="512"  />

      
      <glyph glyph-name="uniF034" unicode="&#xF034;" d="M304 416Q311 416 315.50 411.50Q320 407 320 400L320 304Q320 297 315.50 292.50Q311 288 304 288L272 288Q265 288 260.50 292.50Q256 297 256 304L256 336L200 336L200 32L240 32Q247 32 251.50 27.50Q256 23 256 16L256-16Q256-23 251.50-27.50Q247-32 240-32L80-32Q73-32 68.50-27.50Q64-23 64-16L64 16Q64 23 68.50 27.50Q73 32 80 32L120 32L120 336L64 336L64 304Q64 297 59.50 292.50Q55 288 48 288L16 288Q9 288 4.50 292.50Q0 297 0 304L0 400Q0 407 4.50 411.50Q9 416 16 416L304 416M560 80Q571 80 575 70Q579 60 571 53L491-27Q487-32 480-32Q473-32 469-27L389 53Q381 60 385 70Q389 80 400 80L448 80L448 304L400 304Q389 304 385 314Q381 324 389 331L469 411Q473 416 480 416Q487 416 491 411L571 331Q579 324 575 314Q571 304 560 304L512 304L512 80L560 80Z"  horiz-adv-x="576" vert-adv-y="512"  />

      
      <glyph glyph-name="uniF035" unicode="&#xF035;" d="M432 416Q439 416 443.50 411.50Q448 407 448 400L448 320Q448 313 443.50 308.50Q439 304 432 304L400 304Q393 304 388.50 308.50Q384 313 384 320L384 336L264 336L264 224L288 224Q295 224 299.50 219.50Q304 215 304 208L304 176Q304 169 299.50 164.50Q295 160 288 160L160 160Q153 160 148.50 164.50Q144 169 144 176L144 208Q144 215 148.50 219.50Q153 224 160 224L184 224L184 336L64 336L64 320Q64 313 59.50 308.50Q55 304 48 304L16 304Q9 304 4.50 308.50Q0 313 0 320L0 400Q0 407 4.50 411.50Q9 416 16 416L432 416M363 155L443 75Q448 71 448 64Q448 57 443 53L363-27Q356-35 346-31Q336-27 336-16L336 32L112 32L112-16Q112-27 102-31Q92-35 85-27L5 53Q0 57 0 64Q0 71 5 75L85 155Q92 163 102 159Q112 155 112 144L112 96L336 96L336 144Q336 155 346 159Q356 163 363 155Z"  horiz-adv-x="448" vert-adv-y="512"  />

      
      <glyph glyph-name="uniF036" unicode="&#xF036;" d="M13 96Q8 96 4 100Q0 104 0 109L0 147Q0 152 4 156Q8 160 13 160L275 160Q280 160 284 156Q288 152 288 147L288 109Q288 104 284 100Q280 96 275 96L13 96M13 352Q8 352 4 356Q0 360 0 365L0 403Q0 408 4 412Q8 416 13 416L275 416Q280 416 284 412Q288 408 288 403L288 365Q288 360 284 356Q280 352 275 352L13 352M432 288Q439 288 443.50 283.50Q448 279 448 272L448 240Q448 233 443.50 228.50Q439 224 432 224L16 224Q9 224 4.50 228.50Q0 233 0 240L0 272Q0 279 4.50 283.50Q9 288 16 288L432 288M432 32Q439 32 443.50 27.50Q448 23 448 16L448-16Q448-23 443.50-27.50Q439-32 432-32L16-32Q9-32 4.50-27.50Q0-23 0-16L0 16Q0 23 4.50 27.50Q9 32 16 32L432 32Z"  horiz-adv-x="448" vert-adv-y="512"  />

      
      <glyph glyph-name="uniF037" unicode="&#xF037;" d="M432 288Q439 288 443.50 283.50Q448 279 448 272L448 240Q448 233 443.50 228.50Q439 224 432 224L16 224Q9 224 4.50 228.50Q0 233 0 240L0 272Q0 279 4.50 283.50Q9 288 16 288L432 288M432 32Q439 32 443.50 27.50Q448 23 448 16L448-16Q448-23 443.50-27.50Q439-32 432-32L16-32Q9-32 4.50-27.50Q0-23 0-16L0 16Q0 23 4.50 27.50Q9 32 16 32L432 32M108 352Q103 352 99.50 355.50Q96 359 96 364L96 404Q96 409 99.50 412.50Q103 416 108 416L340 416Q345 416 348.50 412.50Q352 409 352 404L352 364Q352 359 348.50 355.50Q345 352 340 352L108 352M340 96L108 96Q103 96 99.50 99.50Q96 103 96 108L96 148Q96 153 99.50 156.50Q103 160 108 160L340 160Q345 160 348.50 156.50Q352 153 352 148L352 108Q352 103 348.50 99.50Q345 96 340 96Z"  horiz-adv-x="448" vert-adv-y="512"  />

      
      <glyph glyph-name="uniF038" unicode="&#xF038;" d="M16 224Q9 224 4.50 228.50Q0 233 0 240L0 272Q0 279 4.50 283.50Q9 288 16 288L432 288Q439 288 443.50 283.50Q448 279 448 272L448 240Q448 233 443.50 228.50Q439 224 432 224L16 224M432 32Q439 32 443.50 27.50Q448 23 448 16L448-16Q448-23 443.50-27.50Q439-32 432-32L16-32Q9-32 4.50-27.50Q0-23 0-16L0 16Q0 23 4.50 27.50Q9 32 16 32L432 32M435 416Q440 416 444 412Q448 408 448 403L448 365Q448 360 444 356Q440 352 435 352L173 352Q168 352 164 356Q160 360 160 365L160 403Q160 408 164 412Q168 416 173 416L435 416M435 160Q440 160 444 156Q448 152 448 147L448 109Q448 104 444 100Q440 96 435 96L173 96Q168 96 164 100Q160 104 160 109L160 147Q160 152 164 156Q168 160 173 160L435 160Z"  horiz-adv-x="448" vert-adv-y="512"  />

      
      <glyph glyph-name="uniF039" unicode="&#xF039;" d="M432 32Q439 32 443.50 27.50Q448 23 448 16L448-16Q448-23 443.50-27.50Q439-32 432-32L16-32Q9-32 4.50-27.50Q0-23 0-16L0 16Q0 23 4.50 27.50Q9 32 16 32L432 32M432 160Q439 160 443.50 155.50Q448 151 448 144L448 112Q448 105 443.50 100.50Q439 96 432 96L16 96Q9 96 4.50 100.50Q0 105 0 112L0 144Q0 151 4.50 155.50Q9 160 16 160L432 160M432 288Q439 288 443.50 283.50Q448 279 448 272L448 240Q448 233 443.50 228.50Q439 224 432 224L16 224Q9 224 4.50 228.50Q0 233 0 240L0 272Q0 279 4.50 283.50Q9 288 16 288L432 288M432 416Q439 416 443.50 411.50Q448 407 448 400L448 368Q448 361 443.50 356.50Q439 352 432 352L16 352Q9 352 4.50 356.50Q0 361 0 368L0 400Q0 407 4.50 411.50Q9 416 16 416L432 416Z"  horiz-adv-x="448" vert-adv-y="512"  />

      
      <glyph glyph-name="uniF03A" unicode="&#xF03A;" d="M80 80Q87 80 91.50 75.50Q96 71 96 64L96 0Q96-7 91.50-11.50Q87-16 80-16L16-16Q9-16 4.50-11.50Q0-7 0 0L0 64Q0 71 4.50 75.50Q9 80 16 80L80 80M80 400Q87 400 91.50 395.50Q96 391 96 384L96 320Q96 313 91.50 308.50Q87 304 80 304L16 304Q9 304 4.50 308.50Q0 313 0 320L0 384Q0 391 4.50 395.50Q9 400 16 400L80 400M80 240Q87 240 91.50 235.50Q96 231 96 224L96 160Q96 153 91.50 148.50Q87 144 80 144L16 144Q9 144 4.50 148.50Q0 153 0 160L0 224Q0 231 4.50 235.50Q9 240 16 240L80 240M496 64Q503 64 507.50 59.50Q512 55 512 48L512 16Q512 9 507.50 4.50Q503 0 496 0L176 0Q169 0 164.50 4.50Q160 9 160 16L160 48Q160 55 164.50 59.50Q169 64 176 64L496 64M496 384Q503 384 507.50 379.50Q512 375 512 368L512 336Q512 329 507.50 324.50Q503 320 496 320L176 320Q169 320 164.50 324.50Q160 329 160 336L160 368Q160 375 164.50 379.50Q169 384 176 384L496 384M496 224Q503 224 507.50 219.50Q512 215 512 208L512 176Q512 169 507.50 164.50Q503 160 496 160L176 160Q169 160 164.50 164.50Q160 169 160 176L160 208Q160 215 164.50 219.50Q169 224 176 224L496 224Z"  horiz-adv-x="512" vert-adv-y="512"  />

      
      <glyph glyph-name="uniF03B" unicode="&#xF03B;" d="M101 85L5 181Q0 185 0 192Q0 199 5 203L101 299Q108 307 118 303Q128 299 128 288L128 96Q128 85 118 81Q108 77 101 85M432 32Q439 32 443.50 27.50Q448 23 448 16L448-16Q448-23 443.50-27.50Q439-32 432-32L16-32Q9-32 4.50-27.50Q0-23 0-16L0 16Q0 23 4.50 27.50Q9 32 16 32L432 32M435 160Q440 160 444 156Q448 152 448 147L448 109Q448 104 444 100Q440 96 435 96L205 96Q200 96 196 100Q192 104 192 109L192 147Q192 152 196 156Q200 160 205 160L435 160M435 288Q440 288 444 284Q448 280 448 275L448 237Q448 232 444 228Q440 224 435 224L205 224Q200 224 196 228Q192 232 192 237L192 275Q192 280 196 284Q200 288 205 288L435 288M432 416Q439 416 443.50 411.50Q448 407 448 400L448 368Q448 361 443.50 356.50Q439 352 432 352L16 352Q9 352 4.50 356.50Q0 361 0 368L0 400Q0 407 4.50 411.50Q9 416 16 416L432 416Z"  horiz-adv-x="448" vert-adv-y="512"  />

      
      <glyph glyph-name="uniF03C" unicode="&#xF03C;" d="M27 85Q20 77 10 81Q0 85 0 96L0 288Q0 299 10 303Q20 307 27 299L123 203Q128 199 128 192Q128 185 123 181L27 85M432 32Q439 32 443.50 27.50Q448 23 448 16L448-16Q448-23 443.50-27.50Q439-32 432-32L16-32Q9-32 4.50-27.50Q0-23 0-16L0 16Q0 23 4.50 27.50Q9 32 16 32L432 32M435 160Q440 160 444 156Q448 152 448 147L448 109Q448 104 444 100Q440 96 435 96L205 96Q200 96 196 100Q192 104 192 109L192 147Q192 152 196 156Q200 160 205 160L435 160M435 288Q440 288 444 284Q448 280 448 275L448 237Q448 232 444 228Q440 224 435 224L205 224Q200 224 196 228Q192 232 192 237L192 275Q192 280 196 284Q200 288 205 288L435 288M432 416Q439 416 443.50 411.50Q448 407 448 400L448 368Q448 361 443.50 356.50Q439 352 432 352L16 352Q9 352 4.50 356.50Q0 361 0 368L0 400Q0 407 4.50 411.50Q9 416 16 416L432 416Z"  horiz-adv-x="448" vert-adv-y="512"  />

      
      <glyph glyph-name="uniF03D" unicode="&#xF03D;" d="M336 384Q356 384 370 370Q384 356 384 336L384 48Q384 28 370 14Q356 0 336 0L48 0Q28 0 14 14Q0 28 0 48L0 336Q0 356 14 370Q28 384 48 384L336 384M526 346Q542 357 559 348.50Q576 340 576 320L576 64Q576 44 558.50 35.50Q541 27 526 38L416 113L416 271L526 346Z"  horiz-adv-x="576" vert-adv-y="512"  />

      
      <glyph glyph-name="uniF03E" unicode="&#xF03E;" d="M464 0L48 0Q28 0 14 14Q0 28 0 48L0 336Q0 356 14 370Q28 384 48 384L464 384Q484 384 498 370Q512 356 512 336L512 48Q512 28 498 14Q484 0 464 0M151.50 311.50Q151.50 311.50 143.25 319.75Q135 328 112 328Q89 328 72.50 311.50Q56 295 56 272Q56 249 72.50 232.50Q89 216 112 216Q135 216 151.50 232.50Q168 249 168 272Q168 295 151.50 311.50M64 64L448 64L448 176L360 264Q352 272 344 264L208 128L152 184Q144 192 136 184L64 112L64 64Z"  horiz-adv-x="512" vert-adv-y="512"  />

      
      <glyph glyph-name="uniF041" unicode="&#xF041;" d="M172-54Q148-19 117.50 25Q87 69 74 87Q61 105 44 131.50Q27 158 21.50 169Q16 180 9.50 197Q3 214 1.50 226.50Q0 239 0 256Q0 336 56 392Q112 448 192 448Q272 448 328 392Q384 336 384 256Q384 239 382.50 226.50Q381 214 374.50 197Q368 180 362.50 169Q357 158 340 131.50Q323 105 310 87Q297 69 266.50 25Q236-19 212-54Q205-64 192-64Q179-64 172-54Z"  horiz-adv-x="384" vert-adv-y="512"  />

      
      <glyph glyph-name="uniF042" unicode="&#xF042;" d="M80.50 16.50Q80.50 16.50 44.25 52.75Q8 89 8 192Q8 295 80.50 367.50Q153 440 256 440Q359 440 431.50 367.50Q504 295 504 192Q504 89 431.50 16.50Q359-56 256-56Q153-56 80.50 16.50M256 8Q332 8 386 62Q440 116 440 192Q440 268 386 322Q332 376 256 376L256 8Z"  horiz-adv-x="512" vert-adv-y="512"  />

      
      <glyph glyph-name="uniF043" unicode="&#xF043;" d="M205 426Q221 374 248 326.50Q275 279 297 252Q319 225 335.50 188.50Q352 152 352 114Q352 40 300.50-12Q249-64 176-64Q103-64 51.50-12Q0 40 0 114Q0 152 16.50 188Q33 224 55.50 252Q78 280 104.50 327Q131 374 147 426Q154 448 176.50 448Q199 448 205 426M176 0Q183 0 187.50 4.50Q192 9 192 16Q192 23 187.50 27.50Q183 32 176 32Q143 32 119.50 55.50Q96 79 96 112Q96 119 91.50 123.50Q87 128 80 128Q73 128 68.50 123.50Q64 119 64 112Q64 66 97 33Q130 0 176 0Z"  horiz-adv-x="352" vert-adv-y="512"  />

      
      <glyph glyph-name="uniF044" unicode="&#xF044;" d="M403 365L493 275Q500 268 493 261L274 42L182 32Q176 31 170.50 34Q165 37 162 42.50Q159 48 160 54L170 146L389 365Q396 372 403 365M565 388Q576 376 576 360Q576 344 565 332L529 297Q522 290 515 297L425 387Q418 394 425 401L461 436Q472 448 488 448Q504 448 516 436L565 388M384 102Q384 107 388 110L428 150Q433 156 440.50 153Q448 150 448 142L448-16Q448-36 434-50Q420-64 400-64L48-64Q28-64 14-50Q0-36 0-16L0 336Q0 356 14 370Q28 384 48 384L334 384Q342 384 345 376.50Q348 369 342 364L302 324Q299 320 294 320L64 320L64 0L384 0L384 102Z"  horiz-adv-x="576" vert-adv-y="512"  />

      
      <glyph glyph-name="uniF048" unicode="&#xF048;" d="M64-20L64 404Q64 416 76 416L124 416Q136 416 136 404L136 228L332 409Q347 422 365.50 413Q384 404 384 384L384 0Q384-20 365.50-29Q347-38 332-25L136 155L136-20Q136-32 124-32L76-32Q64-32 64-20Z"  horiz-adv-x="448" vert-adv-y="512"  />

      
      <glyph glyph-name="uniF049" unicode="&#xF049;" d="M0 12L0 372Q0 384 12 384L52 384Q64 384 64 372L64 220L236 377Q251 390 269.50 381Q288 372 288 352L288 220L460 377Q475 390 493.50 381Q512 372 512 352L512 32Q512 12 493.50 3Q475-6 460 7L288 163L288 32Q288 12 269.50 3Q251-6 236 7L64 163L64 12Q64 0 52 0L12 0Q0 0 0 12Z"  horiz-adv-x="512" vert-adv-y="512"  />

      
      <glyph glyph-name="uniF04A" unicode="&#xF04A;" d="M12 167Q0 177 0 192Q0 207 12 217L204 377Q219 390 237.50 381Q256 372 256 352L256 32Q256 12 237.50 3Q219-6 204 7L12 167M268 167Q256 177 256 192Q256 207 268 217L460 377Q475 390 493.50 381Q512 372 512 352L512 32Q512 12 493.50 3Q475-6 460 7L268 167Z"  horiz-adv-x="512" vert-adv-y="512"  />

      
      <glyph glyph-name="uniF04B" unicode="&#xF04B;" d="M424 233Q448 219 448 192Q448 165 424 151L72-57Q49-71 24.50-57.50Q0-44 0-16L0 400Q0 430 25.50 442.50Q51 455 72 441L424 233Z"  horiz-adv-x="448" vert-adv-y="512"  />

      
      <glyph glyph-name="uniF04C" unicode="&#xF04C;" d="M144-31L48-31Q28-31 14-17Q0-3 0 17L0 369Q0 389 14 403Q28 417 48 417L144 417Q164 417 178 403Q192 389 192 369L192 17Q192-3 178-17Q164-31 144-31M448 17Q448-3 434-17Q420-31 400-31L304-31Q284-31 270-17Q256-3 256 17L256 369Q256 389 270 403Q284 417 304 417L400 417Q420 417 434 403Q448 389 448 369L448 17Z"  horiz-adv-x="448" vert-adv-y="512"  />

      
      <glyph glyph-name="uniF04D" unicode="&#xF04D;" d="M400 416Q420 416 434 402Q448 388 448 368L448 16Q448-4 434-18Q420-32 400-32L48-32Q28-32 14-18Q0-4 0 16L0 368Q0 388 14 402Q28 416 48 416L400 416Z"  horiz-adv-x="448" vert-adv-y="512"  />

      
      <glyph glyph-name="uniF04E" unicode="&#xF04E;" d="M500 217Q512 207 512 192Q512 177 500 167L308 7Q293-6 274.50 3Q256 12 256 32L256 352Q256 372 274.50 381Q293 390 308 377L500 217M244 217Q256 207 256 192Q256 177 244 167L52 7Q37-6 18.50 3Q0 12 0 32L0 352Q0 372 18.50 381Q37 390 52 377L244 217Z"  horiz-adv-x="512" vert-adv-y="512"  />

      
      <glyph glyph-name="uniF050" unicode="&#xF050;" d="M512 372L512 12Q512 0 500 0L460 0Q448 0 448 12L448 164L276 7Q261-6 242.50 3Q224 12 224 32L224 164L52 7Q37-6 18.50 3Q0 12 0 32L0 352Q0 372 18.50 381Q37 390 52 377L224 221L224 352Q224 372 242.50 381Q261 390 276 377L448 221L448 372Q448 384 460 384L500 384Q512 384 512 372Z"  horiz-adv-x="512" vert-adv-y="512"  />

      
      <glyph glyph-name="uniF051" unicode="&#xF051;" d="M384 404L384-20Q384-32 372-32L324-32Q312-32 312-20L312 156L116-25Q101-38 82.50-29Q64-20 64 0L64 384Q64 404 82.50 413Q101 422 116 409L312 229L312 404Q312 416 324 416L372 416Q384 416 384 404Z"  horiz-adv-x="448" vert-adv-y="512"  />

      
      <glyph glyph-name="uniF052" unicode="&#xF052;" d="M448 64L448 0Q448-13 438.50-22.50Q429-32 416-32L32-32Q19-32 9.50-22.50Q0-13 0 0L0 64Q0 77 9.50 86.50Q19 96 32 96L416 96Q429 96 438.50 86.50Q448 77 448 64M48 128Q17 128 4.50 156.50Q-8 185 13 208L189 400Q203 416 224 416Q245 416 259 400L435 208Q456 185 443.50 156.50Q431 128 400 128L48 128Z"  horiz-adv-x="448" vert-adv-y="512"  />

      
      <glyph glyph-name="uniF053" unicode="&#xF053;" d="M35 209L229 403Q236 410 246 410Q256 410 263 403L285 381Q292 374 292.50 364Q293 354 286 347L131 192L286 37Q293 30 292.50 20Q292 10 285 3L263-19Q256-26 246-26Q236-26 229-19L35 175Q27 182 27 192Q27 202 35 209Z"  horiz-adv-x="320" vert-adv-y="512"  />

      
      <glyph glyph-name="uniF054" unicode="&#xF054;" d="M285 175L91-19Q84-26 74-26Q64-26 57-19L35 3Q28 10 27.50 20Q27 30 34 37L189 192L34 347Q27 354 27.50 364Q28 374 35 381L57 403Q64 410 74 410Q84 410 91 403L285 209Q293 202 293 192Q293 182 285 175Z"  horiz-adv-x="320" vert-adv-y="512"  />

      
      <glyph glyph-name="uniF055" unicode="&#xF055;" d="M80.50 367.50Q80.50 367.50 116.75 403.75Q153 440 256 440Q359 440 431.50 367.50Q504 295 504 192Q504 89 431.50 16.50Q359-56 256-56Q153-56 80.50 16.50Q8 89 8 192Q8 295 80.50 367.50M400 164L400 220Q400 232 388 232L296 232L296 324Q296 336 284 336L228 336Q216 336 216 324L216 232L124 232Q112 232 112 220L112 164Q112 152 124 152L216 152L216 60Q216 48 228 48L284 48Q296 48 296 60L296 152L388 152Q400 152 400 164Z"  horiz-adv-x="512" vert-adv-y="512"  />

      
      <glyph glyph-name="uniF056" unicode="&#xF056;" d="M80.50 367.50Q80.50 367.50 116.75 403.75Q153 440 256 440Q359 440 431.50 367.50Q504 295 504 192Q504 89 431.50 16.50Q359-56 256-56Q153-56 80.50 16.50Q8 89 8 192Q8 295 80.50 367.50M124 152L388 152Q400 152 400 164L400 220Q400 232 388 232L124 232Q112 232 112 220L112 164Q112 152 124 152Z"  horiz-adv-x="512" vert-adv-y="512"  />

      
      <glyph glyph-name="uniF057" unicode="&#xF057;" d="M80.50 367.50Q80.50 367.50 116.75 403.75Q153 440 256 440Q359 440 431.50 367.50Q504 295 504 192Q504 89 431.50 16.50Q359-56 256-56Q153-56 80.50 16.50Q8 89 8 192Q8 295 80.50 367.50M378 127L312 192L378 257Q386 266 378 274L338 314Q330 322 321 314L256 248L191 314Q182 322 174 314L134 274Q126 266 134 257L200 192L134 127Q126 118 134 110L174 70Q182 62 191 70L256 136L321 70Q330 62 338 70L378 110Q386 118 378 127Z"  horiz-adv-x="512" vert-adv-y="512"  />

      
      <glyph glyph-name="uniF058" unicode="&#xF058;" d="M431.50 367.50Q431.50 367.50 467.75 331.25Q504 295 504 192Q504 89 431.50 16.50Q359-56 256-56Q153-56 80.50 16.50Q8 89 8 192Q8 295 80.50 367.50Q153 440 256 440Q359 440 431.50 367.50M227 61L411 245Q423 256 411 267L389 290Q377 301 366 290L216 140L146 210Q135 221 123 210L101 187Q89 176 101 165L205 61Q216 49 227 61Z"  horiz-adv-x="512" vert-adv-y="512"  />

      
      <glyph glyph-name="uniF059" unicode="&#xF059;" d="M431.50 367.50Q431.50 367.50 467.75 331.25Q504 295 504 192Q504 89 431.50 16.50Q359-56 256-56Q153-56 80.50 16.50Q8 89 8 192Q8 295 80.50 367.50Q153 440 256 440Q359 440 431.50 367.50M263 358Q189 358 146 294Q140 285 149 278L184 252Q193 245 200 254Q211 267 217.50 273.50Q224 280 234 285Q244 290 257 290Q274 290 288.50 280.50Q303 271 303 257Q303 246 295.50 239.50Q288 233 271 223Q253 213 244.50 207Q236 201 226 186Q216 171 216 152L216 148Q216 136 228 136L284 136Q296 136 296 148L296 149Q296 158 309 167Q322 176 337.50 184Q353 192 366 211Q379 230 379 256Q379 298 343 328Q307 358 263 358M288.50 96.50Q288.50 96.50 281.75 103.25Q275 110 256 110Q237 110 223.50 96.50Q210 83 210 64Q210 45 223.50 31.50Q237 18 256 18Q275 18 288.50 31.50Q302 45 302 64Q302 83 288.50 96.50Z"  horiz-adv-x="512" vert-adv-y="512"  />

      
      <glyph glyph-name="uniF05A" unicode="&#xF05A;" d="M80.50 367.50Q80.50 367.50 116.75 403.75Q153 440 256 440Q359 440 431.50 367.50Q504 295 504 192Q504 89 431.50 16.50Q359-56 256-56Q153-56 80.50 16.50Q8 89 8 192Q8 295 80.50 367.50M285.50 317.50Q285.50 317.50 279.25 323.75Q273 330 256 330Q239 330 226.50 317.50Q214 305 214 288Q214 271 226.50 258.50Q239 246 256 246Q273 246 285.50 258.50Q298 271 298 288Q298 305 285.50 317.50M312 76L312 100Q312 112 300 112L288 112L288 212Q288 224 276 224L212 224Q200 224 200 212L200 188Q200 176 212 176L224 176L224 112L212 112Q200 112 200 100L200 76Q200 64 212 64L300 64Q312 64 312 76Z"  horiz-adv-x="512" vert-adv-y="512"  />

      
      <glyph glyph-name="uniF05B" unicode="&#xF05B;" d="M500 224Q512 224 512 212L512 172Q512 160 500 160L470 160Q463 114 437.50 75Q412 36 373 10.50Q334-15 288-22L288-52Q288-64 276-64L236-64Q224-64 224-52L224-22Q154-11 103.50 39.50Q53 90 42 160L12 160Q0 160 0 172L0 212Q0 224 12 224L42 224Q53 294 103.50 344.50Q154 395 224 406L224 436Q224 448 236 448L276 448Q288 448 288 436L288 406Q358 395 408.50 344.50Q459 294 470 224L500 224M288 43Q332 53 363.50 84.50Q395 116 405 160L364 160Q352 160 352 172L352 212Q352 224 364 224L405 224Q395 268 363.50 299.50Q332 331 288 341L288 300Q288 288 276 288L236 288Q224 288 224 300L224 341Q180 331 148.50 299.50Q117 268 107 224L148 224Q160 224 160 212L160 172Q160 160 148 160L107 160Q117 116 148.50 84.50Q180 53 224 43L224 84Q224 96 236 96L276 96Q288 96 288 84L288 43M278.50 214.50Q278.50 214.50 283.25 209.75Q288 205 288 192Q288 179 278.50 169.50Q269 160 256 160Q243 160 233.50 169.50Q224 179 224 192Q224 205 233.50 214.50Q243 224 256 224Q269 224 278.50 214.50Z"  horiz-adv-x="512" vert-adv-y="512"  />

      
      <glyph glyph-name="uniF05E" unicode="&#xF05E;" d="M80.50 367.50Q80.50 367.50 116.75 403.75Q153 440 256 440Q359 440 431.50 367.50Q504 295 504 192Q504 89 431.50 16.50Q359-56 256-56Q153-56 80.50 16.50Q8 89 8 192Q8 295 80.50 367.50M439.50 206Q439.50 206 436.75 240Q434 274 386 322Q338 370 270 375.50Q202 381 150 343L407 86Q445 138 439.50 206M72.50 178Q72.50 178 75.25 144Q78 110 126 62Q174 14 242 8.50Q310 3 362 41L105 298Q67 246 72.50 178Z"  horiz-adv-x="512" vert-adv-y="512"  />

      
      <glyph glyph-name="uniF060" unicode="&#xF060;" d="M258 3L235-19Q228-26 218-26Q208-26 201-19L7 175Q0 182 0 192Q0 202 7 209L201 403Q208 410 218 410Q228 410 235 403L258 381Q265 374 264.50 364Q264 354 257 347L137 232L424 232Q434 232 441 225Q448 218 448 208L448 176Q448 166 441 159Q434 152 424 152L137 152L257 37Q264 30 264.50 20Q265 10 258 3Z"  horiz-adv-x="448" vert-adv-y="512"  />

      
      <glyph glyph-name="uniF061" unicode="&#xF061;" d="M190 381L213 403Q220 410 230 410Q240 410 247 403L441 209Q448 202 448 192Q448 182 441 175L247-19Q240-26 230-26Q220-26 213-19L190 3Q183 10 183.50 20Q184 30 191 37L311 152L24 152Q14 152 7 159Q0 166 0 176L0 208Q0 218 7 225Q14 232 24 232L311 232L191 347Q184 354 183.50 364Q183 374 190 381Z"  horiz-adv-x="448" vert-adv-y="512"  />

      
      <glyph glyph-name="uniF062" unicode="&#xF062;" d="M35 158L13 181Q6 188 6 198Q6 208 13 215L207 409Q214 416 224 416Q234 416 241 409L435 215Q442 208 442 198Q442 188 435 181L413 159Q406 151 396 151.50Q386 152 379 159L264 279L264-8Q264-18 257-25Q250-32 240-32L208-32Q198-32 191-25Q184-18 184-8L184 279L69 159Q62 152 52 151.50Q42 151 35 158Z"  horiz-adv-x="448" vert-adv-y="512"  />

      
      <glyph glyph-name="uniF063" unicode="&#xF063;" d="M413 226L435 203Q442 196 442 186Q442 176 435 169L241-25Q234-32 224-32Q214-32 207-25L13 169Q6 176 6 186Q6 196 13 203L35 226Q42 233 52 232.50Q62 232 69 225L184 105L184 392Q184 402 191 409Q198 416 208 416L240 416Q250 416 257 409Q264 402 264 392L264 105L379 225Q386 232 396 232.50Q406 233 413 226Z"  horiz-adv-x="448" vert-adv-y="512"  />

      
      <glyph glyph-name="uniF064" unicode="&#xF064;" d="M504 258Q512 251 512 240Q512 229 504 222L328 70Q316 60 302 66.50Q288 73 288 88L288 176Q239 175 205 169.50Q171 164 146 151.50Q121 139 109.50 118Q98 97 98 65Q98 33 111-10Q115-22 104.50-29Q94-36 83-28Q48-3 24 39.50Q0 82 0 126Q0 170 15 203Q30 236 55 256.50Q80 277 118 289.50Q156 302 196 306.50Q236 311 288 312L288 392Q288 407 302 413.50Q316 420 328 410L504 258Z"  horiz-adv-x="512" vert-adv-y="512"  />

      
      <glyph glyph-name="uniF065" unicode="&#xF065;" d="M0 268L0 392Q0 402 7 409Q14 416 24 416L148 416Q160 416 160 404L160 364Q160 352 148 352L64 352L64 268Q64 256 52 256L12 256Q0 256 0 268M288 404Q288 416 300 416L424 416Q434 416 441 409Q448 402 448 392L448 268Q448 256 436 256L396 256Q384 256 384 268L384 352L300 352Q288 352 288 364L288 404M436 128Q448 128 448 116L448-8Q448-18 441-25Q434-32 424-32L300-32Q288-32 288-20L288 20Q288 32 300 32L384 32L384 116Q384 128 396 128L436 128M160-20Q160-32 148-32L24-32Q14-32 7-25Q0-18 0-8L0 116Q0 128 12 128L52 128Q64 128 64 116L64 32L148 32Q160 32 160 20L160-20Z"  horiz-adv-x="448" vert-adv-y="512"  />

      
      <glyph glyph-name="uniF066" unicode="&#xF066;" d="M436 256L312 256Q302 256 295 263Q288 270 288 280L288 404Q288 416 300 416L340 416Q352 416 352 404L352 320L436 320Q448 320 448 308L448 268Q448 256 436 256M160 280Q160 270 153 263Q146 256 136 256L12 256Q0 256 0 268L0 308Q0 320 12 320L96 320L96 404Q96 416 108 416L148 416Q160 416 160 404L160 280M160-20Q160-32 148-32L108-32Q96-32 96-20L96 64L12 64Q0 64 0 76L0 116Q0 128 12 128L136 128Q146 128 153 121Q160 114 160 104L160-20M352-20Q352-32 340-32L300-32Q288-32 288-20L288 104Q288 114 295 121Q302 128 312 128L436 128Q448 128 448 116L448 76Q448 64 436 64L352 64L352-20Z"  horiz-adv-x="448" vert-adv-y="512"  />

      
      <glyph glyph-name="uniF067" unicode="&#xF067;" d="M416 240Q429 240 438.50 230.50Q448 221 448 208L448 176Q448 163 438.50 153.50Q429 144 416 144L272 144L272 0Q272-13 262.50-22.50Q253-32 240-32L208-32Q195-32 185.50-22.50Q176-13 176 0L176 144L32 144Q19 144 9.50 153.50Q0 163 0 176L0 208Q0 221 9.50 230.50Q19 240 32 240L176 240L176 384Q176 397 185.50 406.50Q195 416 208 416L240 416Q253 416 262.50 406.50Q272 397 272 384L272 240L416 240Z"  horiz-adv-x="448" vert-adv-y="512"  />

      
      <glyph glyph-name="uniF068" unicode="&#xF068;" d="M416 240Q429 240 438.50 230.50Q448 221 448 208L448 176Q448 163 438.50 153.50Q429 144 416 144L32 144Q19 144 9.50 153.50Q0 163 0 176L0 208Q0 221 9.50 230.50Q19 240 32 240L416 240Z"  horiz-adv-x="448" vert-adv-y="512"  />

      
      <glyph glyph-name="uniF069" unicode="&#xF069;" d="M478 114Q487 109 489.50 99.50Q492 90 487 81L468 47Q463 38 453 35.50Q443 33 435 39L296 123L299-39Q300-50 293-57Q286-64 275-64L237-64Q226-64 219-57Q212-50 213-39L216 123L77 39Q69 33 59 35.50Q49 38 44 47L25 81Q20 90 22.50 99.50Q25 109 34 114L176 192L34 270Q25 275 22.50 284.50Q20 294 25 303L44 337Q49 346 59 348.50Q69 351 77 345L216 261L213 423Q212 430 215.50 435.50Q219 441 224.50 444.50Q230 448 237 448L275 448Q286 448 293 441Q300 434 299 423L296 261L435 345Q443 351 453 348.50Q463 346 468 337L487 303Q492 294 489.50 284.50Q487 275 478 270L336 192L478 114Z"  horiz-adv-x="512" vert-adv-y="512"  />

      
      <glyph glyph-name="uniF06A" unicode="&#xF06A;" d="M431.50 367.50Q431.50 367.50 467.75 331.25Q504 295 504 192Q504 89 431.50 16.50Q359-56 256-56Q153-56 80.50 16.50Q8 89 8 192Q8 295 80.50 367.50Q153 440 256 440Q359 440 431.50 367.50M288.50 128.50Q288.50 128.50 281.75 135.25Q275 142 256 142Q237 142 223.50 128.50Q210 115 210 96Q210 77 223.50 63.50Q237 50 256 50Q275 50 288.50 63.50Q302 77 302 96Q302 115 288.50 128.50M212 307L220 171Q220 160 232 160L280 160Q292 160 292 171L300 307Q300 313 296.50 316.50Q293 320 288 320L224 320Q219 320 215.50 316.50Q212 313 212 307Z"  horiz-adv-x="512" vert-adv-y="512"  />

      
      <glyph glyph-name="uniF06B" unicode="&#xF06B;" d="M32 0L32 128L224 128L224-32L64-32Q51-32 41.50-22.50Q32-13 32 0M288-32L288 128L480 128L480 0Q480-13 470.50-22.50Q461-32 448-32L288-32M480 288Q493 288 502.50 278.50Q512 269 512 256L512 176Q512 169 507.50 164.50Q503 160 496 160L16 160Q9 160 4.50 164.50Q0 169 0 176L0 256Q0 269 9.50 278.50Q19 288 32 288L76 288Q66 307 66 328Q66 364 92 390Q118 416 154 416Q184 416 207 400Q230 384 257 348Q284 384 307 400Q330 416 360 416Q396 416 422 390Q448 364 448 328Q448 308 438 288L480 288M154 288L240 288Q205 341 188.50 354.50Q172 368 154 368Q143 368 134 362.50Q125 357 119.50 348Q114 339 114 328Q114 311 125.50 299.50Q137 288 154 288M360 288Q377 288 388.50 299.50Q400 311 400 328Q400 345 388.50 356.50Q377 368 360 368Q348 368 339.50 364.50Q331 361 315 343Q299 325 274 288L360 288Z"  horiz-adv-x="512" vert-adv-y="512"  />

      
      <glyph glyph-name="uniF06C" unicode="&#xF06C;" d="M546 438Q576 372 576 294Q576 163 500.50 70.50Q425-22 308-31Q252-37 206.50-14Q161 9 134 46Q81 2 62-44Q57-56 44.50-61.50Q32-67 20-62Q8-57 2.50-44.50Q-3-32 2-20Q11 1 27 24.50Q43 48 75 79Q107 110 147.50 134Q188 158 250.50 175Q313 192 384 192Q391 192 395.50 196.50Q400 201 400 208Q400 215 395.50 219.50Q391 224 384 224Q215 224 98 140Q96 154 96 160Q96 240 152 296Q208 352 288 352L368 352Q415 352 454.50 375.50Q494 399 518 440Q523 448 532.50 448Q542 448 546 438Z"  horiz-adv-x="576" vert-adv-y="512"  />

      
      <glyph glyph-name="uniF06D" unicode="&#xF06D;" d="M216 424Q216 396 233.50 371Q251 346 275.50 324Q300 302 324.50 277Q349 252 366.50 213.50Q384 175 384 128Q384 49 327.50-7.50Q271-64 192-64Q113-64 56.50-7.50Q0 49 0 128Q0 206 55 263Q66 275 81 269Q96 263 96 246L96 161Q96 134 114.50 115Q133 96 159 96Q186 96 205 114.50Q224 133 224 160Q224 177 214.50 193Q205 209 192 222Q179 235 164.50 249Q150 263 140.50 280Q131 297 128 318Q125 339 135.50 369.50Q146 400 172 437Q182 452 199 447Q216 442 216 424Z"  horiz-adv-x="384" vert-adv-y="512"  />

      
      <glyph glyph-name="uniF06E" unicode="&#xF06E;" d="M573 207Q576 200 576 192Q576 184 573 177Q531 97 455 48.50Q379 0 288 0Q228 0 172.50 22.50Q117 45 74 84.50Q31 124 3 177Q0 184 0 192Q0 200 3 207Q45 287 121 335.50Q197 384 288 384Q379 384 455 335.50Q531 287 573 207M288 48Q348 48 390 90Q432 132 432 192Q432 252 390 294Q348 336 288 336Q228 336 186 294Q144 252 144 192Q144 132 186 90Q228 48 288 48M288 288Q328 288 356 260Q384 232 384 192.50Q384 153 356 124.50Q328 96 288.50 96Q249 96 220.50 124.50Q192 153 192 192Q192 205 196 217Q208 208 224 208Q244 208 258 222Q272 236 272 256Q272 272 263 284Q275 288 288 288Z"  horiz-adv-x="576" vert-adv-y="512"  />

      
      <glyph glyph-name="uniF070" unicode="&#xF070;" d="M320 48Q333 48 346 51L398 10Q357 0 320 0Q229 0 153 48.50Q77 97 35 177Q32 184 32 192Q32 200 35 207Q49 233 72 262L177 181Q180 144 199.50 113.50Q219 83 251 65.50Q283 48 320 48M634-10Q640-15 640-23Q640-28 637-33L617-58Q612-64 604-64Q599-64 595-61L6 394Q0 399 0 407Q0 412 3 417L23 442Q28 448 36 448Q41 448 45 445L173 346Q242 384 320 384Q411 384 487 335.50Q563 287 605 207Q608 200 608 192Q608 184 605 177Q574 118 523 75L634-10M450 132Q464 161 464 192Q464 252 422 294Q380 336 320 336Q268 336 229 303L302 246Q304 251 304 256Q304 272 295 284Q308 288 321 288Q360 288 388 260Q416 232 416 193Q416 193 416 192Q416 177 411 162L450 132Z"  horiz-adv-x="640" vert-adv-y="512"  />

      
      <glyph glyph-name="uniF071" unicode="&#xF071;" d="M570 8Q583-16 569.50-40Q556-64 528-64L48-64Q20-64 6.50-40Q-7-16 6 8L246 424Q260 448 288 448Q316 448 330 424L570 8M320.50 80.50Q320.50 80.50 313.75 87.25Q307 94 288 94Q269 94 255.50 80.50Q242 67 242 48Q242 29 255.50 15.50Q269 2 288 2Q307 2 320.50 15.50Q334 29 334 48Q334 67 320.50 80.50M244 259L252 123Q252 112 264 112L312 112Q324 112 324 123L332 259Q332 265 328.50 268.50Q325 272 320 272L256 272Q251 272 247.50 268.50Q244 265 244 259Z"  horiz-adv-x="576" vert-adv-y="512"  />

      
      <glyph glyph-name="uniF072" unicode="&#xF072;" d="M480 256Q510 256 543 236.50Q576 217 576 192Q576 167 543 147.50Q510 128 480 128L366 128L261-56Q256-64 247-64L181-64Q173-64 168.50-57.50Q164-51 166-44L215 128L112 128L69 70Q64 64 56 64L16 64Q8 64 3.50 70Q-1 76 0 84L32 192L0 300Q-1 308 3.50 314Q8 320 16 320L56 320Q64 320 69 314L112 256L215 256L166 428Q165 431 165.50 435Q166 439 168.50 442Q171 445 174 446.50Q177 448 181 448L247 448Q256 448 261 440L366 256L480 256Z"  horiz-adv-x="576" vert-adv-y="512"  />

      
      <glyph glyph-name="uniF073" unicode="&#xF073;" d="M0-16L0 256L448 256L448-16Q448-36 434-50Q420-64 400-64L48-64Q28-64 14-50Q0-36 0-16M320 180L320 140Q320 128 332 128L372 128Q384 128 384 140L384 180Q384 192 372 192L332 192Q320 192 320 180M320 52L320 12Q320 0 332 0L372 0Q384 0 384 12L384 52Q384 64 372 64L332 64Q320 64 320 52M192 180L192 140Q192 128 204 128L244 128Q256 128 256 140L256 180Q256 192 244 192L204 192Q192 192 192 180M192 52L192 12Q192 0 204 0L244 0Q256 0 256 12L256 52Q256 64 244 64L204 64Q192 64 192 52M64 180L64 140Q64 128 76 128L116 128Q128 128 128 140L128 180Q128 192 116 192L76 192Q64 192 64 180M64 52L64 12Q64 0 76 0L116 0Q128 0 128 12L128 52Q128 64 116 64L76 64Q64 64 64 52M400 384Q420 384 434 370Q448 356 448 336L448 288L0 288L0 336Q0 356 14 370Q28 384 48 384L96 384L96 432Q96 439 100.50 443.50Q105 448 112 448L144 448Q151 448 155.50 443.50Q160 439 160 432L160 384L288 384L288 432Q288 439 292.50 443.50Q297 448 304 448L336 448Q343 448 347.50 443.50Q352 439 352 432L352 384L400 384Z"  horiz-adv-x="448" vert-adv-y="512"  />

      
      </font>
</defs>
</svg>
