<svg id="Слой_2" data-name="Слой 2" xmlns="http://www.w3.org/2000/svg" viewBox="0 0 1116.5 924.59"><defs><style>.cls-1{fill:#fff}.cls-2{fill:#2195d3}</style></defs><path class="cls-1" d="M28.5 31.29h1060v677H28.5z"/><path class="cls-2" d="M1116 731.38V.71H-.5v730.67h504.77v165.93H363.34v28h388.82v-28H610.23V731.38zM32.49 697.4V35.69H1082V697.4z" transform="translate(.5 -.71)"/><path d="M792 676.5H599.39a23.48 23.48 0 01-23.15-27.42l72.12-423.62 102.44 1.09 64.41 424a21.76 21.76 0 01-5.09 17.59A23.69 23.69 0 01792 676.5zm-135.22-441L586.1 650.76a13.48 13.48 0 0013.29 15.74H792a13.72 13.72 0 0010.49-4.87 11.86 11.86 0 002.85-9.56L742.2 236.45z" transform="translate(.5 -.71)"/><path d="M535.14 167.59l-17-74.33A31.86 31.86 0 00487.1 68.5h-3.38a31.85 31.85 0 00-31.06 24.82L435.29 170a31.31 31.31 0 00-.79 7v42.7a32 32 0 00.83 7.24l18.42 78.89a31.86 31.86 0 0031 24.61A31.86 31.86 0 00515.5 307l19.5-71.25a7.12 7.12 0 016.87-5.25h391.81a14.81 14.81 0 0014.81-14.81v-27.75a14.81 14.81 0 00-14.81-14.81h-391.6a7.12 7.12 0 01-6.94-5.54zm-52.59-74a15 15 0 11-12.93 12.93 15 15 0 0112.93-12.9zm3.9 214.76a15 15 0 1112.93-12.93 15 15 0 01-12.93 12.96zm.78-80a27.5 27.5 0 1125.18-25.18 27.49 27.49 0 01-25.18 25.24z" transform="translate(.5 -.71)"/><path d="M484.77 331a32.21 32.21 0 01-31.5-25l-18.42-78.88a32.59 32.59 0 01-.85-7.36v-42.7a32.36 32.36 0 01.8-7.14l17.37-76.71A32.18 32.18 0 01483.72 68h3.38a32.19 32.19 0 0131.54 25.15l17 74.33a6.6 6.6 0 006.46 5.15h391.6a15.33 15.33 0 0115.3 15.31v27.75A15.33 15.33 0 01933.68 231H541.84a6.64 6.64 0 00-6.39 4.88L516 307.17A32.43 32.43 0 01484.77 331zm-1-262a31.17 31.17 0 00-30.57 24.43l-17.38 76.71a31.5 31.5 0 00-.77 6.92v42.7a31.64 31.64 0 00.82 7.13l18.42 78.89a31.35 31.35 0 0060.71 1.13l19.47-71.3a7.65 7.65 0 017.36-5.61h391.85A14.33 14.33 0 00948 215.69v-27.75a14.33 14.33 0 00-14.31-14.31H542.08a7.58 7.58 0 01-7.43-5.92l-17-74.34A31.2 31.2 0 00487.1 69zm.79 240a15.5 15.5 0 01-15.38-17.51 15.5 15.5 0 1117.38 17.38 15 15 0 01-2.05.13zm1.88-1.12l.06.5-.06-.5a14.52 14.52 0 10-12.14-4.13 14.6 14.6 0 0012.09 4.13zM485 229a28 28 0 112.23-.09c-.71.09-1.45.09-2.23.09zm2.15-1.09v.5-.5a27 27 0 10-21.28-7.82 27.12 27.12 0 0021.32 7.82zM484.51 124a15.5 15.5 0 01-15.38-17.51 15.5 15.5 0 1117.38 17.38 15 15 0 01-2 .13zm-2-30.38l.06.5a14.52 14.52 0 1012.14 4.13 14.6 14.6 0 00-12.14-4.13z" transform="translate(.5 -.71)"/><path d="M484 229a28 28 0 1128-28 28 28 0 01-28 28zm0-55a27 27 0 1027 27 27 27 0 00-27-27zm.5 135a15.5 15.5 0 1115.5-15.5 15.51 15.51 0 01-15.5 15.5zm0-30a14.5 14.5 0 1014.5 14.5 14.51 14.51 0 00-14.5-14.5zm0-155a15.5 15.5 0 1115.5-15.5 15.51 15.51 0 01-15.5 15.5zm0-30a14.5 14.5 0 1014.5 14.5A14.51 14.51 0 00484.5 94z" transform="translate(.5 -.71)"/><path class="cls-1" d="M300.9 211.52c-27.4 8-45.4-6-52.4-19-4.08-7.57-8-29 6-46 14.38-17.47 17-30 15-40s-9-26-28-29c-11.26-1.78-29-2-43.4 11a81 81 0 00102.83 123z" transform="translate(.5 -.71)"/><path d="M339.5 142.5a80.94 80.94 0 01-38.57 69C274 221 255 206 248 193c-4.08-7.57-7.5-29.5 6.5-46.5C268.88 129 271 116 269 106s-8-25-27-28c-11.26-1.78-29.5-2.5-43.9 10.53a81 81 0 01141.4 54z" transform="translate(.5 -.71)"/><path class="cls-2" d="M231.5 190.5c-6-16-4-26 2-35s11-21 7-33-14.62-23-14.62-23 1.62 10-4.38 16-20.61 16.29-24 29c-4 15-4 48.06 51.87 67-1.32-.62-12.24-5.98-17.87-21z" transform="translate(.5 -.71)"/><path d="M327.68 675.5H189.9a21.3 21.3 0 01-16.17-7.44 19.44 19.44 0 01-4.68-15.55l52.84-385.81c1.35-11.09 10.13-19.2 20.86-19.2h29.82a21.15 21.15 0 0120.85 18.08l55.1 385.89a21 21 0 01-20.84 24zm-84.93-418c-5.69 0-10.19 4.31-10.94 10.48L179 653.94a9.5 9.5 0 002.36 7.6 11.3 11.3 0 008.59 4h137.73a11 11 0 0010.94-12.62L283.52 267a11.11 11.11 0 00-10.95-9.49zm561.9 414a5 5 0 01-1.2-.15l-215.14-53.14a5 5 0 011.2-9.86H768l-169.95-49.87a5 5 0 011.41-9.8h162.08l-155.13-51.94A5 5 0 01608 487h.06l150.52 1.69-139.87-54.46a5 5 0 011.81-9.66h128.71l-121-46.91A5 5 0 01630 368h112.7L637 322.59a5 5 0 012-9.59h95.25l-88.31-37.4a5 5 0 011.9-9.6l77.64-.75-74.78-30.11a5 5 0 113.74-9.28l98.1 39.5a5 5 0 01-1.81 9.64l-78.76.77 88.86 37.63a5 5 0 01-2 9.6H663.3L769 368.41a5 5 0 01-2 9.59H656.74l121 46.91a5 5 0 01-1.81 9.66H647.14l140.67 54.77A5 5 0 01786 499h-.06l-146.19-1.64 154.06 51.58a5 5 0 01-1.58 9.74h-158l169.94 49.87a5 5 0 01-1.41 9.8H630.6l175.25 43.29a5 5 0 01-1.2 9.86z" transform="translate(.5 -.71)"/><path d="M342.08 666.56a5 5 0 01-1.56-.25l-162.1-52.95a5 5 0 011.62-9.75l131.28 1.67-125.09-51.62a5 5 0 011.9-9.62l116 .46L194 496.26a5 5 0 012-9.58l102.53.82-97.1-47.2a5 5 0 012.18-9.5h88L208.68 389a5 5 0 012.31-9.46l74.54.79-69.93-39.5a5 5 0 012.46-9.35h.07l61 .77-57-34a5 5 0 012.56-9.3H273l-43.61-26.74a5 5 0 115.22-8.52l58.72 36a5 5 0 01-2.62 9.26h-47.86l57.35 34.21a5 5 0 01-2.62 9.29l-60.07-.76 69.86 39.46a5 5 0 012.37 5.65 4.93 4.93 0 01-4.88 3.71l-72.43-.77 82.5 41.55a5 5 0 01-2.25 9.46h-87.31l97.47 47.38a5 5 0 01-2.22 9.5l-100.31-.81L330.22 545a5 5 0 01-2 9.58l-114.58-.46L339.26 606a5 5 0 01-2 9.62L212.66 614l131 42.79a5 5 0 01-1.55 9.75z" transform="translate(.5 -.71)"/></svg>